<svg width="81" height="80" viewBox="0 0 81 80" fill="none" xmlns="http://www.w3.org/2000/svg">
<g id="Frame">
<g id="Group">
<path id="Vector" d="M10.3574 62.6789C10.5184 61.707 10.598 60.7258 10.598 59.7461C10.598 57.3914 10.1371 55.0398 9.2168 52.8305C5.99961 45.0961 9.53555 36.207 17.1871 32.7977L21.7152 30.7805C21.7152 30.7805 21.8152 30.7383 21.9965 30.6539C27.3434 28.1461 30.898 22.9039 31.2371 17.007C31.3637 14.7899 31.1699 13.432 31.1699 13.432H48.134C48.134 13.432 47.9402 14.7899 48.0668 17.007C48.1027 17.6383 48.1762 18.2633 48.2855 18.8774M50.0934 23.943C51.7386 26.8782 54.2612 29.2248 57.3074 30.6539C57.4887 30.7383 57.5887 30.7805 57.5887 30.7805L62.1168 32.7977C67.8527 35.3524 71.2762 40.9867 71.2762 46.9055C71.2762 48.8836 70.8918 50.893 70.0871 52.8305C69.1747 55.0219 68.7053 57.3723 68.7059 59.7461C68.7059 61.6289 68.9996 63.518 69.5949 65.3352C71.0264 69.7153 71.9696 74.2401 72.4074 78.8273H6.89648C7.24648 75.157 7.92305 71.518 8.91836 67.9523M40.5527 63.3773V30.593M40.5527 78.8273V68.8461" stroke="#2BC7E8" stroke-width="2" stroke-miterlimit="10" stroke-linecap="round" stroke-linejoin="round"/>
<path id="Vector_2" d="M28.0946 65.0039L30.3199 62.4197C31.5603 60.9793 32.4894 59.2979 33.0488 57.4811C33.6083 55.6644 33.786 53.7517 33.5708 51.863L32.4652 42.1578M53.01 65.0039L50.7847 62.4197C49.5443 60.9793 48.6152 59.2979 48.0558 57.4811C47.4963 55.6644 47.3186 53.7517 47.5338 51.863L48.6394 42.1578M20.828 53.3947C20.828 53.3947 21.8168 64.9917 21.7269 78.8281M59.0522 78.8281C58.9608 64.9917 59.9511 53.3947 59.9511 53.3947M59.3697 9.29047V18.94C59.3697 19.9367 60.1777 20.7448 61.1746 20.7448H70.8241C72.4321 20.7448 73.2372 18.8008 72.1004 17.6639L70.6128 16.1764L78.4141 8.37516C79.1189 7.67032 79.1189 6.52766 78.4141 5.82282L74.2919 1.70063C73.5871 0.995786 72.4444 0.995786 71.7396 1.70063L63.9383 9.50188L62.4508 8.01438C61.3138 6.87719 59.3697 7.6825 59.3697 9.29047ZM21.6316 9.29047V18.94C21.6316 19.9367 20.8236 20.7448 19.8268 20.7448H10.1772C8.56926 20.7448 7.7641 18.8008 8.90098 17.6639L10.3885 16.1764L2.58723 8.37516C1.88238 7.67032 1.88238 6.52766 2.58723 5.82282L6.70941 1.70063C7.41426 0.995786 8.55691 0.995786 9.26176 1.70063L17.063 9.50188L18.5505 8.01438C19.6875 6.87719 21.6316 7.6825 21.6316 9.29047Z" stroke="#2BC7E8" stroke-width="2" stroke-miterlimit="10" stroke-linecap="round" stroke-linejoin="round"/>
</g>
</g>
</svg>
