<svg width="80" height="80" viewBox="0 0 80 80" fill="none" xmlns="http://www.w3.org/2000/svg">
<g id="Frame">
<g id="Group">
<path id="Vector" d="M30.5541 13.8983L30.8099 17.4797C30.8478 18.0105 30.7212 18.5401 30.4473 18.9964C30.1734 19.4526 29.7656 19.8134 29.2793 20.0295L25.9416 21.513C22.3184 23.1233 20.7726 27.4322 22.5457 30.9786C23.1233 32.1338 24.0112 33.1053 25.1099 33.7844C26.2086 34.4634 27.4746 34.8231 28.7662 34.8231H30.0891C33.1196 34.8231 36.0259 33.6192 38.1688 31.4764C39.1798 30.4655 40.8187 30.4655 41.8296 31.4764C43.9725 33.6193 46.8788 34.8231 49.9093 34.8231H51.2323C52.5238 34.8231 53.7899 34.4635 54.8886 33.7844C55.9873 33.1054 56.8752 32.1338 57.4527 30.9786C59.2259 27.4322 57.6801 23.1233 54.0568 21.513L50.7191 20.0295C50.2329 19.8134 49.825 19.4526 49.5511 18.9964C49.2772 18.5401 49.1506 18.0105 49.1885 17.4797L50.2543 2.55844C50.3077 1.80922 49.7145 1.17188 48.9634 1.17188H31.0351C30.284 1.17188 29.6905 1.80906 29.7441 2.55844L30.1635 8.42953M38.706 76.3855V77.5339C38.706 77.8772 38.8424 78.2063 39.0851 78.4491C39.3278 78.6918 39.657 78.8281 40.0002 78.8281H50.2576C51.0087 78.8281 51.6021 78.1909 51.5485 77.4416L50.4765 62.4342C50.44 61.9234 50.5558 61.4132 50.8094 60.9683C51.0629 60.5233 51.4428 60.1635 51.9009 59.9345L54.3082 58.7309C57.8424 56.9639 59.2749 52.6663 57.5079 49.1322C56.9137 47.9438 56.0003 46.9443 54.8701 46.2457C53.7398 45.5472 52.4374 45.1772 51.1087 45.1772H47.2543C47.0132 45.1772 46.7759 45.1177 46.5633 45.0039C46.3508 44.8902 46.1696 44.7257 46.0359 44.5252C45.3734 43.5313 44.4757 42.7165 43.4227 42.1529C42.3696 41.5893 41.1937 41.2944 39.9993 41.2944C38.8049 41.2944 37.629 41.5892 36.5759 42.1528C35.5228 42.7164 34.6252 43.5313 33.9627 44.5252C33.829 44.7257 33.6478 44.8902 33.4353 45.0039C33.2227 45.1177 32.9854 45.1772 32.7443 45.1772H28.8899C27.5612 45.1772 26.2588 45.5472 25.1285 46.2457C23.9983 46.9443 23.0849 47.9438 22.4907 49.1322C20.7237 52.6664 22.1562 56.9639 25.6904 58.7309C28.2913 60.0314 31.1592 60.7084 34.0671 60.7084H36.1177C37.5474 60.7084 38.7063 61.8673 38.7063 63.297V70.9169M3.75977 40H8.9368M8.61492 58.1198L13.0984 55.5312M71.3837 58.1198L66.9002 55.5312M76.2388 40H71.0618M71.3837 21.8802L66.9002 24.4688M8.61492 21.8802L13.0984 24.4688" stroke="#2BC7E8" stroke-width="2" stroke-miterlimit="10" stroke-linecap="round" stroke-linejoin="round"/>
<path id="Vector_2" d="M24.4673 33.3347C20.3788 36.8438 20.3688 43.1678 24.4462 46.6899L24.4673 46.7082M55.5298 33.3347C59.6182 36.8438 59.6282 43.1678 55.5509 46.6899L55.5298 46.7082M25.0321 58.3577C24.6601 59.0854 24.4665 59.8911 24.4673 60.7083C24.4673 62.7628 25.6643 64.5374 27.3988 65.3735C27.9551 65.6416 28.2594 66.2497 28.1146 66.8502C27.3083 70.1941 26.6227 73.7535 26.1013 77.3482C25.988 78.1286 26.5946 78.8282 27.3832 78.8282H32.6163C33.2548 78.8282 33.7991 78.3627 33.8949 77.7314C34.801 71.753 36.1732 65.9571 37.7862 61.3203M46.0351 44.525C47.1462 46.6075 47.7641 49.3496 47.7641 52.1977V52.9428" stroke="#2BC7E8" stroke-width="2" stroke-miterlimit="10" stroke-linecap="round" stroke-linejoin="round"/>
</g>
</g>
</svg>
