<svg width="80" height="80" viewBox="0 0 80 80" fill="none" xmlns="http://www.w3.org/2000/svg">
<g id="Frame">
<g id="Group">
<path id="Vector" d="M59.3638 13.76C58.0706 12.1972 56.4494 10.9383 54.6151 10.0724C52.7808 9.20658 50.7784 8.75509 48.75 8.75V1.25H46.25V10C46.25 10.3315 46.3817 10.6495 46.6161 10.8839C46.8505 11.1183 47.1685 11.25 47.5 11.25H48.75C50.4958 11.2541 52.2169 11.6626 53.7783 12.4433C55.3398 13.2241 56.6992 14.3559 57.75 15.75C57.8664 15.9052 58.0174 16.0312 58.191 16.118C58.3646 16.2048 58.5559 16.25 58.75 16.25C63.3898 16.255 67.8381 18.1003 71.1189 21.3811C74.3997 24.6619 76.245 29.1102 76.25 33.75V78.75H78.75V33.75C78.7439 28.5538 76.7181 23.5635 73.1006 19.8334C69.4831 16.1033 64.5573 13.9254 59.3638 13.76Z" fill="#2BC7E8"/>
<path id="Vector_2" d="M67.4212 40.44L65.0788 39.565L61.3288 49.565C61.2771 49.7042 61.2504 49.8515 61.25 50V53.455C61.2455 55.0994 60.8604 56.7205 60.125 58.1913C59.2214 60.0104 58.7508 62.0138 58.75 64.045V78.75H61.25V64.045C61.2545 62.4006 61.6396 60.7795 62.375 59.3087C62.9054 58.2254 63.284 57.0742 63.5 55.8875C64.4902 59.1287 64.9957 62.4984 65 65.8875V78.75H67.5V65.885C67.4895 60.3677 66.2436 54.9228 63.8538 49.95L67.4212 40.44ZM32.5 11.25C32.8315 11.25 33.1495 11.1183 33.3839 10.8839C33.6183 10.6495 33.75 10.3315 33.75 10V1.25H31.25V8.75C29.2216 8.75509 27.2192 9.20658 25.3849 10.0724C23.5506 10.9383 21.9294 12.1972 20.6363 13.76C15.4427 13.9254 10.5169 16.1033 6.8994 19.8334C3.28192 23.5635 1.25612 28.5538 1.25 33.75V78.75H3.75V33.75C3.75496 29.1102 5.6003 24.6619 8.88111 21.3811C12.1619 18.1003 16.6102 16.255 21.25 16.25C21.4441 16.25 21.6354 16.2048 21.809 16.118C21.9826 16.0312 22.1336 15.9052 22.25 15.75C23.3008 14.3559 24.6602 13.2241 26.2217 12.4433C27.7831 11.6626 29.5042 11.2541 31.25 11.25H32.5Z" fill="#2BC7E8"/>
<path id="Vector_3" d="M18.75 53.455V50C18.7502 49.8498 18.7235 49.7008 18.6713 49.56L14.9213 39.56L12.5787 40.435L16.1462 49.945C13.7557 54.9194 12.5098 60.366 12.5 65.885V78.75H15V65.885C15.0043 62.4959 15.5098 59.1262 16.5 55.885C16.716 57.0717 17.0946 58.2229 17.625 59.3063C18.3608 60.7778 18.7458 62.3997 18.75 64.045V78.75H21.25V64.045C21.2492 62.0138 20.7786 60.0104 19.875 58.1913C19.1396 56.7205 18.7545 55.0994 18.75 53.455ZM45 72.5C45 72.1685 44.8683 71.8505 44.6339 71.6161C44.3995 71.3817 44.0815 71.25 43.75 71.25H36.25C35.9185 71.25 35.6005 71.3817 35.3661 71.6161C35.1317 71.8505 35 72.1685 35 72.5V73.75H32.5V76.25H35V77.5C35 77.8315 35.1317 78.1495 35.3661 78.3839C35.6005 78.6183 35.9185 78.75 36.25 78.75H43.75C44.0815 78.75 44.3995 78.6183 44.6339 78.3839C44.8683 78.1495 45 77.8315 45 77.5V76.25H47.5V73.75H45V72.5ZM42.5 76.25H37.5V73.75H42.5V76.25ZM45 62.5C45 62.1685 44.8683 61.8505 44.6339 61.6161C44.3995 61.3817 44.0815 61.25 43.75 61.25H36.25C35.9185 61.25 35.6005 61.3817 35.3661 61.6161C35.1317 61.8505 35 62.1685 35 62.5V63.75H32.5V66.25H35V67.5C35 67.8315 35.1317 68.1495 35.3661 68.3839C35.6005 68.6183 35.9185 68.75 36.25 68.75H43.75C44.0815 68.75 44.3995 68.6183 44.6339 68.3839C44.8683 68.1495 45 67.8315 45 67.5V66.25H47.5V63.75H45V62.5ZM42.5 66.25H37.5V63.75H42.5V66.25ZM45 52.5C45 52.1685 44.8683 51.8505 44.6339 51.6161C44.3995 51.3817 44.0815 51.25 43.75 51.25H36.25C35.9185 51.25 35.6005 51.3817 35.3661 51.6161C35.1317 51.8505 35 52.1685 35 52.5V53.75H32.5V56.25H35V57.5C35 57.8315 35.1317 58.1495 35.3661 58.3839C35.6005 58.6183 35.9185 58.75 36.25 58.75H43.75C44.0815 58.75 44.3995 58.6183 44.6339 58.3839C44.8683 58.1495 45 57.8315 45 57.5V56.25H47.5V53.75H45V52.5ZM42.5 56.25H37.5V53.75H42.5V56.25ZM46.25 43.75H44.1L43.7125 42.1975C43.645 41.927 43.489 41.6867 43.2693 41.5151C43.0496 41.3434 42.7788 41.2501 42.5 41.25H37.5C37.2212 41.2501 36.9504 41.3434 36.7307 41.5151C36.511 41.6867 36.355 41.927 36.2875 42.1975L35.9 43.75H33.75V46.25H35.275L35.0375 47.1975C34.9916 47.3817 34.9882 47.574 35.0276 47.7597C35.0671 47.9455 35.1483 48.1198 35.2652 48.2694C35.3821 48.419 35.5315 48.5401 35.7021 48.6234C35.8728 48.7066 36.0601 48.7499 36.25 48.75H43.75C43.9399 48.7499 44.1272 48.7066 44.2979 48.6234C44.4685 48.5401 44.6179 48.419 44.7348 48.2694C44.8517 48.1198 44.9329 47.9455 44.9724 47.7597C45.0118 47.574 45.0084 47.3817 44.9625 47.1975L44.725 46.25H46.25V43.75ZM37.8512 46.25L38.4762 43.75H41.5238L42.1488 46.25H37.8512ZM46.25 33.75H44.1L43.7125 32.1975C43.645 31.927 43.489 31.6867 43.2693 31.5151C43.0496 31.3434 42.7788 31.2501 42.5 31.25H37.5C37.2212 31.2501 36.9504 31.3434 36.7307 31.5151C36.511 31.6867 36.355 31.927 36.2875 32.1975L35.9 33.75H33.75V36.25H35.275L35.0375 37.1975C34.9916 37.3817 34.9882 37.574 35.0276 37.7597C35.0671 37.9455 35.1483 38.1198 35.2652 38.2694C35.3821 38.419 35.5315 38.5401 35.7021 38.6234C35.8728 38.7066 36.0601 38.7499 36.25 38.75H43.75C43.9399 38.7499 44.1272 38.7066 44.2979 38.6234C44.4685 38.5401 44.6179 38.419 44.7348 38.2694C44.8517 38.1198 44.9329 37.9455 44.9724 37.7597C45.0118 37.574 45.0084 37.3817 44.9625 37.1975L44.725 36.25H46.25V33.75ZM37.8512 36.25L38.4762 33.75H41.5238L42.1488 36.25H37.8512ZM46.25 23.75H44.1L43.7125 22.1975C43.645 21.927 43.489 21.6867 43.2693 21.5151C43.0496 21.3434 42.7788 21.2501 42.5 21.25H37.5C37.2212 21.2501 36.9504 21.3434 36.7307 21.5151C36.511 21.6867 36.355 21.927 36.2875 22.1975L35.9 23.75H33.75V26.25H35.275L35.0375 27.1975C34.9916 27.3817 34.9882 27.574 35.0276 27.7597C35.0671 27.9455 35.1483 28.1198 35.2652 28.2694C35.3821 28.419 35.5315 28.5401 35.7021 28.6234C35.8728 28.7066 36.0601 28.7499 36.25 28.75H43.75C43.9399 28.7499 44.1272 28.7066 44.2979 28.6234C44.4685 28.5401 44.6179 28.419 44.7348 28.2694C44.8517 28.1198 44.9329 27.9455 44.9724 27.7597C45.0118 27.574 45.0084 27.3817 44.9625 27.1975L44.725 26.25H46.25V23.75ZM37.8512 26.25L38.4762 23.75H41.5238L42.1488 26.25H37.8512ZM33.75 13.75V16.25H35.275L35.0375 17.1975C34.9916 17.3817 34.9882 17.574 35.0276 17.7597C35.0671 17.9455 35.1483 18.1198 35.2652 18.2694C35.3821 18.419 35.5315 18.5401 35.7021 18.6234C35.8728 18.7066 36.0601 18.7499 36.25 18.75H43.75C43.9399 18.7499 44.1272 18.7066 44.2979 18.6234C44.4685 18.5401 44.6179 18.419 44.7348 18.2694C44.8517 18.1198 44.9329 17.9455 44.9724 17.7597C45.0118 17.574 45.0084 17.3817 44.9625 17.1975L44.725 16.25H46.25V13.75H44.1L43.7125 12.1975C43.645 11.927 43.489 11.6867 43.2693 11.5151C43.0496 11.3434 42.7788 11.2501 42.5 11.25H37.5C37.2212 11.2501 36.9504 11.3434 36.7307 11.5151C36.511 11.6867 36.355 11.927 36.2875 12.1975L35.9 13.75H33.75ZM38.4762 13.75H41.5238L42.1488 16.25H37.8512L38.4762 13.75ZM46.6162 30.3662L51.6162 25.3662L53.3838 27.1338L48.3838 32.1338L46.6162 30.3662ZM48.75 33.75H55V36.25H48.75V33.75ZM46.6162 39.635L48.3838 37.8662L53.3838 42.8662L51.6162 44.635L46.6162 39.635ZM26.6162 27.1338L28.3838 25.3662L33.3838 30.3662L31.6162 32.1338L26.6162 27.1338ZM25 33.75H31.25V36.25H25V33.75ZM26.6162 42.8662L31.6162 37.8662L33.385 39.6338L28.385 44.6338L26.6162 42.8662Z" fill="#2BC7E8"/>
</g>
</g>
</svg>
