<svg width="80" height="80" viewBox="0 0 80 80" fill="none" xmlns="http://www.w3.org/2000/svg">
<g id="Frame" clip-path="url(#clip0_40_672)">
<g id="Group">
<path id="Vector" d="M29.4411 1.5625V8.125L10.6463 16.303C4.42786 19.0087 0.400514 22.855 1.86301 35L5.45692 64.8436L4.20692 78.4373M50.5588 1.5625V8.125L69.3536 16.303C75.5721 19.0087 79.5994 22.855 78.1369 35L74.543 64.8436L75.793 78.4373" stroke="#2BC7E8" stroke-width="2" stroke-miterlimit="22.9256" stroke-linecap="round" stroke-linejoin="round"/>
<path id="Vector_2" d="M14.1406 32.5779C14.1406 47.1092 18.5156 56.6033 18.5156 64.6111C18.5156 70.6658 16.9497 74.3683 15.8594 78.4373M65.8592 32.5779C65.8592 47.1092 61.4842 56.6033 61.4842 64.6111C61.4842 70.6658 63.0502 74.3683 64.1405 78.4373M41.067 14.6106C49.6673 27.6092 46.37 37.4522 42.9806 47.5698C40.1953 55.8845 37.3366 64.4183 43.108 75.1164M36.9266 78.4376C29.7195 65.0784 33.065 55.0918 36.3245 45.3617C39.1687 36.8712 41.9358 28.6112 35.2206 18.4618M53.3616 44.3353L57.2398 45.3745M52.7616 37.9393L56.6398 36.9003M49.6441 49.5743L52.4831 52.4134M28.0953 38.9515L24.217 37.9125M28.6953 45.3475L24.817 46.3867M31.8128 33.7126L28.9737 30.8736" stroke="#2BC7E8" stroke-width="2" stroke-miterlimit="22.9256" stroke-linecap="round" stroke-linejoin="round"/>
</g>
</g>
<defs>
<clipPath id="clip0_40_672">
<rect width="80" height="80" fill="white"/>
</clipPath>
</defs>
</svg>
