<svg width="80" height="80" viewBox="0 0 80 80" fill="none" xmlns="http://www.w3.org/2000/svg">
<g id="Frame" clip-path="url(#clip0_40_567)">
<g id="Group">
<g id="Group_2">
<path id="Vector" d="M74.5978 22.244C72.2751 15.284 63.4485 12.4467 57.0045 10.3773C55.0667 9.86063 53.1895 9.13924 51.4045 8.22533C48.2538 6.12267 49.2511 1.83333 49.2938 1.65733C49.343 1.46073 49.3468 1.25549 49.3048 1.05721C49.2629 0.858933 49.1763 0.67283 49.0516 0.513049C48.9269 0.353269 48.7674 0.224016 48.5853 0.135115C48.4031 0.0462145 48.2031 5.32795e-06 48.0005 0L32.0005 0C31.7978 5.32795e-06 31.5978 0.0462145 31.4156 0.135115C31.2335 0.224016 31.074 0.353269 30.9493 0.513049C30.8247 0.67283 30.738 0.858933 30.6961 1.05721C30.6541 1.25549 30.6579 1.46073 30.7071 1.65733C30.7178 1.70133 31.7738 6.10267 28.5938 8.224C26.8087 9.13791 24.9315 9.8593 22.9938 10.376C16.5498 12.4467 7.72312 15.284 5.40045 22.2427C2.60712 30.608 5.11512 60.0213 17.4005 74.0013C17.2326 75.5993 17.2143 77.2094 17.3458 78.8107C17.3812 79.1367 17.5355 79.4383 17.7793 79.6577C18.0231 79.8771 18.3392 79.999 18.6671 80H61.3338C61.6622 80 61.9791 79.8787 62.2237 79.6595C62.4683 79.4403 62.6233 79.1385 62.6591 78.812C62.7906 77.2107 62.7723 75.6006 62.6045 74.0027C74.8831 60.0227 77.3911 30.6093 74.5978 22.244ZM62.0511 70.46C61.8404 69.4862 61.5778 68.5244 61.2645 67.5787C58.7025 60.5568 58.6935 52.8572 61.2391 45.8293C62.9624 41.4269 64.323 36.8909 65.3071 32.2667C65.3482 32.0925 65.3539 31.9118 65.3237 31.7354C65.2935 31.559 65.2281 31.3905 65.1314 31.2399C65.0347 31.0894 64.9087 30.9598 64.7609 30.8589C64.613 30.7581 64.4464 30.688 64.2709 30.6529C64.0955 30.6178 63.9147 30.6184 63.7395 30.6546C63.5642 30.6909 63.398 30.762 63.2509 30.8638C63.1037 30.9657 62.9785 31.0961 62.8828 31.2473C62.7871 31.3985 62.7228 31.5674 62.6938 31.744C61.7343 36.208 60.4194 40.5882 58.7618 44.8427C55.9814 52.4566 55.9724 60.8068 58.7365 68.4267C59.6711 71.3031 60.1216 74.3147 60.0698 77.3387H19.9365C19.8846 74.3147 20.3352 71.3031 21.2698 68.4267C24.0338 60.8068 24.0249 52.4566 21.2444 44.8427C19.5845 40.5849 18.2678 36.2011 17.3071 31.7333C17.2277 31.3969 17.0207 31.1045 16.7298 30.9177C16.439 30.7309 16.0869 30.6644 15.748 30.7322C15.409 30.8 15.1096 30.9968 14.9129 31.2811C14.7163 31.5654 14.6377 31.9149 14.6938 32.256C15.6777 36.882 17.0382 41.4198 18.7618 45.824C21.3074 52.8519 21.2984 60.5514 18.7365 67.5733C18.4231 68.52 18.1604 69.48 17.9498 70.4547C7.20845 56.1707 5.81645 29.4373 7.93112 23.084C9.82712 17.4053 17.9111 14.8067 23.8125 12.9093C25.9923 12.3377 28.0961 11.5079 30.0791 10.4373C31.2963 9.5689 32.2583 8.38984 32.8648 7.02308C33.4712 5.65633 33.7 4.15191 33.5271 2.66667H46.4738C46.3005 4.15326 46.5296 5.6591 47.137 7.02693C47.7445 8.39477 48.7081 9.57441 49.9271 10.4427C51.9102 11.5132 54.0139 12.3431 56.1938 12.9147C62.0951 14.812 70.1791 17.4107 72.0751 23.0893C74.1911 29.4427 72.7924 56.176 62.0511 70.46Z" fill="#2BC7E8"/>
<path id="Vector_2" d="M26.6678 38.6667C26.7771 38.6667 26.8865 38.6533 26.9918 38.6267C32.3718 37.2813 34.6678 34.5027 34.6678 29.3333V20C34.6678 19.6464 34.5273 19.3072 34.2773 19.0572C34.0272 18.8071 33.6881 18.6667 33.3345 18.6667C32.9808 18.6667 32.6417 18.8071 32.3917 19.0572C32.1416 19.3072 32.0011 19.6464 32.0011 20V29.3333C32.0011 32.6853 31.0758 34.8573 26.3451 36.04C26.0297 36.1191 25.754 36.3107 25.57 36.5788C25.3859 36.847 25.3062 37.1731 25.3459 37.4959C25.3855 37.8187 25.5418 38.1159 25.7853 38.3315C26.0287 38.5471 26.3426 38.6663 26.6678 38.6667ZM53.0118 38.6267C53.3509 38.7011 53.7057 38.6404 54.0007 38.4573C54.2957 38.2743 54.5077 37.9834 54.5916 37.6465C54.6754 37.3096 54.6246 36.9533 54.4499 36.6533C54.2751 36.3533 53.9902 36.1332 53.6558 36.04C48.9265 34.8573 48.0011 32.6853 48.0011 29.3333V20C48.0011 19.6464 47.8607 19.3072 47.6106 19.0572C47.3606 18.8071 47.0214 18.6667 46.6678 18.6667C46.3142 18.6667 45.975 18.8071 45.725 19.0572C45.4749 19.3072 45.3345 19.6464 45.3345 20V29.3333C45.3345 34.5027 47.6305 37.2813 53.0118 38.6267ZM44.0011 53.3333C43.9977 52.509 43.7397 51.7058 43.2624 51.0337C42.785 50.3616 42.1117 49.8534 41.3345 49.5787V28C41.3345 27.6464 41.194 27.3072 40.9439 27.0572C40.6939 26.8071 40.3548 26.6667 40.0011 26.6667C39.6475 26.6667 39.3084 26.8071 39.0583 27.0572C38.8083 27.3072 38.6678 27.6464 38.6678 28V49.5787C37.9782 49.8243 37.3695 50.2548 36.908 50.823C36.4465 51.3912 36.1501 52.0753 36.0511 52.8006C35.9522 53.5259 36.0545 54.2644 36.3469 54.9355C36.6393 55.6066 37.1105 56.1844 37.709 56.6058C38.3076 57.0272 39.0105 57.2759 39.7408 57.3249C40.4712 57.3738 41.201 57.2211 41.8504 56.8833C42.4998 56.5455 43.0439 56.0358 43.4232 55.4097C43.8025 54.7836 44.0024 54.0653 44.0011 53.3333ZM40.0011 54.6667C39.6475 54.6667 39.3084 54.5262 39.0583 54.2761C38.8083 54.0261 38.6678 53.687 38.6678 53.3333C38.6678 52.9797 38.8083 52.6406 39.0583 52.3905C39.3084 52.1405 39.6475 52 40.0011 52C40.3548 52 40.6939 52.1405 40.9439 52.3905C41.194 52.6406 41.3345 52.9797 41.3345 53.3333C41.3345 53.687 41.194 54.0261 40.9439 54.2761C40.6939 54.5262 40.3548 54.6667 40.0011 54.6667Z" fill="#2BC7E8"/>
<path id="Vector_3" d="M33.402 46.7333C32.5352 47.6 31.8476 48.629 31.3785 49.7614C30.9094 50.8938 30.668 52.1076 30.668 53.3333C30.668 54.5591 30.9094 55.7728 31.3785 56.9053C31.8476 58.0377 32.5352 59.0666 33.402 59.9333C33.6534 60.1762 33.9902 60.3106 34.3398 60.3076C34.6894 60.3045 35.0239 60.1643 35.2711 59.9171C35.5183 59.6699 35.6585 59.3355 35.6615 58.9859C35.6646 58.6363 35.5302 58.2995 35.2873 58.048C34.6681 57.4289 34.1768 56.6939 33.8417 55.885C33.5066 55.076 33.3341 54.209 33.3341 53.3333C33.3341 52.4577 33.5066 51.5907 33.8417 50.7817C34.1768 49.9728 34.6681 49.2378 35.2873 48.6187C35.5302 48.3672 35.6646 48.0304 35.6615 47.6808C35.6585 47.3312 35.5183 46.9968 35.2711 46.7496C35.0239 46.5024 34.6894 46.3621 34.3398 46.3591C33.9902 46.3561 33.6534 46.4905 33.402 46.7333ZM44.714 59.9333C44.964 60.1833 45.3031 60.3237 45.6566 60.3237C46.0102 60.3237 46.3493 60.1833 46.5993 59.9333C47.4661 59.0666 48.1537 58.0377 48.6228 56.9053C49.0919 55.7728 49.3333 54.5591 49.3333 53.3333C49.3333 52.1076 49.0919 50.8938 48.6228 49.7614C48.1537 48.629 47.4661 47.6 46.5993 46.7333C46.3478 46.4905 46.011 46.3561 45.6614 46.3591C45.3118 46.3621 44.9774 46.5024 44.7302 46.7496C44.483 46.9968 44.3428 47.3312 44.3397 47.6808C44.3367 48.0304 44.4711 48.3672 44.714 48.6187C45.3332 49.2378 45.8244 49.9728 46.1596 50.7817C46.4947 51.5907 46.6672 52.4577 46.6672 53.3333C46.6672 54.209 46.4947 55.076 46.1596 55.885C45.8244 56.6939 45.3332 57.4289 44.714 58.048C44.464 58.298 44.3236 58.6371 44.3236 58.9907C44.3236 59.3442 44.464 59.6833 44.714 59.9333Z" fill="#2BC7E8"/>
<path id="Vector_4" d="M30.5715 64.0947C30.8352 64.0946 31.0929 64.0164 31.3121 63.8699C31.5313 63.7234 31.7022 63.5151 31.8031 63.2715C31.904 63.0279 31.9304 62.7599 31.879 62.5013C31.8275 62.2427 31.7006 62.0051 31.5142 61.8187C29.267 59.5665 28.0049 56.5149 28.0049 53.3333C28.0049 50.1518 29.267 47.1002 31.5142 44.848C31.6415 44.725 31.7431 44.5779 31.813 44.4152C31.8829 44.2525 31.9196 44.0776 31.9212 43.9005C31.9227 43.7235 31.889 43.5479 31.8219 43.3841C31.7549 43.2202 31.6559 43.0713 31.5307 42.9461C31.4055 42.821 31.2566 42.7219 31.0928 42.6549C30.9289 42.5879 30.7533 42.5541 30.5763 42.5557C30.3993 42.5572 30.2243 42.594 30.0616 42.6639C29.899 42.7337 29.7518 42.8353 29.6288 42.9627C23.9102 48.6933 23.9102 57.9733 29.6288 63.704C29.7523 63.8282 29.8992 63.9267 30.061 63.9938C30.2228 64.0609 30.3964 64.0951 30.5715 64.0947ZM48.4848 42.9627C48.2349 43.2127 48.0945 43.5518 48.0945 43.9053C48.0945 44.2589 48.2349 44.598 48.4848 44.848C50.732 47.1002 51.9941 50.1518 51.9941 53.3333C51.9941 56.5149 50.732 59.5665 48.4848 61.8187C48.3575 61.9417 48.2559 62.0888 48.186 62.2515C48.1162 62.4141 48.0794 62.5891 48.0778 62.7661C48.0763 62.9432 48.11 63.1187 48.1771 63.2826C48.2441 63.4465 48.3431 63.5953 48.4683 63.7205C48.5935 63.8457 48.7424 63.9447 48.9062 64.0118C49.0701 64.0788 49.2457 64.1125 49.4227 64.111C49.5998 64.1095 49.7747 64.0727 49.9374 64.0028C50.1001 63.9329 50.2472 63.8314 50.3702 63.704C56.0888 57.9733 56.0888 48.6933 50.3702 42.9627C50.1201 42.7127 49.7811 42.5723 49.4275 42.5723C49.074 42.5723 48.7349 42.7127 48.4848 42.9627ZM37.0102 64.04L31.6768 65.3733C31.4695 65.4251 31.2776 65.5259 31.1173 65.6673C30.9571 65.8087 30.8332 65.9866 30.756 66.1859C30.6789 66.3853 30.6508 66.6002 30.6742 66.8127C30.6975 67.0251 30.7716 67.2288 30.8902 67.4067L32.5075 69.832L29.0102 70.7067C28.6725 70.7973 28.3838 71.0169 28.2065 71.3183C28.0292 71.6197 27.9774 71.9786 28.0622 72.3178C28.147 72.6571 28.3616 72.9494 28.6599 73.1319C28.9582 73.3143 29.3162 73.3723 29.6568 73.2933L34.9902 71.96C35.1976 71.9083 35.3895 71.8074 35.5497 71.666C35.71 71.5246 35.8339 71.3467 35.911 71.1474C35.9881 70.9481 36.0162 70.7331 35.9928 70.5207C35.9695 70.3082 35.8954 70.1045 35.7768 69.9267L34.1595 67.5013L37.6568 66.6267C37.8302 66.5877 37.994 66.5144 38.1387 66.4112C38.2833 66.308 38.4058 66.1769 38.4991 66.0256C38.5923 65.8743 38.6544 65.706 38.6817 65.5304C38.7089 65.3548 38.7008 65.1755 38.6578 65.0031C38.6148 64.8307 38.5378 64.6686 38.4312 64.5264C38.3247 64.3842 38.1908 64.2647 38.0374 64.175C37.884 64.0853 37.7143 64.0271 37.5381 64.0039C37.3619 63.9807 37.1829 63.993 37.0115 64.04H37.0102ZM50.9888 70.7067L47.4915 69.832L49.1088 67.4067C49.2274 67.2288 49.3015 67.0251 49.3248 66.8127C49.3482 66.6002 49.3201 66.3853 49.243 66.1859C49.1659 65.9866 49.042 65.8087 48.8817 65.6673C48.7215 65.5259 48.5296 65.4251 48.3222 65.3733L42.9888 64.04C42.8175 63.993 42.6384 63.9807 42.4623 64.0039C42.2861 64.0271 42.1163 64.0853 41.963 64.175C41.8096 64.2647 41.6757 64.3842 41.5691 64.5264C41.4626 64.6686 41.3856 64.8307 41.3425 65.0031C41.2995 65.1755 41.2914 65.3548 41.3187 65.5304C41.3459 65.706 41.408 65.8743 41.5013 66.0256C41.5945 66.1769 41.7171 66.308 41.8617 66.4112C42.0063 66.5144 42.1702 66.5877 42.3435 66.6267L45.8408 67.5013L44.2235 69.9267C44.1049 70.1045 44.0309 70.3082 44.0075 70.5207C43.9842 70.7331 44.0123 70.9481 44.0894 71.1474C44.1665 71.3467 44.2904 71.5246 44.4506 71.666C44.6109 71.8074 44.8028 71.9083 45.0102 71.96L50.3435 73.2933C50.6826 73.3678 51.0374 73.307 51.3324 73.124C51.6274 72.9409 51.8394 72.65 51.9233 72.3131C52.0071 71.9762 51.9563 71.6199 51.7816 71.3199C51.6068 71.0199 51.3233 70.7999 50.9888 70.7067Z" fill="#2BC7E8"/>
</g>
</g>
</g>
<defs>
<clipPath id="clip0_40_567">
<rect width="80" height="80" fill="white"/>
</clipPath>
</defs>
</svg>
