<svg width="80" height="80" viewBox="0 0 80 80" fill="none" xmlns="http://www.w3.org/2000/svg">
<g id="Frame" clip-path="url(#clip0_40_577)">
<g id="Group">
<path id="Vector" d="M71.2193 46.0738C71.2118 46.015 71.223 45.9563 71.2055 45.8963L66.243 28.5438C66.1368 12.7825 53.2855 -0.00999451 37.498 -0.00999451C21.6443 -0.00999451 8.74805 12.8863 8.74805 28.74V39.9863C8.74805 40.0563 8.7768 40.1163 8.78805 40.1838C8.82315 47.2606 11.4812 54.0731 16.248 59.3038V78.7588C16.248 79.0903 16.3797 79.4082 16.6142 79.6426C16.8486 79.8771 17.1665 80.0088 17.498 80.0088C17.8296 80.0088 18.1475 79.8771 18.3819 79.6426C18.6164 79.4082 18.748 79.0903 18.748 78.7588V61.7313C22.3289 64.8332 26.6235 66.9983 31.2468 68.0325V78.74C31.2468 79.0715 31.3785 79.3895 31.6129 79.6239C31.8473 79.8583 32.1653 79.99 32.4968 79.99C32.8283 79.99 33.1463 79.8583 33.3807 79.6239C33.6151 79.3895 33.7468 79.0715 33.7468 78.74V68.4725C34.9355 68.6275 36.1443 68.7163 37.373 68.7213C37.4155 68.7263 37.453 68.7475 37.498 68.7475H46.2443V78.74C46.2443 79.0715 46.376 79.3895 46.6104 79.6239C46.8448 79.8583 47.1628 79.99 47.4943 79.99C47.8258 79.99 48.1438 79.8583 48.3782 79.6239C48.6126 79.3895 48.7443 79.0715 48.7443 78.74V68.7475H56.2468C58.236 68.7455 60.1431 67.9544 61.5497 66.5479C62.9562 65.1413 63.7473 63.2342 63.7493 61.245V52.4988L63.7505 52.4925L63.7493 52.4863V47.4913H70.0055C70.1209 47.4902 70.2356 47.4742 70.3468 47.4438C70.373 47.4363 70.3905 47.4175 70.4155 47.4088C70.498 47.38 70.568 47.335 70.6418 47.2913C70.7093 47.2513 70.7743 47.2138 70.8318 47.1625C70.8918 47.1088 70.9368 47.0438 70.9855 46.98C71.033 46.9163 71.0805 46.8563 71.1155 46.7863C71.1493 46.7163 71.1655 46.6438 71.1868 46.5675C71.2132 46.4855 71.2304 46.4008 71.238 46.315C71.2393 46.2888 71.253 46.2675 71.253 46.2413C71.253 46.1813 71.2268 46.1313 71.2193 46.0738ZM11.283 40.0113C11.283 39.9488 11.2568 39.895 11.248 39.835V28.74C11.248 14.2663 23.0243 2.49001 37.498 2.49001C51.9718 2.49001 63.748 14.2663 63.748 28.74C63.748 28.7988 63.7743 28.85 63.7818 28.9075C63.7893 28.9675 63.778 29.025 63.7955 29.085L68.3455 44.9925H62.4993C62.1678 44.9925 61.8498 45.1242 61.6154 45.3586C61.381 45.593 61.2493 45.911 61.2493 46.2425V51.2438H39.5193L39.3618 50.93L40.4493 49.8425C40.6 49.6919 40.7098 49.5053 40.7681 49.3004C40.8265 49.0954 40.8314 48.879 40.7826 48.6716C40.7338 48.4642 40.6327 48.2727 40.4891 48.1154C40.3454 47.958 40.1639 47.84 39.9618 47.7725L36.248 46.5338V44.99C36.2483 44.7767 36.1939 44.567 36.0901 44.3806C35.9864 44.1943 35.8367 44.0376 35.6553 43.9255C35.4738 43.8134 35.2668 43.7495 35.0537 43.74C34.8407 43.7305 34.6287 43.7757 34.438 43.8713L30.9343 45.625L29.8443 44.535C29.6932 44.385 29.5064 44.2759 29.3014 44.2181C29.0965 44.1603 28.8802 44.1556 28.673 44.2045C28.4658 44.2534 28.2744 44.3543 28.117 44.4976C27.9595 44.6409 27.8411 44.822 27.773 45.0238L26.5368 48.7425H24.9955C24.7821 48.7422 24.5721 48.7965 24.3857 48.9004C24.1992 49.0042 24.0424 49.154 23.9302 49.3356C23.8181 49.5172 23.7543 49.7245 23.7449 49.9377C23.7356 50.151 23.781 50.363 23.8768 50.5538L25.6318 54.0563L24.5405 55.1475C24.2343 55.4538 24.108 55.8975 24.2068 56.32C24.3068 56.7413 24.618 57.0813 25.0293 57.2188L28.748 58.455V59.9913C28.7479 60.2043 28.8023 60.4139 28.906 60.6001C29.0097 60.7863 29.1593 60.9428 29.3405 61.0549C29.5217 61.167 29.7286 61.2309 29.9415 61.2406C30.1544 61.2502 30.3662 61.2053 30.5568 61.11L31.2455 60.7663V65.4425C19.8068 62.6263 11.283 52.3075 11.283 40.0113ZM31.2493 57.9663V57.5513C31.2495 57.2886 31.1668 57.0326 31.0131 56.8196C30.8594 56.6066 30.6424 56.4476 30.393 56.365L27.7405 55.4838L28.0368 55.1863C28.418 54.805 28.5118 54.2238 28.2718 53.7425L27.0193 51.2438H27.438C27.7007 51.2439 27.9567 51.1613 28.1697 51.0075C28.3827 50.8538 28.5417 50.6368 28.6243 50.3875L29.5068 47.7338L29.803 48.03C29.9881 48.2161 30.2272 48.339 30.4862 48.3812C30.7453 48.4234 31.011 48.3827 31.2455 48.265L33.7468 47.0125V47.435C33.7468 47.9738 34.0905 48.4513 34.6018 48.62L37.2518 49.5038L36.9568 49.7988C36.7712 49.9841 36.6487 50.2232 36.6065 50.4821C36.5643 50.741 36.6047 51.0066 36.7218 51.2413L37.5893 52.9763C37.5902 52.9795 37.5919 52.9826 37.5943 52.985L37.9718 53.74H37.553C37.2904 53.7398 37.0344 53.8225 36.8214 53.9762C36.6084 54.1299 36.4494 54.3469 36.3668 54.5963L35.4855 57.2463L35.1905 56.9513C35.0052 56.7657 34.7661 56.6431 34.5072 56.601C34.2483 56.5588 33.9827 56.5991 33.748 56.7163L31.2493 57.9663ZM56.2468 66.2475H37.6068C37.5693 66.2438 37.5368 66.225 37.498 66.225C36.2218 66.225 34.9743 66.1013 33.7468 65.925V59.5125L34.0605 59.355L35.1493 60.4438C35.2999 60.5948 35.4867 60.7047 35.6919 60.7632C35.897 60.8216 36.1137 60.8265 36.3214 60.7776C36.529 60.7286 36.7206 60.6273 36.878 60.4833C37.0354 60.3393 37.1533 60.1574 37.2205 59.955L38.4555 56.24H40.0205C40.2539 56.2403 40.4826 56.1752 40.6809 56.0522C40.8791 55.9292 41.039 55.7532 41.1424 55.544C41.2458 55.3348 41.2886 55.1009 41.266 54.8687C41.2433 54.6365 41.1562 54.4152 41.0143 54.23L40.7705 53.7425H61.2505V61.245C61.2486 62.5714 60.7207 63.8428 59.7827 64.7806C58.8447 65.7183 57.5732 66.2458 56.2468 66.2475Z" fill="#2BC7E8"/>
<path id="Vector_2" d="M32.5121 51.25H32.4984C31.8084 51.25 31.2559 51.8088 31.2559 52.5C31.2559 53.1912 31.8209 53.75 32.5121 53.75C32.8436 53.75 33.1616 53.6183 33.396 53.3839C33.6304 53.1495 33.7621 52.8315 33.7621 52.5C33.7621 52.1685 33.6304 51.8505 33.396 51.6161C33.1616 51.3817 32.8436 51.25 32.5121 51.25Z" fill="#2BC7E8"/>
</g>
</g>
<defs>
<clipPath id="clip0_40_577">
<rect width="80" height="80" fill="white"/>
</clipPath>
</defs>
</svg>
