<svg width="81" height="80" viewBox="0 0 81 80" fill="none" xmlns="http://www.w3.org/2000/svg">
<g id="Frame">
<g id="Group">
<path id="Vector" d="M40.501 18.2812C37.4502 27.942 37.4502 38.308 40.501 47.9688C43.5518 57.6295 43.5518 67.9955 40.501 77.6562" stroke="#2BC7E8" stroke-width="2" stroke-miterlimit="10" stroke-linecap="round" stroke-linejoin="round" stroke-dasharray="30 60"/>
<path id="Vector_2" d="M62.43 77.6562H73.3125V23.8412C73.3125 17.8828 69.1067 12.7525 63.2639 11.5841L49.875 8.90625L48.3125 2.34375H32.6875L31.125 8.90625L17.7361 11.5841C11.8933 12.7527 7.6875 17.8828 7.6875 23.8412V77.6562H18.57" stroke="#2BC7E8" stroke-width="2" stroke-miterlimit="10" stroke-linecap="round" stroke-linejoin="round"/>
<path id="Vector_3" d="M17.8438 30.7812V31.7419C17.8438 37.3003 18.9044 42.8078 20.9688 47.9686V52.2714C20.9688 57.7156 20.3011 63.1394 18.9806 68.4211C18.2256 71.4414 17.8438 74.543 17.8438 77.6562H63.1562C63.1562 74.543 62.7744 71.4416 62.0194 68.4212C60.6989 63.1395 60.0312 57.7158 60.0312 52.2716V47.9688C62.0956 42.8078 63.1563 37.3004 63.1562 31.7419V30.7812" stroke="#2BC7E8" stroke-width="2" stroke-miterlimit="10" stroke-linecap="round" stroke-linejoin="round"/>
<path id="Vector_4" d="M31.125 24.5312C31.125 26.5127 30.7347 28.4748 29.9765 30.3055C29.2182 32.1361 28.1068 33.7995 26.7056 35.2006L26.4375 35.4688M49.875 24.5312C49.875 26.5127 50.2653 28.4748 51.0235 30.3055C51.7818 32.1361 52.8932 33.7995 54.2944 35.2006L54.5625 35.4688" stroke="#2BC7E8" stroke-width="2" stroke-miterlimit="10" stroke-linecap="round" stroke-linejoin="round"/>
</g>
</g>
</svg>
