<svg width="81" height="80" viewBox="0 0 81 80" fill="none" xmlns="http://www.w3.org/2000/svg">
<g id="Frame">
<g id="Group">
<path id="Vector" d="M70.7694 32.3825L63.0006 25.1688V17.5C62.9977 15.1803 62.0748 12.9564 60.4345 11.3161C58.7942 9.67581 56.5704 8.75298 54.2506 8.75H54.1619C53.8586 6.66853 52.8167 4.76559 51.2266 3.38864C49.6364 2.0117 47.6041 1.25262 45.5006 1.25H31.7506C28.1052 1.2543 24.6104 2.70434 22.0327 5.28203C19.455 7.85973 18.0049 11.3546 18.0006 15V25.1688L10.2319 32.3825C9.54081 33.0254 8.98691 33.8014 8.60347 34.6639C8.22002 35.5264 8.01497 36.4575 8.00063 37.4012L1.76562 78.5638L4.23563 78.9388L10.4856 37.6887C10.4958 37.6264 10.5008 37.5632 10.5006 37.5C10.5015 36.8833 10.6291 36.2734 10.8755 35.7081C11.1219 35.1428 11.4819 34.6341 11.9331 34.2137L26.8256 20.3862C27.0313 20.1949 27.2883 20.0678 27.5652 20.0205C27.842 19.9732 28.1267 20.0078 28.3842 20.1199C28.6417 20.2321 28.8608 20.417 29.0147 20.6519C29.1687 20.8869 29.2506 21.1616 29.2506 21.4425C29.2505 21.8379 29.1131 22.221 28.8619 22.5262L18.2831 35.4588C18.1005 35.682 18.0007 35.9616 18.0006 36.25V47.5H20.5006V42.0225L23.0394 40.75C23.1302 42.983 23.6518 45.1775 24.5756 47.2125C22.3258 50.1945 19.2295 52.4291 15.6906 53.625L15.1056 53.82C14.8462 53.9063 14.6222 54.0753 14.468 54.3011C14.3138 54.5268 14.2379 54.797 14.2519 55.07L15.5019 78.82L18.0019 78.6875L17.3444 66.2063L23.4694 64.2925C26.5006 69.9887 33.1856 73.75 40.5006 73.75C47.8156 73.75 54.5006 69.9887 57.5369 64.2887L63.6619 66.2025L63.0006 78.6837L65.5006 78.8163L66.7506 55.0663C66.7646 54.7932 66.6887 54.5231 66.5345 54.2973C66.3803 54.0716 66.1563 53.9026 65.8969 53.8163L65.3119 53.6213C61.774 52.428 58.6777 50.1964 56.4269 47.2175C57.3501 45.1823 57.8717 42.988 57.9631 40.755L60.5006 42.0225V47.5H63.0006V36.25C63.0006 35.9616 62.9008 35.682 62.7181 35.4588L52.1381 22.5262C51.8877 22.2206 51.7508 21.8377 51.7506 21.4425C51.7506 21.1618 51.8325 20.8871 51.9862 20.6522C52.14 20.4174 52.359 20.2325 52.6163 20.1202C52.8736 20.0079 53.1581 19.9732 53.4348 20.0202C53.7116 20.0673 53.9686 20.194 54.1744 20.385L69.0681 34.2137C69.5193 34.6341 69.8793 35.1428 70.1257 35.7081C70.3722 36.2734 70.4998 36.8833 70.5006 37.5C70.5006 37.5624 70.5056 37.6247 70.5156 37.6862L76.7656 78.9362L79.2356 78.5612L73.0006 37.4012C72.9863 36.4575 72.7812 35.5264 72.3978 34.6639C72.0144 33.8014 71.4604 33.0254 70.7694 32.3825ZM51.8531 26.1325L55.5006 30.585V40C55.5006 43.9782 53.9203 47.7936 51.1072 50.6066C48.2942 53.4197 44.4789 55 40.5006 55C36.5224 55 32.7071 53.4197 29.894 50.6066C27.081 47.7936 25.5006 43.9782 25.5006 40V30.585L25.9794 30H35.1506C37.7157 29.9915 40.2243 29.246 42.3777 27.8523C44.5311 26.4586 46.2386 24.4754 47.2969 22.1388L51.8531 26.1325ZM47.6256 61.1925L50.3756 62.0525C49.095 63.38 47.56 64.4358 45.8622 65.1569C44.1645 65.8781 42.3389 66.2497 40.4944 66.2497C38.6499 66.2497 36.8242 65.8781 35.1265 65.1569C33.4288 64.4358 31.8938 63.38 30.6131 62.0525L33.3631 61.1925C33.6192 61.1149 33.8436 60.9572 34.0034 60.7425C34.1632 60.5279 34.2498 60.2676 34.2506 60V56.3263C38.2704 57.8912 42.7309 57.8912 46.7506 56.3263V60C46.7506 60.266 46.8355 60.5251 46.9928 60.7396C47.1502 60.954 47.3719 61.1127 47.6256 61.1925ZM20.5006 36.6963L23.0006 33.6413V37.9775L20.5006 39.2275V36.6963ZM16.7981 55.8825C20.3305 54.6297 23.4658 52.4591 25.8819 49.5938C27.3835 51.869 29.3924 53.765 31.7506 55.1325V59.0812L17.2056 63.625L16.7981 55.8825ZM40.5006 71.25C34.2794 71.25 28.6069 68.1937 25.9044 63.5262L28.0219 62.865C29.5392 64.7055 31.4448 66.1876 33.6022 67.205C35.7596 68.2225 38.1153 68.7501 40.5006 68.7501C42.8859 68.7501 45.2417 68.2225 47.3991 67.205C49.5565 66.1876 51.4621 64.7055 52.9794 62.865L55.0969 63.5262C52.3944 68.1937 46.7219 71.25 40.5006 71.25ZM64.2031 55.8825L63.7956 63.6325L49.2506 59.0812V55.1325C51.6082 53.7655 53.6166 51.8705 55.1181 49.5962C57.5346 52.4612 60.6703 54.6309 64.2031 55.8825ZM60.5006 39.2275L58.0006 37.9775V33.6413L60.5006 36.6963V39.2275ZM53.1931 17.5C52.2933 17.5016 51.4211 17.8106 50.7209 18.3757C50.0207 18.9409 49.5346 19.7283 49.3431 20.6075L47.5731 19.0588C47.4145 18.9201 47.2234 18.8237 47.0176 18.7787C46.8118 18.7336 46.598 18.7413 46.3959 18.8011C46.1939 18.8608 46.0102 18.9707 45.862 19.1204C45.7138 19.2701 45.6058 19.4549 45.5481 19.6575C44.8959 21.9131 43.5302 23.8966 41.6556 25.3105C39.781 26.7244 37.4986 27.4927 35.1506 27.5H28.0256L30.7981 24.11C31.4138 23.3573 31.7503 22.4149 31.7506 21.4425C31.7505 20.6752 31.5266 19.9247 31.1062 19.2828C30.6858 18.641 30.0872 18.1357 29.3839 17.8291C28.6806 17.5224 27.9031 17.4276 27.1467 17.5563C26.3903 17.6851 25.6879 18.0317 25.1256 18.5538L20.5006 22.8475V15C20.5039 12.0173 21.6903 9.15777 23.7993 7.0487C25.9084 4.93964 28.768 3.75331 31.7506 3.75H45.5006C47.1576 3.75198 48.7462 4.4111 49.9179 5.58278C51.0895 6.75445 51.7486 8.34301 51.7506 10C51.7506 10.3315 51.8823 10.6495 52.1167 10.8839C52.3512 11.1183 52.6691 11.25 53.0006 11.25H54.2506C55.9076 11.252 57.4962 11.9111 58.6679 13.0828C59.8395 14.2544 60.4986 15.843 60.5006 17.5V22.8475L55.8756 18.5525C55.1467 17.8751 54.1882 17.499 53.1931 17.5Z" fill="#2BC7E8"/>
<path id="Vector_2" d="M43.03 36.5275C43.0838 36.7627 43.2044 36.9773 43.3774 37.1454C43.5504 37.3135 43.7684 37.428 44.005 37.475L50.255 38.725L50.745 36.275L47.2375 35.5725L50 33.5L48.5 31.5L43.5 35.25C43.3066 35.3947 43.1593 35.5924 43.0759 35.8192C42.9924 36.0459 42.9765 36.2919 43.03 36.5275ZM32.5 31.5L31 33.5L33.7625 35.5725L30.25 36.275L30.74 38.725L36.99 37.475C37.2261 37.4269 37.4432 37.3115 37.6153 37.1428C37.7874 36.9742 37.907 36.7594 37.9599 36.5243C38.0127 36.2892 37.9964 36.0438 37.9131 35.8178C37.8297 35.5917 37.6828 35.3945 37.49 35.25L32.5 31.5Z" fill="#2BC7E8"/>
</g>
</g>
</svg>
