<svg width="80" height="80" viewBox="0 0 80 80" fill="none" xmlns="http://www.w3.org/2000/svg">
<g id="Frame">
<g id="Group">
<path id="Vector" d="M47.5009 3.82375V2.5C47.5009 2.16848 47.3692 1.85054 47.1348 1.61612C46.9004 1.3817 46.5824 1.25 46.2509 1.25H33.7509C33.4194 1.25 33.1015 1.3817 32.867 1.61612C32.6326 1.85054 32.5009 2.16848 32.5009 2.5V3.82375C32.3925 12.2395 29.5298 20.388 24.3509 27.0225C21.528 30.7601 20.0008 35.3162 20.0008 40C20.0008 44.6838 21.528 49.2399 24.3509 52.9775C29.5298 59.612 32.3925 67.7605 32.5009 76.1763V77.5C32.5009 77.8315 32.6326 78.1495 32.867 78.3839C33.1015 78.6183 33.4194 78.75 33.7509 78.75H46.2509C46.5824 78.75 46.9004 78.6183 47.1348 78.3839C47.3692 78.1495 47.5009 77.8315 47.5009 77.5V76.1763C47.6093 67.7605 50.472 59.612 55.6509 52.9775C58.4738 49.2399 60.0011 44.6838 60.0011 40C60.0011 35.3162 58.4738 30.7601 55.6509 27.0225C50.472 20.388 47.6093 12.2395 47.5009 3.82375ZM35.0009 3.82375V3.75H45.0009V3.82375C45.0058 7.46259 45.5286 11.0822 46.5534 14.5738C44.5362 15.6473 42.2861 16.2088 40.0009 16.2088C37.7158 16.2088 35.4657 15.6473 33.4484 14.5738C34.4733 11.0822 34.996 7.46259 35.0009 3.82375ZM43.3459 18.3988C44.0235 21.7395 44.9631 25.0217 46.1559 28.215C47.496 31.9981 48.1628 35.9867 48.1259 40C48.1625 44.0131 47.4962 48.0017 46.1572 51.785C44.9594 54.9893 44.0169 58.2833 43.3384 61.6362C42.6494 61.4955 41.9522 61.3982 41.2509 61.345V18.7013C41.9551 18.6464 42.655 18.5453 43.3459 18.3988ZM38.7509 18.7013V61.345C38.0497 61.3982 37.3525 61.4955 36.6634 61.6362C35.9848 58.2835 35.0427 54.9895 33.8459 51.785C32.5059 48.0019 31.8391 44.0133 31.8759 40C31.8393 35.9869 32.5056 31.9983 33.8447 28.215C35.0385 25.022 35.9785 21.7397 36.6559 18.3988C37.3469 18.5453 38.0467 18.6464 38.7509 18.7013ZM32.6622 63.0188C31.1463 58.8766 29.018 54.985 26.3484 51.4738C23.8516 48.1697 22.5008 44.1413 22.5008 40C22.5008 35.8587 23.8516 31.8303 26.3484 28.5262C29.0167 25.0157 31.1444 21.1255 32.6609 16.985C33.1772 17.248 33.7071 17.4834 34.2484 17.69C33.5927 20.9731 32.6739 24.198 31.5009 27.3338C30.0469 31.3964 29.3274 35.6853 29.3759 40C29.3274 44.3147 30.0469 48.6036 31.5009 52.6662C32.6759 55.8071 33.5955 59.0375 34.2509 62.3262C33.7092 62.5281 33.1788 62.7593 32.6622 63.0188ZM45.0009 76.1763V76.25H35.0009V76.1763C34.996 72.5374 34.4733 68.9178 33.4484 65.4262C35.4657 64.3527 37.7158 63.7912 40.0009 63.7912C42.2861 63.7912 44.5362 64.3527 46.5534 65.4262C45.5286 68.9178 45.0058 72.5374 45.0009 76.1763ZM53.6534 51.4738C50.9838 54.985 48.8556 58.8766 47.3397 63.0188C46.8226 62.7593 46.2918 62.5281 45.7497 62.3262C46.4057 59.0377 47.3253 55.8073 48.4997 52.6662C49.9541 48.6037 50.6741 44.3148 50.6259 40C50.6745 35.6853 49.9549 31.3964 48.5009 27.3338C47.3271 24.1981 46.4075 20.9731 45.7509 17.69C46.2922 17.4834 46.8222 17.248 47.3384 16.985C48.8549 21.1255 50.9827 25.0157 53.6509 28.5262C56.1477 31.8303 57.4986 35.8587 57.4986 40C57.4986 44.1413 56.1477 48.1697 53.6509 51.4738H53.6534ZM62.9647 31.16L67.5009 29.3462V32.5C67.5011 32.7042 67.5512 32.9052 67.6469 33.0855C67.7427 33.2658 67.8812 33.4199 68.0503 33.5344C68.2193 33.6488 68.4139 33.7201 68.6168 33.742C68.8198 33.7639 69.0251 33.7357 69.2147 33.66L75.4647 31.16C75.7632 31.0306 75.9995 30.7898 76.1233 30.4889C76.2472 30.188 76.2488 29.8507 76.1279 29.5486C76.0069 29.2465 75.773 29.0035 75.4757 28.8712C75.1785 28.7389 74.8413 28.7277 74.5359 28.84L70.0009 30.6538V27.5C70.0008 27.2958 69.9507 27.0948 69.8549 26.9145C69.7591 26.7342 69.6207 26.5801 69.4516 26.4656C69.2825 26.3512 69.088 26.2799 68.885 26.258C68.682 26.2361 68.4768 26.2643 68.2872 26.34L62.0372 28.84C61.7387 28.9694 61.5024 29.2102 61.3785 29.5111C61.2547 29.812 61.2531 30.1493 61.374 30.4514C61.4949 30.7535 61.7289 30.9965 62.0261 31.1288C62.3234 31.2611 62.6605 31.2723 62.9659 31.16H62.9647ZM75.4659 48.84L69.2159 46.34C69.0263 46.264 68.8209 46.2356 68.6177 46.2574C68.4146 46.2792 68.2198 46.3504 68.0506 46.4649C67.8814 46.5794 67.7428 46.7336 67.6469 46.914C67.5511 47.0945 67.501 47.2957 67.5009 47.5V50.6537L62.9647 48.84C62.6593 48.7277 62.3221 48.7389 62.0249 48.8712C61.7276 49.0035 61.4937 49.2465 61.3727 49.5486C61.2518 49.8507 61.2534 50.188 61.3773 50.4889C61.5011 50.7898 61.7374 51.0306 62.0359 51.16L68.2859 53.66C68.4756 53.736 68.681 53.7644 68.8841 53.7426C69.0873 53.7208 69.282 53.6496 69.4512 53.5351C69.6205 53.4206 69.7591 53.2664 69.8549 53.086C69.9507 52.9055 70.0009 52.7043 70.0009 52.5V49.3463L74.5372 51.16C74.8426 51.2723 75.1797 51.2611 75.477 51.1288C75.7742 50.9965 76.0082 50.7535 76.1291 50.4514C76.25 50.1493 76.2484 49.812 76.1246 49.5111C76.0007 49.2102 75.7645 48.9694 75.4659 48.84ZM17.9659 28.84L11.7159 26.34C11.5263 26.264 11.3209 26.2356 11.1177 26.2574C10.9146 26.2792 10.7198 26.3504 10.5506 26.4649C10.3814 26.5794 10.2428 26.7336 10.1469 26.914C10.0511 27.0945 10.001 27.2957 10.0009 27.5V30.6538L5.46468 28.84C5.15929 28.7277 4.82215 28.7389 4.52488 28.8712C4.22762 29.0035 3.99367 29.2465 3.87274 29.5486C3.75181 29.8507 3.75344 30.188 3.87727 30.4889C4.00111 30.7898 4.2374 31.0306 4.53593 31.16L10.7859 33.66C10.9756 33.736 11.181 33.7644 11.3841 33.7426C11.5873 33.7208 11.782 33.6496 11.9513 33.5351C12.1205 33.4206 12.2591 33.2664 12.3549 33.086C12.4507 32.9055 12.5009 32.7043 12.5009 32.5V29.3462L17.0372 31.16C17.3426 31.2723 17.6797 31.2611 17.977 31.1288C18.2742 30.9965 18.5082 30.7535 18.6291 30.4514C18.75 30.1493 18.7484 29.812 18.6246 29.5111C18.5007 29.2102 18.2645 28.9694 17.9659 28.84ZM17.0372 48.84L12.5009 50.6537V47.5C12.5008 47.2958 12.4507 47.0948 12.3549 46.9145C12.2591 46.7342 12.1207 46.5801 11.9516 46.4656C11.7825 46.3512 11.588 46.2799 11.385 46.258C11.182 46.2361 10.9768 46.2643 10.7872 46.34L4.53718 48.84C4.23865 48.9694 4.00236 49.2102 3.87852 49.5111C3.75469 49.812 3.75306 50.1493 3.87399 50.4514C3.99492 50.7535 4.22887 50.9965 4.52613 51.1288C4.8234 51.2611 5.16054 51.2723 5.46593 51.16L10.0009 49.3463V52.5C10.0011 52.7042 10.0512 52.9052 10.147 53.0855C10.2427 53.2658 10.3812 53.4199 10.5503 53.5344C10.7193 53.6488 10.9139 53.7201 11.1168 53.742C11.3198 53.7639 11.5251 53.7357 11.7147 53.66L17.9647 51.16C18.2632 51.0306 18.4995 50.7898 18.6233 50.4889C18.7472 50.188 18.7488 49.8507 18.6279 49.5486C18.5069 49.2465 18.273 49.0035 17.9757 48.8712C17.6785 48.7389 17.3426 48.7277 17.0372 48.84Z" fill="#2BC7E8"/>
</g>
</g>
</svg>
