<svg width="81" height="80" viewBox="0 0 81 80" fill="none" xmlns="http://www.w3.org/2000/svg">
<g id="Frame">
<g id="Group">
<path id="Vector" d="M74.1862 45.8563C73.6312 44.1813 68.6513 29.4075 65.0275 26.5212C62.6038 24.5938 55.0775 20.4088 48.0812 19.135C48.3862 17.42 49.2525 11.4725 49.2525 9.9475C49.2525 5.7375 47.5013 2.97875 44.5588 2.53C37.1663 -0.183749 33.405 1.68 30.2237 4.81125C27.335 7.6575 27.3088 5.61125 26.0462 6.465C24.2625 7.68375 26.84 13.4575 29.1613 15.5313C28.9905 17.509 29.3882 19.4944 30.3075 21.2537C25.3725 22.9025 21.1412 25.1238 19.1312 27.175C15.43 30.965 8.50125 41.3663 8.20875 41.8075C7.58125 42.7513 8.39375 43.4487 9.18125 44.3088C7.5125 47.0125 6.75 50.87 6.75 53.75C6.75 60.0575 19.6663 66.1825 23.5763 71.2313C24.1562 71.9813 24.7763 72.765 25.5 73.4288V77.5C25.5 77.8315 25.6317 78.1495 25.8661 78.3839C26.1005 78.6183 26.4185 78.75 26.75 78.75C27.0815 78.75 27.3995 78.6183 27.6339 78.3839C27.8683 78.1495 28 77.8315 28 77.5V74.8338C28.3913 74.93 28.7987 75 29.25 75C31.1175 75 34.25 74.1888 34.25 68.75C34.25 65.6425 24.2437 56.3563 18.4012 53.175L18.7687 52.3913C20.085 52.9463 20.5963 51.3313 24.115 48.9613C24.9113 51.7913 25.5 54.5413 25.5 56.25C25.5 56.5815 25.6317 56.8995 25.8661 57.1339C26.1005 57.3683 26.4185 57.5 26.75 57.5C27.0815 57.5 27.3995 57.3683 27.6339 57.1339C27.8683 56.8995 28 56.5815 28 56.25C28 53.8538 27.1012 50.0713 26.0087 46.5213C25.9996 46.4866 25.9888 46.4524 25.9762 46.4188C24.8875 42.895 23.6163 39.6138 22.855 38.1675C22.6931 37.8879 22.4292 37.6817 22.1187 37.5922C21.8082 37.5027 21.4751 37.5368 21.1892 37.6874C20.9033 37.8379 20.6867 38.0933 20.5848 38.3999C20.4829 38.7066 20.5036 39.0408 20.6425 39.3325C21.3425 40.6637 22.395 43.4025 23.3413 46.3788L19.17 49.7125C15.3075 47.145 12.115 43.8225 10.8225 42.3963C12.5363 39.86 17.9513 31.96 20.9163 28.9237C24.325 25.4475 35.4912 21.25 44.25 21.25C51.365 21.25 60.8837 26.4212 63.4712 28.4775C65.6575 30.2188 69.435 39.6588 71.5238 45.7813C70.5187 46.385 68.03 47.5625 62.74 48.6313C62.9712 45.1838 63.12 41.3775 63 37.4613C62.9886 37.1301 62.8467 36.8169 62.6052 36.59C62.3638 36.3631 62.0425 36.2409 61.7113 36.25C61.38 36.2605 61.0664 36.4019 60.8394 36.6433C60.6123 36.8846 60.4902 37.2062 60.5 37.5375C60.7088 44.2588 60.1063 50.7425 59.665 55.4775C58.9163 63.5338 59.425 58.8413 59.25 77.5C59.25 77.8315 59.3817 78.1495 59.6161 78.3839C59.8505 78.6183 60.1685 78.75 60.5 78.75C60.8315 78.75 61.1495 78.6183 61.3839 78.3839C61.6183 78.1495 61.75 77.8315 61.75 77.5V67.6325C71.255 60.0588 71.75 59.1538 71.75 51.25C71.75 49.5963 69.25 49.595 69.25 51.25C69.25 57.7913 69.2313 58.4263 61.75 64.4338V61.25C61.75 59.4025 62.1675 55.9463 62.5512 51.2138C65.33 50.68 75.0725 48.52 74.1862 45.8563ZM16.6562 51.0088C16.5225 51.7088 14.4513 54.1075 16.2487 54.895C22.0013 57.4175 31.4438 66.96 31.75 68.75C31.75 72.5 30.0613 72.5 29.25 72.5C26.8988 72.5 25.82 69.49 23.4625 67.29C21.2313 65.2063 9.25 57.825 9.25 53.75C9.25 51.5013 9.80625 48.4225 10.99 46.1813C12.445 47.6188 14.4 49.3863 16.6562 51.0088ZM28.1312 8.89C32.76 8.48875 32.8162 0.742501 43.7988 4.915C44.2188 5.08 46.7513 4.9525 46.7513 9.9475C46.7513 13.4638 46.12 13.9175 46.0938 13.9338C43.2012 15.715 38.31 15.3425 36.4538 15.1188C35.96 13.8975 34.8862 12.5 33 12.5C32.115 12.5 31.1975 12.9725 30.5425 13.405C29.5288 12.3388 28.505 10.3988 28.1312 8.89ZM32.7688 20.4963C31.5325 18.4 31.5662 16.4713 31.66 15.6788C34.635 13.4963 33.5138 17.1738 35.2875 17.4825C38.3587 18.0188 42.8287 18.0063 45.9287 16.7838C45.8275 17.465 45.7163 18.1675 45.6012 18.8075C41.625 18.5138 36.6075 19.4175 32.7688 20.4963ZM62.79 19.4438C64.0838 17.025 66.62 15.0763 64.9437 13.96C63.2725 12.8425 62.495 15.87 60.71 18.0563C59.7837 19.4438 61.8913 20.7938 62.79 19.4438Z" fill="#2BC7E8"/>
<path id="Vector_2" d="M18.2098 19.4437C18.3009 19.5803 18.418 19.6976 18.5545 19.7889C18.6909 19.8802 18.844 19.9438 19.005 19.9759C19.166 20.0081 19.3317 20.0082 19.4928 19.9763C19.6538 19.9444 19.807 19.8811 19.9436 19.79C20.0801 19.6989 20.1974 19.5818 20.2887 19.4453C20.3801 19.3089 20.4436 19.1558 20.4758 18.9948C20.5079 18.8338 20.508 18.6681 20.4761 18.507C20.4442 18.346 20.3809 18.1928 20.2898 18.0562L17.7898 14.3062C17.6058 14.0304 17.3198 13.839 16.9946 13.774C16.6695 13.7091 16.3319 13.776 16.0561 13.96C15.7802 14.144 15.5888 14.43 15.5239 14.7551C15.4589 15.0803 15.5258 15.4179 15.7098 15.6937L18.2098 19.4437ZM68.8836 23.3837C71.1398 20.7062 74.0948 19.3275 72.6336 17.8662C71.1723 16.405 69.7873 19.365 67.1161 21.6162C65.9448 22.7875 67.7261 24.5412 68.8836 23.3837ZM12.1161 24.6337C13.2686 25.7862 15.0686 24.05 13.8836 22.8662L10.1336 19.1162C10.0175 19.0002 9.87973 18.9081 9.72809 18.8453C9.57646 18.7825 9.41394 18.7502 9.24981 18.7502C9.08568 18.7502 8.92316 18.7825 8.77153 18.8453C8.61989 18.9081 8.48212 19.0002 8.36606 19.1162C8.25001 19.2323 8.15795 19.3701 8.09514 19.5217C8.03233 19.6733 8 19.8358 8 20C8 20.3314 8.13168 20.6493 8.36606 20.8837L12.1161 24.6337ZM38.8836 52.8662C38.7676 52.75 38.6298 52.6579 38.4782 52.595C38.3265 52.5321 38.164 52.4997 37.9998 52.4997C37.8356 52.4997 37.6731 52.5321 37.5214 52.595C37.3698 52.6579 37.232 52.75 37.1161 52.8662L33.3661 56.6162C33.1317 56.8506 33 57.1685 33 57.5C33 57.8315 33.1317 58.1493 33.3661 58.3837C33.6004 58.6181 33.9183 58.7498 34.2498 58.7498C34.5813 58.7498 34.8992 58.6181 35.1336 58.3837L38.8836 54.6337C38.9997 54.5177 39.0919 54.38 39.1548 54.2283C39.2177 54.0767 39.2501 53.9141 39.2501 53.75C39.2501 53.5858 39.2177 53.4233 39.1548 53.2716C39.0919 53.12 38.9997 52.9822 38.8836 52.8662ZM43.6911 60.1312L38.6911 62.6312C38.3944 62.7794 38.1687 63.0394 38.0636 63.354C37.9586 63.6686 37.9829 64.012 38.1311 64.3087C38.2793 64.6054 38.5392 64.8311 38.8538 64.9361C39.1684 65.0412 39.5119 65.0169 39.8086 64.8687L44.8086 62.3687C44.9555 62.2954 45.0865 62.1938 45.1942 62.0697C45.3018 61.9457 45.384 61.8017 45.436 61.646C45.488 61.4902 45.5088 61.3257 45.4972 61.1619C45.4857 60.9981 45.4419 60.8381 45.3686 60.6912C45.2952 60.5443 45.1936 60.4133 45.0696 60.3056C44.9456 60.198 44.8016 60.1158 44.6458 60.0638C44.3312 59.9588 43.9878 59.983 43.6911 60.1312ZM44.5523 71.2875L39.5523 70.0375C39.3931 69.9969 39.2274 69.9884 39.0648 70.0122C38.9022 70.0361 38.7459 70.092 38.6051 70.1766C38.4642 70.2612 38.3415 70.3729 38.244 70.5052C38.1466 70.6375 38.0763 70.7878 38.0373 70.9475C37.9973 71.1068 37.9891 71.2724 38.0132 71.4349C38.0372 71.5974 38.0932 71.7536 38.1777 71.8944C38.2622 72.0353 38.3737 72.1581 38.5058 72.2558C38.6378 72.3534 38.7879 72.4241 38.9473 72.4637L43.9473 73.7137C44.2691 73.794 44.6095 73.7431 44.8937 73.5723C45.178 73.4015 45.3827 73.1248 45.4629 72.8031C45.5432 72.4814 45.4923 72.1409 45.3215 71.8567C45.1507 71.5725 44.8741 71.3677 44.5523 71.2875Z" fill="#2BC7E8"/>
</g>
</g>
</svg>
