<svg width="81" height="80" viewBox="0 0 81 80" fill="none" xmlns="http://www.w3.org/2000/svg">
<g id="Frame" clip-path="url(#clip0_40_644)">
<g id="Group">
<path id="Vector" d="M59.3673 15.1063L65.8366 17.8835C67.1946 18.4655 68.4716 19.2207 69.6358 20.1303C69.8421 20.2923 70.0968 20.3802 70.359 20.38C70.6037 20.3802 70.8423 20.3041 71.0415 20.1622C71.2408 20.0203 71.3908 19.8198 71.4706 19.5885C71.5504 19.3573 71.556 19.1069 71.4867 18.8723C71.4174 18.6378 71.2765 18.4307 71.0839 18.28C69.76 17.2455 68.3079 16.3865 66.7637 15.7246L60.2941 12.9472C59.0918 12.4321 57.9914 11.7059 57.045 10.803C54.876 8.73638 53.6322 5.83308 53.6322 2.83751V1.17486C53.6322 0.525865 53.1064 0 52.4574 0C51.8084 0 51.2825 0.525865 51.2825 1.17486V2.83735C51.2825 6.47267 52.7921 9.99599 55.424 12.5039C56.5726 13.5997 57.9081 14.481 59.3673 15.1063ZM80.3669 66.9461L79.0013 64.3197C78.9059 64.1359 78.856 63.9318 78.8558 63.7246V50.5934C78.856 49.6714 78.6647 48.7594 78.294 47.9152C77.9233 47.071 77.3813 46.3131 76.7023 45.6894C76.7028 45.6748 76.7045 45.6605 76.7045 45.6458L76.7047 41.7517C79.6656 35.3915 78.9673 27.9305 74.8587 22.2145C74.7687 22.0892 74.6549 21.9828 74.5238 21.9015C74.3926 21.8202 74.2468 21.7655 74.0945 21.7406C73.9423 21.7157 73.7866 21.721 73.6364 21.7563C73.4862 21.7916 73.3444 21.8561 73.2191 21.9461C73.0938 22.0362 72.9875 22.15 72.9062 22.2811C72.8249 22.4123 72.7702 22.5581 72.7453 22.7104C72.7204 22.8626 72.7257 23.0183 72.761 23.1685C72.7962 23.3187 72.8607 23.4605 72.9508 23.5858C76.6094 28.676 77.1922 35.3398 74.4715 40.9769C74.3947 41.1362 74.3548 41.3108 74.3548 41.4876V43.6755L63.3557 34.281V32.9154C63.3557 32.2664 62.8298 31.7405 62.1808 31.7405C61.5318 31.7405 61.0059 32.2664 61.0059 32.9154V49.3505C61.0059 50.9565 60.7166 52.5582 60.163 54.0639L59.9561 53.7189C59.3447 52.6998 58.3689 51.996 57.209 51.737C56.0491 51.4789 54.8668 51.7004 53.8801 52.3627C52.1666 53.5125 51.5129 55.7236 52.3255 57.6204L55.5613 65.1721C56.3897 67.1047 57.6244 68.8363 59.1815 70.2493C59.1813 70.2758 59.1808 70.3021 59.1826 70.3289L59.7064 78.6015C59.7261 78.9124 59.8685 79.2029 60.1023 79.4088C60.3362 79.6148 60.6422 79.7195 60.9532 79.6998C61.2642 79.6801 61.5546 79.5377 61.7606 79.3038C61.9666 79.07 62.0713 78.7639 62.0516 78.4529L61.6468 72.0606C62.0414 72.2909 62.4465 72.5028 62.8608 72.6955L64.1845 73.311L68.7804 79.5236C68.8895 79.6716 69.032 79.7918 69.1962 79.8745C69.3605 79.9572 69.5418 80.0002 69.7257 79.9998C69.9432 79.9998 70.1564 79.9393 70.3415 79.8252C70.5267 79.7111 70.6765 79.5478 70.7743 79.3536C70.8721 79.1593 70.9141 78.9418 70.8955 78.7251C70.877 78.5084 70.7986 78.3011 70.6692 78.1263L65.8954 71.6731C65.7786 71.5152 65.6242 71.3891 65.4461 71.3064L63.851 70.5648C61.0981 69.2871 58.9149 67.0368 57.721 64.2466L54.4852 56.6951C54.3069 56.2783 54.2797 55.8123 54.4082 55.3776C54.5368 54.9428 54.813 54.5666 55.1893 54.3137C55.4079 54.1658 55.6544 54.0644 55.9138 54.0156C56.1731 53.9669 56.4397 53.9719 56.697 54.0304C56.9548 54.0868 57.1982 54.1956 57.4122 54.3499C57.6263 54.5043 57.8063 54.701 57.9411 54.9278L60.3059 58.8689C60.7979 59.6885 61.6972 60.1977 62.6531 60.1977H64.255C65.6037 60.1977 66.74 59.2315 66.9568 57.9002L67.197 56.4247C67.2218 56.2724 67.2164 56.1168 67.181 55.9666C67.1456 55.8164 67.081 55.6747 66.9909 55.5495C66.9008 55.4243 66.7868 55.3181 66.6556 55.2369C66.5244 55.1557 66.3785 55.1012 66.2262 55.0765C65.9187 55.0264 65.6039 55.1006 65.3511 55.2826C65.0982 55.4647 64.928 55.7397 64.878 56.0472L64.6378 57.5225C64.6233 57.6135 64.5768 57.6963 64.5066 57.756C64.4364 57.8157 64.3472 57.8483 64.2551 57.848H62.6532C62.5864 57.8478 62.5206 57.8304 62.4624 57.7974C62.4042 57.7645 62.3555 57.7171 62.3208 57.6599L61.6473 56.5372C62.7646 54.3156 63.3558 51.8373 63.3558 49.3502V44.6747L66.0574 47.9025C66.1355 47.9958 66.1692 48.1183 66.1496 48.2386L65.6935 51.0406C65.666 51.2088 65.6755 51.3809 65.7212 51.545C65.7669 51.7092 65.8478 51.8614 65.9583 51.9912C66.0687 52.1209 66.2061 52.2251 66.3608 52.2964C66.5156 52.3678 66.684 52.4046 66.8544 52.4044C67.133 52.404 67.4025 52.3046 67.6146 52.1239C67.8268 51.9433 67.9678 51.6931 68.0126 51.4181L68.4688 48.616C68.5328 48.2236 68.5114 47.822 68.4062 47.4386C68.301 47.0553 68.1144 46.699 67.8591 46.3943L63.3558 41.0141V37.3711L74.9925 47.31C75.4674 47.7151 75.8487 48.2185 76.11 48.7853C76.3713 49.3522 76.5065 49.969 76.506 50.5932V63.7245C76.506 64.3066 76.648 64.8873 76.9165 65.4036L78.2821 68.0299C78.3533 68.1668 78.4507 68.2884 78.5688 68.3876C78.687 68.4868 78.8235 68.5618 78.9706 68.6083C79.1177 68.6548 79.2726 68.6718 79.4263 68.6585C79.58 68.6451 79.7296 68.6016 79.8664 68.5304C80.0033 68.4593 80.1249 68.3618 80.2241 68.2437C80.3233 68.1256 80.3983 67.989 80.4448 67.8419C80.4913 67.6948 80.5083 67.54 80.495 67.3863C80.4816 67.2326 80.4381 67.083 80.3669 66.9461ZM49.0854 47.8661C46.9533 49.7827 45.7305 52.5251 45.7305 55.3901C45.7305 57.03 46.1323 58.659 46.8926 60.1011C46.9646 60.2376 47.0627 60.3586 47.1814 60.4571C47.3001 60.5557 47.4371 60.6299 47.5845 60.6756C47.7319 60.7212 47.8868 60.7373 48.0405 60.7231C48.1941 60.7088 48.3435 60.6645 48.4799 60.5925C48.7556 60.4471 48.9622 60.1982 49.0543 59.9006C49.1465 59.6029 49.1166 59.2808 48.9713 59.0052C48.3883 57.8996 48.0803 56.6495 48.0803 55.3901C48.0813 54.3005 48.311 53.2233 48.7548 52.2281C49.1985 51.233 49.8463 50.3422 50.6562 49.6134C50.7729 49.5108 50.8681 49.3861 50.9363 49.2464C51.0044 49.1068 51.0442 48.955 51.0533 48.7999C51.0624 48.6448 51.0407 48.4894 50.9893 48.3428C50.938 48.1961 50.858 48.0611 50.7541 47.9456C50.6503 47.83 50.5245 47.7363 50.3841 47.6696C50.2437 47.603 50.0916 47.5649 49.9364 47.5575C49.7812 47.5501 49.626 47.5736 49.48 47.6266C49.3339 47.6796 49.1998 47.761 49.0854 47.8661Z" fill="#2BC7E8"/>
<path id="Vector_2" d="M53.7563 45.4918C53.4546 45.5591 53.1916 45.7426 53.0243 46.0026C52.8569 46.2625 52.7987 46.5779 52.8623 46.8804C52.9259 47.1829 53.1062 47.4481 53.364 47.6187C53.6218 47.7892 53.9365 47.8513 54.2398 47.7914C55.2336 47.5848 56.258 47.5719 57.2568 47.7532C57.4093 47.783 57.5663 47.7823 57.7186 47.7511C57.8709 47.7198 58.0155 47.6586 58.1439 47.5711C58.2724 47.4836 58.3822 47.3714 58.4671 47.2411C58.5519 47.1108 58.61 46.965 58.638 46.8121C58.666 46.6592 58.6635 46.5022 58.6304 46.3503C58.5973 46.1984 58.5344 46.0546 58.4454 45.9271C58.3563 45.7997 58.2428 45.6912 58.1116 45.608C57.9803 45.5247 57.8338 45.4684 57.6805 45.4422C56.3915 45.2058 55.0361 45.2227 53.7563 45.4918ZM28.545 1.04469e-08C28.3907 -2.05657e-05 28.238 0.0303539 28.0954 0.0893887C27.9529 0.148423 27.8233 0.234962 27.7142 0.344061C27.6051 0.453161 27.5186 0.582684 27.4596 0.725234C27.4005 0.867783 27.3701 1.02057 27.3702 1.17486V2.83735C27.3702 5.83292 26.1264 8.73607 23.9574 10.8029C23.0109 11.7057 21.9104 12.4318 20.7081 12.9471L14.2387 15.7243C9.32501 17.8337 5.58725 21.7538 3.71437 26.7626C1.87345 31.6862 2.08242 36.9982 4.29757 41.7519V45.6458C4.29757 45.6597 4.29913 45.6734 4.2996 45.6872C3.6216 46.2991 3.07962 47.0465 2.70872 47.8811C2.33783 48.7157 2.14628 49.6188 2.14648 50.5321V52.6152C2.14648 53.2642 2.67235 53.7901 3.32134 53.7901C3.97033 53.7901 4.4962 53.2642 4.4962 52.6152V50.5321C4.4958 49.9271 4.62677 49.3292 4.88006 48.7798C5.13334 48.2303 5.5029 47.7425 5.9632 47.3498L17.6464 37.3711V41.0141L13.1431 46.3941C12.8878 46.6989 12.7012 47.0552 12.596 47.4387C12.4908 47.8221 12.4695 48.2237 12.5335 48.6162L14.0451 57.9003C14.1475 58.5426 14.4761 59.127 14.9715 59.5483C15.467 59.9696 16.0966 60.2 16.747 60.1979H18.3488C19.305 60.1979 20.2045 59.6886 20.696 58.8689L23.0608 54.9281C23.1957 54.7013 23.3757 54.5045 23.5897 54.3501C23.8037 54.1957 24.0471 54.0869 24.3049 54.0304C24.5623 53.9719 24.8289 53.9669 25.0882 54.0157C25.3476 54.0645 25.5942 54.166 25.8128 54.3139C26.189 54.5667 26.4652 54.943 26.5937 55.3777C26.7222 55.8124 26.695 56.2783 26.5168 56.6951L23.2809 64.2467C22.087 67.0371 19.9037 69.2875 17.1508 70.5653L15.5558 71.3065C15.3777 71.3892 15.2233 71.5153 15.1066 71.6732L10.3327 78.1265C10.2409 78.2505 10.1745 78.3914 10.1372 78.5411C10.0999 78.6908 10.0924 78.8464 10.1152 78.9989C10.1381 79.1515 10.1907 79.2981 10.2702 79.4304C10.3497 79.5626 10.4545 79.6778 10.5785 79.7696C10.7802 79.9195 11.0249 80.0003 11.2762 80C11.4601 80.0003 11.6414 79.9573 11.8056 79.8746C11.9699 79.7918 12.1123 79.6717 12.2216 79.5238L16.8175 73.3112L18.141 72.696C18.5553 72.5032 18.9605 72.2913 19.3551 72.061L18.9504 78.4531C18.9406 78.6071 18.9613 78.7615 19.0112 78.9075C19.0611 79.0535 19.1393 79.1882 19.2413 79.304C19.4473 79.5378 19.7377 79.6802 20.0487 79.6999C20.3597 79.7196 20.6658 79.615 20.8996 79.409C21.1334 79.203 21.2758 78.9126 21.2955 78.6016L21.8194 70.3291C21.8211 70.3023 21.8205 70.276 21.8203 70.2495C23.3774 68.8364 24.612 67.1048 25.4404 65.1722L28.6763 57.6204C29.489 55.7237 28.8353 53.5125 27.1219 52.3629C26.135 51.7005 24.9525 51.4784 23.7927 51.7374C22.6327 51.9961 21.6569 52.7001 21.0457 53.7194L20.8388 54.0642C20.2852 52.5582 19.9958 50.9566 19.9958 49.3505V32.9154C19.9958 32.2664 19.47 31.7405 18.821 31.7405C18.172 31.7405 17.6461 32.2664 17.6461 32.9154V34.281L6.64681 43.6757V41.4876C6.64678 41.3108 6.60689 41.1362 6.53011 40.9769C4.48711 36.744 4.26859 31.9882 5.9148 27.5858C7.561 23.1833 10.8467 19.7376 15.1658 17.8835L21.635 15.1063C23.0941 14.481 24.4296 13.5997 25.5784 12.5041C28.2104 9.99599 29.7199 6.47283 29.7199 2.83751V1.17486C29.7199 0.525865 29.194 1.04469e-08 28.545 1.04469e-08ZM18.6816 57.6602C18.647 57.7175 18.5982 57.7649 18.54 57.7978C18.4818 57.8308 18.4161 57.8482 18.3492 57.8483H16.7473C16.6552 57.8486 16.566 57.816 16.4958 57.7563C16.4257 57.6967 16.3791 57.6139 16.3646 57.523L14.8529 48.239C14.8432 48.1796 14.8465 48.1188 14.8624 48.0607C14.8783 48.0027 14.9066 47.9488 14.9452 47.9026L17.6467 44.6751V49.3507C17.6467 51.8378 18.2378 54.3161 19.3553 56.5377L18.6816 57.6602Z" fill="#2BC7E8"/>
<path id="Vector_3" d="M3.32052 56.4476C3.16623 56.4476 3.01344 56.4779 2.87089 56.537C2.72835 56.596 2.59882 56.6825 2.48972 56.7916C2.38062 56.9007 2.29408 57.0303 2.23505 57.1728C2.17602 57.3154 2.14564 57.4682 2.14566 57.6224V63.7572C2.14566 63.9424 2.10055 64.1269 2.01517 64.2911L0.63464 66.9461C0.493443 67.2223 0.467196 67.5431 0.561626 67.8386C0.656057 68.134 0.8635 68.3801 1.1387 68.5233C1.41391 68.6664 1.73453 68.6948 2.03064 68.6024C2.32675 68.51 2.5743 68.3043 2.7193 68.0301L4.09984 65.3749C4.35902 64.875 4.4946 64.3203 4.49522 63.7572V57.6224C4.49528 57.4682 4.46494 57.3154 4.40593 57.1728C4.34692 57.0303 4.26039 56.9007 4.1513 56.7916C4.04221 56.6825 3.91269 56.596 3.77014 56.5369C3.62759 56.4779 3.47481 56.4475 3.32052 56.4476ZM31.916 47.8661C31.8013 47.763 31.6674 47.6834 31.5219 47.632C31.3765 47.5806 31.2223 47.5583 31.0682 47.5665C30.9142 47.5747 30.7632 47.6132 30.624 47.6797C30.4848 47.7463 30.3601 47.8396 30.257 47.9543C30.1538 48.069 30.0742 48.2029 30.0228 48.3484C29.9714 48.4939 29.9492 48.6481 29.9574 48.8021C29.9656 48.9562 30.004 49.1071 30.0706 49.2463C30.1371 49.3855 30.2304 49.5102 30.3452 49.6134C31.1551 50.3422 31.8029 51.233 32.2466 52.2281C32.6904 53.2233 32.9202 54.3005 32.9211 55.3901C32.9211 56.6495 32.613 57.8997 32.0301 59.0052C31.8885 59.2805 31.8612 59.6005 31.9543 59.8958C32.0473 60.191 32.2532 60.4376 32.527 60.582C32.8008 60.7264 33.1206 60.7568 33.4168 60.6668C33.713 60.5767 33.9616 60.3734 34.1088 60.1011C34.8691 58.659 35.271 57.03 35.271 55.3901C35.271 52.5253 34.0482 49.7829 31.916 47.8661ZM23.3214 45.442C22.6832 45.559 22.2608 46.1712 22.3778 46.8094C22.4948 47.4476 23.1079 47.8707 23.7451 47.753C24.7439 47.5718 25.7683 47.5848 26.7622 47.7913C27.0671 47.8552 27.3849 47.7955 27.6459 47.6252C27.9068 47.4549 28.0894 47.188 28.1537 46.8832C28.1854 46.7322 28.1871 46.5764 28.1587 46.4248C28.1302 46.2731 28.0722 46.1285 27.9878 45.9993C27.9035 45.8701 27.7946 45.7588 27.6672 45.6717C27.5399 45.5846 27.3966 45.5234 27.2456 45.4917C25.9656 45.2227 24.6103 45.2058 23.3214 45.442ZM40.6252 1.04469e-08C40.4709 -2.05657e-05 40.3181 0.0303539 40.1755 0.0893887C40.033 0.148423 39.9035 0.234962 39.7944 0.344061C39.6853 0.453161 39.5987 0.582684 39.5397 0.725234C39.4807 0.867783 39.4503 1.02057 39.4503 1.17486V3.92214C39.4503 4.57113 39.9762 5.09699 40.6252 5.09699C41.2742 5.09699 41.8 4.57113 41.8 3.92214V1.17486C41.8 0.525865 41.2742 1.04469e-08 40.6252 1.04469e-08ZM40.6252 10.5142C40.4709 10.5142 40.3181 10.5445 40.1755 10.6036C40.033 10.6626 39.9035 10.7491 39.7944 10.8582C39.6853 10.9673 39.5987 11.0969 39.5397 11.2394C39.4807 11.382 39.4503 11.5347 39.4503 11.689V14.4362C39.4503 15.0851 39.9762 15.611 40.6252 15.611C41.2742 15.611 41.8 15.0851 41.8 14.4362V11.689C41.8 11.3774 41.6762 11.0786 41.4559 10.8583C41.2356 10.638 40.9368 10.5142 40.6252 10.5142ZM40.6252 21.0282C40.4709 21.0282 40.3181 21.0585 40.1755 21.1176C40.033 21.1766 39.9035 21.2632 39.7944 21.3723C39.6853 21.4814 39.5987 21.6109 39.5397 21.7534C39.4807 21.896 39.4503 22.0488 39.4503 22.2031V24.9502C39.4503 25.5992 39.9762 26.125 40.6252 26.125C41.2742 26.125 41.8 25.5992 41.8 24.9502V22.2031C41.8 21.8915 41.6762 21.5926 41.4559 21.3723C41.2356 21.152 40.9368 21.0282 40.6252 21.0282ZM40.6252 31.5422C40.4709 31.5422 40.3181 31.5726 40.1755 31.6316C40.033 31.6906 39.9035 31.7772 39.7944 31.8863C39.6853 31.9954 39.5987 32.1249 39.5397 32.2674C39.4807 32.41 39.4503 32.5628 39.4503 32.7171V35.4644C39.4503 36.1133 39.9762 36.6392 40.6252 36.6392C41.2742 36.6392 41.8 36.1133 41.8 35.4644V32.7171C41.8 32.4055 41.6762 32.1066 41.4559 31.8863C41.2356 31.666 40.9368 31.5422 40.6252 31.5422ZM40.6252 42.0565C40.4709 42.0565 40.3181 42.0869 40.1755 42.1459C40.033 42.205 39.9035 42.2915 39.7944 42.4006C39.6853 42.5097 39.5987 42.6392 39.5397 42.7818C39.4807 42.9243 39.4503 43.0771 39.4503 43.2314V45.9785C39.4503 46.6275 39.9762 47.1534 40.6252 47.1534C41.2742 47.1534 41.8 46.6275 41.8 45.9785V43.2314C41.8 42.5824 41.2742 42.0565 40.6252 42.0565ZM40.6252 52.5706C40.4709 52.5705 40.3181 52.6009 40.1755 52.66C40.033 52.719 39.9035 52.8055 39.7944 52.9146C39.6853 53.0237 39.5987 53.1532 39.5397 53.2958C39.4807 53.4383 39.4503 53.5911 39.4503 53.7454V56.4927C39.4503 57.1417 39.9762 57.6676 40.6252 57.6676C41.2742 57.6676 41.8 57.1417 41.8 56.4927V53.7454C41.8 53.0964 41.2742 52.5706 40.6252 52.5706ZM40.6252 63.0847C40.4709 63.0847 40.3181 63.1151 40.1755 63.1741C40.033 63.2332 39.9035 63.3197 39.7944 63.4288C39.6853 63.5379 39.5987 63.6674 39.5397 63.81C39.4807 63.9525 39.4503 64.1053 39.4503 64.2596V67.0067C39.4503 67.6557 39.9762 68.1816 40.6252 68.1816C41.2742 68.1816 41.8 67.6557 41.8 67.0067V64.2596C41.8 63.6106 41.2742 63.0847 40.6252 63.0847ZM40.6252 73.5988C40.4709 73.5987 40.3181 73.6291 40.1755 73.6881C40.033 73.7472 39.9035 73.8337 39.7944 73.9428C39.6853 74.0519 39.5987 74.1814 39.5397 74.324C39.4807 74.4665 39.4503 74.6193 39.4503 74.7736V77.5207C39.4503 78.1697 39.9762 78.6956 40.6252 78.6956C41.2742 78.6956 41.8 78.1697 41.8 77.5207V74.7736C41.8 74.1246 41.2742 73.5988 40.6252 73.5988Z" fill="#2BC7E8"/>
</g>
</g>
<defs>
<clipPath id="clip0_40_644">
<rect width="80" height="80" fill="white" transform="translate(0.5)"/>
</clipPath>
</defs>
</svg>
