<svg width="81" height="80" viewBox="0 0 81 80" fill="none" xmlns="http://www.w3.org/2000/svg">
<g id="Frame">
<g id="Group">
<path id="Vector" fill-rule="evenodd" clip-rule="evenodd" d="M52.2044 61.1966L56.9177 65.9099C57.2302 66.2224 57.6541 66.3979 58.096 66.3979C58.538 66.3979 58.9618 66.2224 59.2744 65.9099L68.701 56.4833C69.0046 56.1689 69.1726 55.7479 69.1688 55.3109C69.165 54.8739 68.9897 54.4559 68.6807 54.1469C68.3717 53.8379 67.9537 53.6626 67.5167 53.6588C67.0797 53.655 66.6587 53.823 66.3444 54.1266L58.096 62.3749L54.561 58.8399C54.2467 58.5363 53.8257 58.3683 53.3887 58.3721C52.9517 58.3759 52.5337 58.5512 52.2247 58.8602C51.9156 59.1692 51.7404 59.5873 51.7366 60.0243C51.7328 60.4612 51.9008 60.8822 52.2044 61.1966ZM22.166 31.9999C22.166 31.0283 21.7794 30.0949 21.0927 29.4066C20.4043 28.7198 19.4718 28.3338 18.4994 28.3333H15.8327C14.861 28.3333 13.9277 28.7199 13.2393 29.4066C12.5526 30.095 12.1666 31.0275 12.166 31.9999V34.6666C12.166 35.6383 12.5527 36.5716 13.2393 37.2599C13.9277 37.9466 14.861 38.3333 15.8327 38.3333H18.4994C19.471 38.3333 20.4044 37.9466 21.0927 37.2599C21.7794 36.5716 22.166 35.6383 22.166 34.6666V31.9999ZM18.8327 31.9999V34.6666C18.8328 34.7103 18.8241 34.7537 18.8072 34.794C18.7903 34.8344 18.7656 34.8709 18.7343 34.9016C18.7037 34.9328 18.6671 34.9576 18.6268 34.9745C18.5864 34.9914 18.5431 35 18.4994 34.9999H15.8327C15.7889 35 15.7456 34.9914 15.7053 34.9745C15.6649 34.9576 15.6283 34.9328 15.5977 34.9016C15.5665 34.8709 15.5417 34.8344 15.5248 34.794C15.5079 34.7537 15.4993 34.7103 15.4993 34.6666V31.9999C15.4993 31.9116 15.5343 31.8266 15.5977 31.7649C15.6283 31.7337 15.6649 31.7089 15.7053 31.692C15.7456 31.6751 15.7889 31.6665 15.8327 31.6666H18.4994C18.5877 31.6666 18.6727 31.7016 18.7343 31.7649C18.7656 31.7956 18.7903 31.8321 18.8072 31.8725C18.8241 31.9128 18.8328 31.9562 18.8327 31.9999ZM22.166 45.3333C22.166 44.3616 21.7794 43.4283 21.0927 42.7399C20.4043 42.0531 19.4718 41.6672 18.4994 41.6666H15.8327C14.861 41.6666 13.9277 42.0533 13.2393 42.7399C12.5526 43.4283 12.1666 44.3609 12.166 45.3333V47.9999C12.166 48.9716 12.5527 49.9049 13.2393 50.5933C13.9277 51.2799 14.861 51.6666 15.8327 51.6666H18.4994C19.471 51.6666 20.4044 51.2799 21.0927 50.5933C21.7794 49.9049 22.166 48.9716 22.166 47.9999V45.3333ZM18.8327 45.3333V47.9999C18.8328 48.0437 18.8241 48.087 18.8072 48.1273C18.7903 48.1677 18.7656 48.2043 18.7343 48.2349C18.7037 48.2661 18.6671 48.2909 18.6268 48.3078C18.5864 48.3247 18.5431 48.3333 18.4994 48.3333H15.8327C15.7889 48.3333 15.7456 48.3247 15.7053 48.3078C15.6649 48.2909 15.6283 48.2661 15.5977 48.2349C15.5665 48.2043 15.5417 48.1677 15.5248 48.1273C15.5079 48.087 15.4993 48.0437 15.4993 47.9999V45.3333C15.4993 45.2449 15.5343 45.1599 15.5977 45.0983C15.6283 45.067 15.6649 45.0423 15.7053 45.0254C15.7456 45.0085 15.7889 44.9998 15.8327 44.9999H18.4994C18.5877 44.9999 18.6727 45.0349 18.7343 45.0983C18.7656 45.1289 18.7903 45.1655 18.8072 45.2058C18.8241 45.2462 18.8328 45.2895 18.8327 45.3333ZM22.166 58.6666C22.166 57.6949 21.7794 56.7616 21.0927 56.0733C20.4043 55.3865 19.4718 55.0005 18.4994 54.9999H15.8327C14.861 54.9999 13.9277 55.3866 13.2393 56.0733C12.5526 56.7617 12.1666 57.6942 12.166 58.6666V61.3333C12.166 62.3049 12.5527 63.2383 13.2393 63.9266C13.9277 64.6133 14.861 64.9999 15.8327 64.9999H18.4994C19.471 64.9999 20.4044 64.6133 21.0927 63.9266C21.7794 63.2383 22.166 62.3049 22.166 61.3333V58.6666ZM18.8327 58.6666V61.3333C18.8328 61.377 18.8241 61.4203 18.8072 61.4607C18.7903 61.501 18.7656 61.5376 18.7343 61.5683C18.7037 61.5995 18.6671 61.6243 18.6268 61.6411C18.5864 61.658 18.5431 61.6667 18.4994 61.6666H15.8327C15.7889 61.6667 15.7456 61.658 15.7053 61.6411C15.6649 61.6243 15.6283 61.5995 15.5977 61.5683C15.5665 61.5376 15.5417 61.501 15.5248 61.4607C15.5079 61.4203 15.4993 61.377 15.4993 61.3333V58.6666C15.4993 58.5783 15.5343 58.4932 15.5977 58.4316C15.6283 58.4004 15.6649 58.3756 15.7053 58.3587C15.7456 58.3418 15.7889 58.3332 15.8327 58.3333H18.4994C18.5877 58.3333 18.6727 58.3682 18.7343 58.4316C18.7656 58.4622 18.7903 58.4988 18.8072 58.5392C18.8241 58.5795 18.8328 58.6228 18.8327 58.6666ZM35.4994 31.9999C35.4994 31.0283 35.1127 30.0949 34.426 29.4066C33.7376 28.7198 32.8051 28.3338 31.8327 28.3333H29.166C28.1944 28.3333 27.261 28.7199 26.5727 29.4066C25.8859 30.095 25.4999 31.0275 25.4994 31.9999V34.6666C25.4994 35.6383 25.886 36.5716 26.5727 37.2599C27.261 37.9466 28.1944 38.3333 29.166 38.3333H31.8327C32.8043 38.3333 33.7377 37.9466 34.426 37.2599C35.1127 36.5716 35.4994 35.6383 35.4994 34.6666V31.9999ZM32.166 31.9999V34.6666C32.1661 34.7103 32.1575 34.7537 32.1406 34.794C32.1237 34.8344 32.0989 34.8709 32.0677 34.9016C32.037 34.9328 32.0005 34.9576 31.9601 34.9745C31.9198 34.9914 31.8764 35 31.8327 34.9999H29.166C29.1223 35 29.0789 34.9914 29.0386 34.9745C28.9982 34.9576 28.9617 34.9328 28.931 34.9016C28.8998 34.8709 28.875 34.8344 28.8581 34.794C28.8412 34.7537 28.8326 34.7103 28.8327 34.6666V31.9999C28.8327 31.9116 28.8677 31.8266 28.931 31.7649C28.9617 31.7337 28.9982 31.7089 29.0386 31.692C29.0789 31.6751 29.1223 31.6665 29.166 31.6666H31.8327C31.921 31.6666 32.006 31.7016 32.0677 31.7649C32.0989 31.7956 32.1237 31.8321 32.1406 31.8725C32.1575 31.9128 32.1661 31.9562 32.166 31.9999ZM35.4994 45.3333C35.4994 44.3616 35.1127 43.4283 34.426 42.7399C33.7376 42.0531 32.8051 41.6672 31.8327 41.6666H29.166C28.1944 41.6666 27.261 42.0533 26.5727 42.7399C25.8859 43.4283 25.4999 44.3609 25.4994 45.3333V47.9999C25.4994 48.9716 25.886 49.9049 26.5727 50.5933C27.261 51.2799 28.1944 51.6666 29.166 51.6666H31.8327C32.8043 51.6666 33.7377 51.2799 34.426 50.5933C35.1127 49.9049 35.4994 48.9716 35.4994 47.9999V45.3333ZM32.166 45.3333V47.9999C32.1661 48.0437 32.1575 48.087 32.1406 48.1273C32.1237 48.1677 32.0989 48.2043 32.0677 48.2349C32.037 48.2661 32.0005 48.2909 31.9601 48.3078C31.9198 48.3247 31.8764 48.3333 31.8327 48.3333H29.166C29.1223 48.3333 29.0789 48.3247 29.0386 48.3078C28.9982 48.2909 28.9617 48.2661 28.931 48.2349C28.8998 48.2043 28.875 48.1677 28.8581 48.1273C28.8412 48.087 28.8326 48.0437 28.8327 47.9999V45.3333C28.8327 45.2449 28.8677 45.1599 28.931 45.0983C28.9617 45.067 28.9982 45.0423 29.0386 45.0254C29.0789 45.0085 29.1223 44.9998 29.166 44.9999H31.8327C31.921 44.9999 32.006 45.0349 32.0677 45.0983C32.0989 45.1289 32.1237 45.1655 32.1406 45.2058C32.1575 45.2462 32.1661 45.2895 32.166 45.3333ZM35.4994 58.6666C35.4994 57.6949 35.1127 56.7616 34.426 56.0733C33.7376 55.3865 32.8051 55.0005 31.8327 54.9999H29.166C28.1944 54.9999 27.261 55.3866 26.5727 56.0733C25.8859 56.7617 25.4999 57.6942 25.4994 58.6666V61.3333C25.4994 62.3049 25.886 63.2383 26.5727 63.9266C27.261 64.6133 28.1944 64.9999 29.166 64.9999H31.8327C32.8043 64.9999 33.7377 64.6133 34.426 63.9266C35.1127 63.2383 35.4994 62.3049 35.4994 61.3333V58.6666ZM32.166 58.6666V61.3333C32.1661 61.377 32.1575 61.4203 32.1406 61.4607C32.1237 61.501 32.0989 61.5376 32.0677 61.5683C32.037 61.5995 32.0005 61.6243 31.9601 61.6411C31.9198 61.658 31.8764 61.6667 31.8327 61.6666H29.166C29.1223 61.6667 29.0789 61.658 29.0386 61.6411C28.9982 61.6243 28.9617 61.5995 28.931 61.5683C28.8998 61.5376 28.875 61.501 28.8581 61.4607C28.8412 61.4203 28.8326 61.377 28.8327 61.3333V58.6666C28.8327 58.5783 28.8677 58.4932 28.931 58.4316C28.9617 58.4004 28.9982 58.3756 29.0386 58.3587C29.0789 58.3418 29.1223 58.3332 29.166 58.3333H31.8327C31.921 58.3333 32.006 58.3682 32.0677 58.4316C32.0989 58.4622 32.1237 58.4988 32.1406 58.5392C32.1575 58.5795 32.1661 58.6228 32.166 58.6666ZM48.8327 31.9999C48.8327 31.0283 48.446 30.0949 47.7594 29.4066C47.071 28.7198 46.1384 28.3338 45.166 28.3333H42.4994C41.5277 28.3333 40.5944 28.7199 39.906 29.4066C39.2192 30.095 38.8333 31.0275 38.8327 31.9999V34.6666C38.8327 35.6383 39.2194 36.5716 39.906 37.2599C40.5944 37.9466 41.5277 38.3333 42.4994 38.3333H45.166C46.1377 38.3333 47.071 37.9466 47.7594 37.2599C48.446 36.5716 48.8327 35.6383 48.8327 34.6666V31.9999ZM45.4994 31.9999V34.6666C45.4994 34.7103 45.4908 34.7537 45.4739 34.794C45.457 34.8344 45.4322 34.8709 45.401 34.9016C45.3704 34.9328 45.3338 34.9576 45.2934 34.9745C45.2531 34.9914 45.2098 35 45.166 34.9999H42.4994C42.4556 35 42.4123 34.9914 42.3719 34.9745C42.3316 34.9576 42.295 34.9328 42.2644 34.9016C42.2331 34.8709 42.2084 34.8344 42.1915 34.794C42.1746 34.7537 42.1659 34.7103 42.166 34.6666V31.9999C42.166 31.9116 42.201 31.8266 42.2644 31.7649C42.295 31.7337 42.3316 31.7089 42.3719 31.692C42.4123 31.6751 42.4556 31.6665 42.4994 31.6666H45.166C45.2544 31.6666 45.3394 31.7016 45.401 31.7649C45.4322 31.7956 45.457 31.8321 45.4739 31.8725C45.4908 31.9128 45.4994 31.9562 45.4994 31.9999ZM62.166 31.9999C62.166 31.0283 61.7794 30.0949 61.0927 29.4066C60.4043 28.7198 59.4718 28.3338 58.4994 28.3333H55.8327C54.861 28.3333 53.9277 28.7199 53.2394 29.4066C52.5526 30.095 52.1666 31.0275 52.166 31.9999V34.6666C52.166 35.6383 52.5527 36.5716 53.2394 37.2599C53.9277 37.9466 54.861 38.3333 55.8327 38.3333H58.4994C59.471 38.3333 60.4044 37.9466 61.0927 37.2599C61.7794 36.5716 62.166 35.6383 62.166 34.6666V31.9999ZM58.8327 31.9999V34.6666C58.8328 34.7103 58.8241 34.7537 58.8072 34.794C58.7904 34.8344 58.7656 34.8709 58.7344 34.9016C58.7037 34.9328 58.6671 34.9576 58.6268 34.9745C58.5864 34.9914 58.5431 35 58.4994 34.9999H55.8327C55.7889 35 55.7456 34.9914 55.7053 34.9745C55.6649 34.9576 55.6283 34.9328 55.5977 34.9016C55.5665 34.8709 55.5417 34.8344 55.5248 34.794C55.5079 34.7537 55.4993 34.7103 55.4994 34.6666V31.9999C55.4994 31.9116 55.5344 31.8266 55.5977 31.7649C55.6283 31.7337 55.6649 31.7089 55.7053 31.692C55.7456 31.6751 55.7889 31.6665 55.8327 31.6666H58.4994C58.5877 31.6666 58.6727 31.7016 58.7344 31.7649C58.7656 31.7956 58.7904 31.8321 58.8072 31.8725C58.8241 31.9128 58.8328 31.9562 58.8327 31.9999Z" fill="white"/>
<path id="Vector_2" fill-rule="evenodd" clip-rule="evenodd" d="M46.361 71.6666H10.4993C8.2892 71.6663 6.16955 70.7887 4.60602 69.2266C3.04393 67.6631 2.16634 65.5434 2.16602 63.3333V16.6666C2.16602 14.4565 3.04399 12.3369 4.60679 10.7741C6.1696 9.21127 8.28921 8.33329 10.4993 8.33329H15.4993V6.66663C15.4993 5.34054 16.0261 4.06877 16.9638 3.13109C17.9015 2.19341 19.1733 1.66663 20.4993 1.66663C21.8254 1.66663 23.0972 2.19341 24.0349 3.13109C24.9726 4.06877 25.4993 5.34054 25.4993 6.66663V8.33329H48.8327V6.66663C48.8327 5.34054 49.3595 4.06877 50.2971 3.13109C51.2348 2.19341 52.5066 1.66663 53.8327 1.66663C55.1588 1.66663 56.4305 2.19341 57.3682 3.13109C58.3059 4.06877 58.8327 5.34054 58.8327 6.66663V8.33329H63.8327C66.0428 8.33329 68.1624 9.21127 69.7252 10.7741C71.288 12.3369 72.166 14.4565 72.166 16.6666V45.8616C76.2377 49.2266 78.8327 54.3116 78.8327 60C78.8327 70.1183 70.6177 78.3333 60.4994 78.3333C57.7966 78.3352 55.1271 77.7383 52.6825 76.5856C50.2379 75.4329 48.079 73.753 46.361 71.6666ZM60.4994 45C68.7777 45 75.4994 51.7216 75.4994 60C75.4994 68.2783 68.7777 75 60.4994 75C52.221 75 45.4994 68.2783 45.4994 60C45.4994 51.7216 52.221 45 60.4994 45ZM68.8327 43.6683V25H5.49935V63.3333C5.49935 64.66 6.02602 65.9316 6.96435 66.8683C7.42832 67.3329 7.97936 67.7015 8.58595 67.9528C9.19253 68.2042 9.84274 68.3335 10.4993 68.3333H44.1677C42.8877 65.8333 42.166 63 42.166 60C42.166 49.8816 50.381 41.6666 60.4994 41.6666C63.4994 41.6666 66.3327 42.3883 68.8327 43.6683ZM58.8327 11.6666V13.3333C58.8327 14.6594 58.3059 15.9311 57.3682 16.8688C56.4305 17.8065 55.1588 18.3333 53.8327 18.3333C52.5066 18.3333 51.2348 17.8065 50.2971 16.8688C49.3595 15.9311 48.8327 14.6594 48.8327 13.3333V11.6666H25.4993V13.3333C25.4993 14.6594 24.9726 15.9311 24.0349 16.8688C23.0972 17.8065 21.8254 18.3333 20.4993 18.3333C19.1733 18.3333 17.9015 17.8065 16.9638 16.8688C16.0261 15.9311 15.4993 14.6594 15.4993 13.3333V11.6666H10.4993C9.17327 11.6666 7.9015 12.1934 6.96382 13.1311C6.02613 14.0688 5.49935 15.3405 5.49935 16.6666V21.6666H68.8327V16.6666C68.8327 15.3405 68.3059 14.0688 67.3682 13.1311C66.4305 12.1934 65.1588 11.6666 63.8327 11.6666H58.8327ZM55.4994 6.66663V13.3333C55.4994 13.7753 55.3238 14.1992 55.0112 14.5118C54.6986 14.8244 54.2747 15 53.8327 15C53.3907 15 52.9667 14.8244 52.6542 14.5118C52.3416 14.1992 52.166 13.7753 52.166 13.3333V6.66663C52.166 6.2246 52.3416 5.80067 52.6542 5.48811C52.9667 5.17555 53.3907 4.99996 53.8327 4.99996C54.2747 4.99996 54.6986 5.17555 55.0112 5.48811C55.3238 5.80067 55.4994 6.2246 55.4994 6.66663ZM22.166 6.66663V13.3333C22.166 13.7753 21.9904 14.1992 21.6779 14.5118C21.3653 14.8244 20.9414 15 20.4993 15C20.0573 15 19.6334 14.8244 19.3208 14.5118C19.0083 14.1992 18.8327 13.7753 18.8327 13.3333V6.66663C18.8327 6.2246 19.0083 5.80067 19.3208 5.48811C19.6334 5.17555 20.0573 4.99996 20.4993 4.99996C20.9414 4.99996 21.3653 5.17555 21.6779 5.48811C21.9904 5.80067 22.166 6.2246 22.166 6.66663Z" fill="white"/>
</g>
</g>
</svg>
