<svg width="80" height="80" viewBox="0 0 80 80" fill="none" xmlns="http://www.w3.org/2000/svg">
<g id="Frame">
<g id="Group">
<path id="Vector" d="M69.9997 23.9999H67.373C67.4929 23.3224 67.4204 22.6248 67.1639 21.9864C66.9073 21.348 66.4769 20.7943 65.9215 20.3882C65.3661 19.982 64.708 19.7397 64.0218 19.6888C63.3357 19.6378 62.649 19.7803 62.0397 20.0999C61.4263 16.7666 56.5463 16.2199 55.2197 19.3466C54.7792 19.0766 54.2863 18.9035 53.7737 18.8388C53.2611 18.7741 52.7407 18.8192 52.2469 18.9712C51.7531 19.1232 51.2973 19.3785 50.9099 19.7203C50.5224 20.062 50.2121 20.4823 49.9997 20.9532C49.4529 20.6209 48.8282 20.4389 48.1885 20.4255C47.5488 20.4121 46.917 20.5679 46.3569 20.8771C45.7967 21.1862 45.3281 21.6378 44.9985 22.1862C44.6689 22.7345 44.4899 23.3602 44.4797 23.9999H36.9663C37.393 19.7532 33.793 15.2066 33.9663 10.9999H35.8197C36.0849 10.9999 36.3392 10.8946 36.5268 10.707C36.7143 10.5195 36.8197 10.2651 36.8197 9.99991V5.07324C36.8197 4.80803 36.7143 4.55367 36.5268 4.36614C36.3392 4.1786 36.0849 4.07324 35.8197 4.07324H15.113C14.8478 4.07324 14.5934 4.1786 14.4059 4.36614C14.2184 4.55367 14.113 4.80803 14.113 5.07324V9.99991C14.113 11.3999 16.013 10.9199 16.8863 10.9999C16.3463 15.7732 10.7397 19.0599 10.6063 23.9999C10.0792 23.9283 9.54292 23.9691 9.03273 24.1197C8.52254 24.2703 8.05003 24.5273 7.64632 24.8737C7.24261 25.2201 6.91684 25.648 6.69048 26.1294C6.46412 26.6108 6.34229 27.1347 6.33301 27.6666V52.3332C6.33477 53.3052 6.72164 54.2368 7.4089 54.924C8.09615 55.6113 9.02776 55.9982 9.99967 55.9999H14.073C13.6663 58.9732 16.6597 61.3332 19.4063 59.8999C20.0197 63.2332 24.8997 63.7799 26.2263 60.6533C26.668 60.9291 27.1637 61.1069 27.68 61.1748C28.1963 61.2427 28.7211 61.199 29.219 61.0467C29.717 60.8944 30.1765 60.6371 30.5664 60.292C30.9564 59.947 31.2679 59.5223 31.4797 59.0466C32.0256 59.3706 32.647 59.5458 33.2818 59.5549C33.9166 59.564 34.5427 59.4066 35.0977 59.0984C35.6527 58.7902 36.1173 58.342 36.4452 57.7983C36.773 57.2547 36.9527 56.6346 36.9663 55.9999H44.4797C44.0597 60.2666 47.6597 64.7799 47.4797 68.9999H45.6263C45.3611 68.9999 45.1068 69.1053 44.9192 69.2928C44.7317 69.4803 44.6263 69.7347 44.6263 69.9999V74.9266C44.6263 75.1918 44.7317 75.4462 44.9192 75.6337C45.1068 75.8212 45.3611 75.9266 45.6263 75.9266H66.333C66.5982 75.9266 66.8526 75.8212 67.0401 75.6337C67.2277 75.4462 67.333 75.1918 67.333 74.9266V69.9999C67.333 68.5932 65.433 69.0799 64.553 68.9999C65.1197 64.1932 70.7463 60.8999 70.853 55.8999C71.654 55.707 72.3669 55.2505 72.8771 54.6036C73.3874 53.9567 73.6653 53.1571 73.6663 52.3332V27.6666C73.6646 26.6947 73.2777 25.7631 72.5905 25.0758C71.9032 24.3885 70.9716 24.0017 69.9997 23.9999ZM63.7597 21.6732C65.093 21.6732 65.5063 22.8599 65.373 23.9999H62.153C61.9997 22.8599 62.4597 21.6999 63.7597 21.6732ZM56.9263 20.8399C56.9263 20.412 57.0963 20.0017 57.3989 19.6991C57.7014 19.3966 58.1118 19.2266 58.5397 19.2266C58.9676 19.2266 59.3779 19.3966 59.6805 19.6991C59.983 20.0017 60.153 20.412 60.153 20.8399V23.9999H56.9263V20.8399ZM51.7063 22.3866C51.7327 21.9775 51.9138 21.5938 52.2128 21.3134C52.5118 21.033 52.9064 20.8769 53.3163 20.8769C53.7263 20.8769 54.1208 21.033 54.4199 21.3134C54.7189 21.5938 54.9 21.9775 54.9263 22.3866V23.9999H51.7063V22.3866ZM48.093 22.3866C48.5204 22.3883 48.9297 22.5589 49.2319 22.8611C49.534 23.1632 49.7046 23.5726 49.7063 23.9999H46.4797C46.4849 23.5755 46.6572 23.1703 46.9592 22.872C47.2612 22.5738 47.6686 22.4065 48.093 22.4066V22.3866ZM16.093 6.05324H34.8197V8.99991H16.113L16.093 6.05324ZM16.9597 16.0866C18.0309 14.5787 18.6946 12.8196 18.8863 10.9799H31.9997C31.6863 15.2199 35.333 19.7532 34.9997 23.9799H24.3863C24.1211 23.9799 23.8668 24.0853 23.6792 24.2728C23.4917 24.4603 23.3863 24.7147 23.3863 24.9799C23.4858 25.7514 23.4215 26.5352 23.1976 27.2801C22.9737 28.0251 22.5953 28.7144 22.087 29.3033C21.5787 29.8921 20.952 30.3671 20.2477 30.6974C19.5434 31.0276 18.7774 31.2057 17.9997 31.2199C17.7345 31.2199 17.4801 31.3253 17.2926 31.5128C17.105 31.7003 16.9997 31.9547 16.9997 32.2199V39.7932C16.9997 40.083 16.9426 40.37 16.8317 40.6377C16.7208 40.9054 16.5583 41.1487 16.3534 41.3536C16.1484 41.5585 15.9052 41.721 15.6375 41.8319C15.3697 41.9428 15.0828 41.9999 14.793 41.9999C14.5032 41.9999 14.2163 41.9428 13.9486 41.8319C13.6808 41.721 13.4376 41.5585 13.2327 41.3536C13.0278 41.1487 12.8652 40.9054 12.7543 40.6377C12.6434 40.37 12.5863 40.083 12.5863 39.7932V25.0266C12.2863 21.8199 15.333 18.5599 16.9797 16.1066L16.9597 16.0866ZM17.6663 58.3066C16.333 58.3066 15.9197 57.1199 16.053 55.9799H19.273C19.4263 57.1399 18.9863 58.2999 17.6863 58.3266L17.6663 58.3066ZM24.4997 59.1399C24.4997 59.5678 24.3297 59.9782 24.0271 60.2807C23.7246 60.5833 23.3142 60.7532 22.8863 60.7532C22.4585 60.7532 22.0481 60.5833 21.7455 60.2807C21.443 59.9782 21.273 59.5678 21.273 59.1399V55.9999H24.4997V59.1399ZM28.113 59.2066C26.273 59.1266 26.5063 57.3332 26.5197 55.9999H29.7397C29.7597 57.3332 29.9997 59.1266 28.133 59.2266L28.113 59.2066ZM33.333 57.5932C32.9126 57.5864 32.5113 57.4163 32.2139 57.119C31.9166 56.8216 31.7465 56.4203 31.7397 55.9999H34.9663C34.9637 56.2118 34.9194 56.4211 34.8359 56.6158C34.7524 56.8106 34.6314 56.9869 34.4797 57.1349C34.328 57.2829 34.1487 57.3995 33.9519 57.4781C33.7552 57.5568 33.5449 57.5959 33.333 57.5932ZM65.333 73.9266H46.6263V70.9999H65.333V73.9266ZM68.8997 54.9999C69.0197 60.3332 62.7263 63.7199 62.5397 68.9999H49.4797C49.7997 64.7533 46.1463 60.2332 46.4797 55.9999H57.0663C58.113 55.9532 58.0997 54.9932 58.0663 54.1932C58.0681 52.7581 58.639 51.3822 59.6538 50.3674C60.6686 49.3526 62.0445 48.7817 63.4797 48.7799C63.7449 48.7799 63.9992 48.6746 64.1868 48.487C64.3743 48.2995 64.4797 48.0451 64.4797 47.7799V40.2066C64.5107 39.6414 64.7571 39.1097 65.1681 38.7206C65.5792 38.3315 66.1237 38.1147 66.6897 38.1147C67.2557 38.1147 67.8002 38.3315 68.2112 38.7206C68.6223 39.1097 68.8686 39.6414 68.8997 40.2066V54.9999ZM71.6663 52.3332C71.6665 52.6122 71.5963 52.8867 71.4623 53.1314C71.3283 53.3761 71.1348 53.5831 70.8997 53.7332V40.2066C70.9997 36.5532 66.233 34.5866 63.713 37.2332C63.3202 37.6221 63.0089 38.0853 62.7971 38.5958C62.5853 39.1063 62.4774 39.6539 62.4797 40.2066V46.8732C60.7404 47.1106 59.1416 47.9569 57.9674 49.2617C56.7932 50.5665 56.1196 52.2453 56.0663 53.9999H9.99967C9.55765 53.9999 9.13372 53.8243 8.82116 53.5118C8.5086 53.1992 8.33301 52.7753 8.33301 52.3332V27.6666C8.33301 26.4732 9.44634 25.8466 10.553 25.9999V39.7932C10.4397 43.4466 15.2197 45.4199 17.733 42.7666C18.1252 42.3773 18.4362 41.914 18.6479 41.4036C18.8596 40.8932 18.9678 40.3458 18.9663 39.7932V33.1266C20.7056 32.8892 22.3044 32.043 23.4786 30.7381C24.6528 29.4333 25.3264 27.7545 25.3797 25.9999H69.9997C70.4417 25.9999 70.8656 26.1755 71.1782 26.4881C71.4908 26.8006 71.6663 27.2246 71.6663 27.6666V52.3332Z" fill="#222222"/>
<path id="Vector_2" d="M21.9067 50H14C13.7348 50 13.4804 49.8946 13.2929 49.7071C13.1054 49.5196 13 49.2652 13 49V46.52C13 46.2548 12.8946 46.0004 12.7071 45.8129C12.5196 45.6254 12.2652 45.52 12 45.52C11.7348 45.52 11.4804 45.6254 11.2929 45.8129C11.1054 46.0004 11 46.2548 11 46.52V49C11 49.7957 11.3161 50.5587 11.8787 51.1213C12.4413 51.6839 13.2044 52 14 52H21.9067C22.1719 52 22.4262 51.8946 22.6138 51.7071C22.8013 51.5196 22.9067 51.2652 22.9067 51C22.9067 50.7348 22.8013 50.4804 22.6138 50.2929C22.4262 50.1054 22.1719 50 21.9067 50ZM66 28H58.0867C57.8214 28 57.5671 28.1054 57.3796 28.2929C57.192 28.4804 57.0867 28.7348 57.0867 29C57.0867 29.2652 57.192 29.5196 57.3796 29.7071C57.5671 29.8946 57.8214 30 58.0867 30H66C66.2647 30.0017 66.518 30.1077 66.7052 30.2948C66.8923 30.482 66.9983 30.7353 67 31V33.4867C67 33.7519 67.1054 34.0062 67.2929 34.1938C67.4804 34.3813 67.7348 34.4867 68 34.4867C68.2652 34.4867 68.5196 34.3813 68.7071 34.1938C68.8946 34.0062 69 33.7519 69 33.4867V30.9933C68.9965 30.1994 68.6791 29.439 68.117 28.8783C67.555 28.3175 66.794 28.0018 66 28ZM45.5133 39.7333V40.2867C45.5133 40.5519 45.6187 40.8062 45.8062 40.9938C45.9938 41.1813 46.2481 41.2867 46.5133 41.2867C46.7785 41.2867 47.0329 41.1813 47.2204 40.9938C47.408 40.8062 47.5133 40.5519 47.5133 40.2867V39.7333C47.5133 39.4681 47.408 39.2138 47.2204 39.0262C47.0329 38.8387 46.7785 38.7333 46.5133 38.7333C46.2481 38.7333 45.9938 38.8387 45.8062 39.0262C45.6187 39.2138 45.5133 39.4681 45.5133 39.7333ZM33.4867 38.7333C33.2215 38.7333 32.9671 38.8387 32.7796 39.0262C32.592 39.2138 32.4867 39.4681 32.4867 39.7333C32.4067 40.46 32.62 41.2733 33.4867 41.2867C33.7519 41.2867 34.0062 41.1813 34.1938 40.9938C34.3813 40.8062 34.4867 40.5519 34.4867 40.2867C34.5667 39.56 34.36 38.7467 33.4867 38.7333ZM39.12 36.6667H40.88C40.9173 36.6667 40.9543 36.6741 40.9887 36.6886C41.0231 36.7031 41.0543 36.7243 41.0804 36.751C41.1065 36.7777 41.127 36.8094 41.1406 36.8441C41.1543 36.8789 41.1609 36.916 41.16 36.9533C41.16 37.2186 41.2654 37.4729 41.4529 37.6604C41.6404 37.848 41.8948 37.9533 42.16 37.9533C42.4252 37.9533 42.6796 37.848 42.8671 37.6604C43.0546 37.4729 43.16 37.2186 43.16 36.9533C43.1625 36.3677 42.9396 35.8036 42.5375 35.3779C42.1353 34.9521 41.5848 34.6975 41 34.6667C41 33.84 41.2067 32.5133 40 32.4867C38.7933 32.46 39 33.82 39 34.6667C38.4175 34.6974 37.8689 34.9502 37.4671 35.373C37.0653 35.7959 36.8409 36.3567 36.84 36.94V38.7067C36.84 39.312 37.08 39.8926 37.5074 40.3212C37.9348 40.7499 38.5147 40.9916 39.12 40.9933H40.88C40.9543 40.9933 41.0255 41.0228 41.078 41.0753C41.1305 41.1279 41.16 41.1991 41.16 41.2733V43.0667C41.16 43.1409 41.1305 43.2121 41.078 43.2647C41.0255 43.3172 40.9543 43.3467 40.88 43.3467H39.12C38.8867 43.3467 38.8133 43.1067 38.84 42.9133C38.84 42.6481 38.7346 42.3938 38.5471 42.2062C38.3596 42.0187 38.1052 41.9133 37.84 41.9133C37.6961 41.916 37.5543 41.9488 37.4239 42.0098C37.2935 42.0708 37.1774 42.1585 37.0831 42.2673C36.9888 42.376 36.9184 42.5034 36.8766 42.6411C36.8347 42.7788 36.8222 42.9238 36.84 43.0667C36.841 43.6493 37.0656 44.2093 37.4676 44.6311C37.8695 45.0529 38.4181 45.3043 39 45.3333C39 46.1667 38.7933 47.4867 40 47.52C41.2067 47.5533 41 46.1867 41 45.3333C41.5819 45.3043 42.1305 45.0529 42.5324 44.6311C42.9344 44.2093 43.159 43.6493 43.16 43.0667V41.2933C43.16 40.6886 42.9198 40.1087 42.4922 39.6811C42.0646 39.2535 41.4847 39.0133 40.88 39.0133H39.12C39.0451 39.0116 38.9739 38.9806 38.9216 38.9271C38.8693 38.8735 38.84 38.8016 38.84 38.7267V36.96C38.8382 36.9221 38.8441 36.8843 38.8574 36.8488C38.8706 36.8132 38.891 36.7808 38.9171 36.7533C38.9433 36.7259 38.9748 36.7041 39.0097 36.6892C39.0445 36.6743 39.0821 36.6666 39.12 36.6667Z" fill="#222222"/>
<path id="Vector_3" d="M39.9994 28.2466C29.7128 28.1133 24.3928 41.12 31.7261 48.3066C33.9212 50.4993 36.8969 51.7309 39.9994 51.7309C43.102 51.7309 46.0777 50.4993 48.2728 48.3066C55.6061 41.12 50.2861 28.1133 39.9994 28.2466ZM46.8528 46.9133C45.0341 48.729 42.5693 49.7488 39.9994 49.7488C37.4296 49.7488 34.9647 48.729 33.1461 46.9133C27.0594 40.9533 31.4594 30.1466 39.9994 30.2466C48.5394 30.14 52.9394 40.94 46.8528 46.9V46.9133Z" fill="#222222"/>
</g>
</g>
</svg>
