<svg width="80" height="80" viewBox="0 0 80 80" fill="none" xmlns="http://www.w3.org/2000/svg">
<g id="Frame">
<g id="Group">
<path id="Vector" d="M76.9684 48.6261C76.2451 47.4184 73.277 43.832 65.4538 48.3878L51.7015 56.3979C51.0357 56.7856 50.3587 57.0631 49.6535 57.2331C49.9102 56.8115 50.1121 56.3372 50.2523 55.8144C50.9593 53.1751 49.3912 50.42 46.6821 49.5417C46.6285 49.5245 46.5739 49.5108 46.5185 49.5006C42.5682 48.7881 38.6682 47.3783 35.5346 46.2453C34.4457 45.8514 33.4171 45.4797 32.5423 45.1959C29.0084 44.0494 25.819 45.4665 23.1651 47.0043L12.9615 52.9159L12.2367 51.635C11.3474 50.0636 9.34525 49.5083 7.77369 50.3979L3.91509 52.5818C2.34369 53.4712 1.78869 55.4733 2.67806 57.0447L14.0223 77.089C14.452 77.8483 15.1538 78.3953 15.9982 78.6293C16.2904 78.7104 16.587 78.7503 16.8815 78.7503C17.4387 78.7503 17.9885 78.607 18.4852 78.3258L22.3438 76.142C23.1032 75.7123 23.6502 75.0106 23.8843 74.1661C24.1184 73.3217 24.0107 72.4383 23.5809 71.679L22.199 69.2375L24.4951 67.9118L42.0973 72.6284C43.0949 72.8958 44.074 73.0292 45.0321 73.0292C46.9423 73.029 48.7685 72.4986 50.4873 71.4404L75.4445 56.0726C77.7323 54.6642 78.4588 51.1147 76.9684 48.6261ZM21.4749 73.4986C21.4484 73.5967 21.4027 73.6886 21.3405 73.7689C21.2782 73.8492 21.2007 73.9164 21.1123 73.9665L17.2537 76.1504C17.1652 76.2004 17.0676 76.2323 16.9667 76.2442C16.8658 76.2562 16.7635 76.2481 16.6657 76.2203C16.5676 76.1938 16.4758 76.1481 16.3954 76.0859C16.3151 76.0237 16.2479 75.9461 16.1977 75.8578L4.85353 55.8134C4.64666 55.4479 4.78072 54.9643 5.14634 54.7575L9.00478 52.5737C9.11898 52.5094 9.24792 52.4758 9.379 52.4762C9.6515 52.4762 9.92025 52.6178 10.0609 52.8664L21.4051 72.9106C21.455 72.9991 21.4868 73.0967 21.4988 73.1976C21.5108 73.2985 21.5027 73.4008 21.4749 73.4986ZM74.1334 53.944L49.1762 69.3119C47.2042 70.5259 45.0401 70.8295 42.7442 70.2137L24.6418 65.3633C24.4833 65.3208 24.3179 65.3099 24.1552 65.3313C23.9924 65.3528 23.8355 65.406 23.6934 65.4881L20.9673 67.0619L14.1927 55.0917L24.4182 49.1675C26.7046 47.8428 29.1779 46.7326 31.7709 47.5739C32.6062 47.8448 33.5693 48.1931 34.6845 48.5962C37.8832 49.7526 41.8584 51.19 45.984 51.9445C47.4051 52.4422 48.1996 53.8145 47.8371 55.1673C47.3663 56.9244 45.8835 57.1417 44.7038 57.0059C42.5581 56.5747 40.6095 56.022 38.571 55.4439C37.6571 55.1847 36.7123 54.9165 35.7182 54.6503C35.3999 54.5702 35.0628 54.6185 34.7798 54.7847C34.4967 54.951 34.2904 55.222 34.2055 55.5391C34.1205 55.8562 34.1637 56.1939 34.3257 56.4795C34.4876 56.765 34.7554 56.9754 35.0712 57.0651C36.0476 57.3267 36.9835 57.5922 37.8888 57.849C39.991 58.4451 42.0001 59.0151 44.2467 59.4643C44.2535 59.4658 44.2606 59.4673 44.2676 59.4684C44.8292 59.5804 45.4057 59.685 46.0023 59.7804C48.5673 60.1911 50.8429 59.7909 52.9595 58.5584L66.7118 50.5483C70.6549 48.2519 73.6873 48.0136 74.8235 49.9108C75.6057 51.2165 75.2574 53.252 74.1334 53.944ZM9.88306 56.0186C9.93105 56.3778 9.83554 56.7415 9.61723 57.0308C9.39892 57.3202 9.0754 57.5118 8.71677 57.5643C8.35813 57.6167 7.99328 57.5258 7.70126 57.3111C7.40923 57.0964 7.21357 56.7753 7.15666 56.4173C7.10383 56.0558 7.19675 55.6881 7.41499 55.3951C7.63322 55.1021 7.9589 54.9077 8.32041 54.8548C8.49943 54.8286 8.68187 54.8379 8.85731 54.8822C9.03274 54.9264 9.19773 55.0049 9.34285 55.1129C9.48796 55.221 9.61036 55.3566 9.70306 55.512C9.79575 55.6674 9.85692 55.8395 9.88306 56.0186ZM16.1157 43.8769L33.374 43.8767C33.4555 44.1278 33.6144 44.3467 33.828 44.5019C34.0416 44.6572 34.2989 44.7408 34.5629 44.7408H57.3935C57.6575 44.7407 57.9147 44.6571 58.1283 44.5019C58.3418 44.3467 58.5007 44.1279 58.5823 43.8769L75.8407 43.8767C76.0161 43.8767 76.1895 43.8398 76.3496 43.7684C76.5098 43.697 76.6531 43.5926 76.7704 43.4622C76.8876 43.3318 76.976 43.1781 77.03 43.0113C77.0839 42.8444 77.1022 42.6681 77.0835 42.4937C76.5601 37.6036 73.3299 33.6228 68.9721 31.9644C70.5046 30.6692 71.4804 28.7348 71.4804 26.5758C71.4804 22.6856 68.3156 19.5208 64.4254 19.5208C60.5352 19.5208 57.3704 22.6856 57.3704 26.5758C57.3704 28.7365 58.3477 30.6723 59.8824 31.9675C57.9188 32.7172 56.1715 33.9419 54.797 35.532C53.5685 34.3538 52.1158 33.4344 50.5251 32.8284C52.0576 31.5333 53.0334 29.5989 53.0334 27.4398C53.0334 23.5497 49.8685 20.3848 45.9784 20.3848C42.0882 20.3848 38.9232 23.5497 38.9232 27.4398C38.9232 29.5987 39.899 31.5333 41.4315 32.8284C39.8407 33.4344 38.388 34.3538 37.1595 35.5322C35.785 33.9421 34.0378 32.7174 32.0742 31.9678C33.609 30.6726 34.5863 28.7367 34.5863 26.5759C34.5863 22.6858 31.4215 19.5209 27.5312 19.5209C23.641 19.5209 20.4762 22.6858 20.4762 26.5759C20.4762 28.7348 21.452 30.6694 22.9845 31.9645C18.6267 33.6229 15.3963 37.6039 14.8731 42.494C14.8544 42.6684 14.8726 42.8447 14.9265 43.0116C14.9805 43.1784 15.0689 43.332 15.1861 43.4625C15.3033 43.5929 15.4467 43.6972 15.6068 43.7686C15.767 43.84 15.9404 43.8769 16.1157 43.8769ZM64.4252 22.0206C66.937 22.0206 68.9802 24.064 68.9802 26.5756C68.9802 29.0872 66.9368 31.1306 64.4252 31.1306C61.9137 31.1306 59.8702 29.0872 59.8702 26.5756C59.8702 24.064 61.9137 22.0206 64.4252 22.0206ZM64.4252 33.6308C69.1917 33.6308 73.2398 36.8758 74.354 41.3767L58.2626 41.3769C57.8854 39.9769 57.2703 38.6523 56.4441 37.4609C58.3799 35.0481 61.3023 33.6308 64.4252 33.6308ZM45.9782 22.8847C48.4899 22.8847 50.5332 24.9281 50.5332 27.4397C50.5332 29.9512 48.4898 31.9947 45.9782 31.9947C43.4667 31.9947 41.4231 29.9512 41.4231 27.4397C41.4231 24.9281 43.4665 22.8847 45.9782 22.8847ZM45.9781 34.4948C50.7445 34.4948 54.7926 37.7398 55.9068 42.2408H36.0493C37.1635 37.7398 41.2115 34.4948 45.9781 34.4948ZM22.9759 26.5756C22.9759 24.064 25.0193 22.0206 27.5309 22.0206C30.0424 22.0206 32.086 24.064 32.086 26.5756C32.086 29.0872 30.0426 31.1306 27.5309 31.1306C25.0192 31.1306 22.9759 29.0873 22.9759 26.5756ZM27.531 33.6308C30.6538 33.6308 33.576 35.0481 35.512 37.4611C34.6858 38.6524 34.0708 39.977 33.6937 41.3769L17.6023 41.377C18.7163 36.8758 22.7645 33.6308 27.531 33.6308ZM19.177 9.45701L22.5796 12.192L21.4343 16.4048C21.2567 17.0583 21.4959 17.7375 22.0437 18.1356C22.5913 18.5336 23.3115 18.5512 23.8781 18.1803L27.5307 15.7892L31.1834 18.1803C31.4462 18.3536 31.754 18.4462 32.0688 18.4467C32.4012 18.4467 32.7329 18.3426 33.0179 18.1354C33.5657 17.7373 33.8049 17.0579 33.6271 16.4047L32.4818 12.192L35.8848 9.45685C36.4124 9.03248 36.6182 8.34217 36.4088 7.69826C36.1995 7.0542 35.6273 6.61685 34.951 6.58404L30.5907 6.37154L29.0412 2.29014C28.8012 1.65795 28.2082 1.24951 27.5306 1.24951C26.8531 1.24967 26.2602 1.65811 26.0204 2.29014L24.4709 6.37154L20.1106 6.58404C19.4342 6.61685 18.862 7.05435 18.6526 7.69842C18.4434 8.34232 18.6492 9.03264 19.177 9.45701ZM25.1717 8.84045C25.4855 8.82502 25.788 8.71841 26.0422 8.53366C26.2964 8.34892 26.4912 8.09406 26.6027 7.80029L27.531 5.35545L28.4593 7.80029C28.5709 8.09417 28.7658 8.34911 29.0202 8.53387C29.2745 8.71863 29.5772 8.82517 29.8912 8.84045L32.5032 8.96764L30.4651 10.6058C30.2199 10.8026 30.0376 11.0668 29.9404 11.3658C29.8432 11.6648 29.8354 11.9857 29.9179 12.289L30.604 14.8126L28.4163 13.3806C28.1534 13.2082 27.8458 13.1164 27.5313 13.1163C27.2169 13.1163 26.9092 13.208 26.6462 13.3803L24.4581 14.8126L25.1442 12.289C25.2267 11.9857 25.2189 11.6649 25.1218 11.366C25.0246 11.067 24.8423 10.8029 24.5973 10.6061L22.5588 8.96764L25.1717 8.84045ZM37.6242 9.45701L41.0268 12.192L39.8817 16.4045C39.7038 17.0578 39.9429 17.7372 40.4906 18.1353C41.0384 18.5334 41.7584 18.5514 42.3254 18.1803L45.9779 15.7892L49.6309 18.1806C49.8936 18.3537 50.2012 18.4462 50.5159 18.4467C50.8484 18.4467 51.1801 18.3425 51.4652 18.1353C52.0129 17.7373 52.252 17.0579 52.0745 16.4047L50.9292 12.192L54.332 9.45701C54.8598 9.03264 55.0656 8.34232 54.8562 7.69826C54.647 7.05435 54.0746 6.61685 53.3984 6.58404L49.0379 6.37154L47.4884 2.29014C47.2484 1.65811 46.6556 1.24951 45.9782 1.24951H45.9781C45.3006 1.24951 44.7077 1.65795 44.4676 2.29014L42.9181 6.37154L38.5577 6.58404C37.8813 6.61685 37.309 7.05435 37.0998 7.69826C36.8906 8.34232 37.0963 9.03264 37.6242 9.45701ZM43.6176 8.84029C43.9317 8.82516 44.2345 8.71869 44.4889 8.53395C44.7433 8.34922 44.9383 8.09424 45.0499 7.80029L45.9782 5.35529L46.9065 7.80029C47.018 8.09418 47.2129 8.34912 47.4672 8.53386C47.7215 8.7186 48.0242 8.8251 48.3382 8.84029L50.9504 8.96764L48.912 10.6061C48.6669 10.8029 48.4846 11.067 48.3875 11.366C48.2904 11.6649 48.2826 11.9857 48.3651 12.289L49.0512 14.8126L46.8637 13.3808C46.6007 13.2081 46.2931 13.1161 45.9785 13.116C45.664 13.1159 45.3562 13.2078 45.0932 13.3803L42.9052 14.8126L43.5913 12.289C43.6739 11.9857 43.6661 11.6649 43.5689 11.366C43.4718 11.067 43.2895 10.8029 43.0445 10.6061L41.006 8.96764L43.6176 8.84029ZM56.0713 9.45701L59.474 12.192L58.3288 16.4045C58.151 17.0579 58.3902 17.7373 58.9379 18.1354C59.2133 18.3372 59.5457 18.4461 59.8871 18.4467C60.1935 18.4467 60.5007 18.3583 60.7726 18.1803L64.4251 15.7892L68.0777 18.1803C68.6441 18.5511 69.3643 18.5336 69.9121 18.1356C70.4599 17.7376 70.6993 17.0581 70.5217 16.4047L69.3763 12.192L72.7792 9.45701C73.307 9.03264 73.5127 8.34232 73.3034 7.69842C73.0942 7.05435 72.5218 6.61685 71.8456 6.58404L67.4852 6.37154L65.9357 2.29014C65.6957 1.65811 65.1029 1.24967 64.4254 1.24951H64.4252C63.7479 1.24951 63.1549 1.65795 62.9148 2.29014L61.3652 6.37154L57.0049 6.58404C56.3287 6.61685 55.7565 7.0542 55.5471 7.69826C55.3377 8.34217 55.5434 9.03248 56.0713 9.45701ZM62.066 8.84045C62.3799 8.82494 62.6824 8.7183 62.9365 8.53356C63.1907 8.34883 63.3855 8.09401 63.4971 7.80029L64.4254 5.35529L65.3537 7.80029C65.4653 8.09417 65.6602 8.34911 65.9145 8.53387C66.1689 8.71863 66.4716 8.82517 66.7856 8.84045L69.3976 8.96764L67.3595 10.6058C67.1143 10.8026 66.9319 11.0667 66.8347 11.3658C66.7375 11.6648 66.7297 11.9857 66.8123 12.289L67.4985 14.8128L65.3107 13.3806C65.0477 13.2082 64.7401 13.1163 64.4257 13.1162C64.1112 13.1162 63.8036 13.208 63.5406 13.3803L61.3524 14.8126L62.0385 12.289C62.1211 11.9857 62.1133 11.6649 62.0161 11.366C61.919 11.067 61.7367 10.8029 61.4917 10.6061L59.4532 8.96764L62.066 8.84045Z" fill="#222222"/>
</g>
</g>
</svg>
