<svg width="80" height="80" viewBox="0 0 80 80" fill="none" xmlns="http://www.w3.org/2000/svg">
<g id="Frame">
<g id="Group">
<path id="Vector" d="M17.5 23.75H18.75C19.7442 23.7489 20.6974 23.3534 21.4004 22.6504C22.1034 21.9474 22.4989 20.9942 22.5 20V18.75H20V20C19.9996 20.3314 19.8678 20.6491 19.6334 20.8834C19.3991 21.1178 19.0814 21.2496 18.75 21.25H17.5V23.75Z" fill="#222222"/>
<path id="Vector_2" d="M16.25 17.5C16.9404 17.5 17.5 16.9404 17.5 16.25C17.5 15.5596 16.9404 15 16.25 15C15.5596 15 15 15.5596 15 16.25C15 16.9404 15.5596 17.5 16.25 17.5Z" fill="#222222"/>
<path id="Vector_3" d="M23.75 17.5C24.4404 17.5 25 16.9404 25 16.25C25 15.5596 24.4404 15 23.75 15C23.0596 15 22.5 15.5596 22.5 16.25C22.5 16.9404 23.0596 17.5 23.75 17.5Z" fill="#222222"/>
<path id="Vector_4" d="M67.5 45C67.4996 45.3314 67.3678 45.6491 67.1334 45.8834C66.8991 46.1178 66.5814 46.2496 66.25 46.25H65V48.75H66.25C67.2442 48.7489 68.1974 48.3534 68.9004 47.6504C69.6034 46.9474 69.9989 45.9942 70 45V43.75H67.5V45Z" fill="#222222"/>
<path id="Vector_5" d="M70 26.25H65C63.0116 26.2522 61.1052 27.0431 59.6992 28.4492C58.2931 29.8552 57.5022 31.7616 57.5 33.75V44.9542L54.9117 41.9345L53.7258 36.0048C53.7214 35.9831 53.7144 35.9625 53.7091 35.9412L53.7111 35.9408L53.0558 33.3739L55.4642 32.4106C55.6962 32.3178 55.895 32.1577 56.0351 31.9508C56.1751 31.7439 56.25 31.4998 56.25 31.25V26.25C56.25 26.0032 56.1769 25.7619 56.04 25.5566L53.54 21.8066C53.4258 21.6354 53.2712 21.495 53.0898 21.3979C52.9084 21.3008 52.7058 21.25 52.5 21.25H49.96L49.8891 20.9723L50.2037 20.5525C52.3652 17.6803 53.5805 14.2074 53.6816 10.6142C53.6975 10.0394 53.549 9.47189 53.2537 8.97842C52.9584 8.48496 52.5285 8.08596 52.0144 7.82828L52.0014 7.82188C51.6351 7.64147 51.2359 7.53753 50.8281 7.51639C50.4203 7.49525 50.0125 7.55735 49.6295 7.69891C49.3661 6.79848 48.7748 6.02944 47.9723 5.54349C47.1698 5.05753 46.2144 4.88993 45.2944 5.07375L44.3628 5.26C42.6335 5.60584 41.0991 6.5933 40.0679 8.02397C39.0367 9.45465 38.5852 11.2226 38.8039 12.9725C38.8061 12.99 38.8086 13.0072 38.8116 13.0244L40.0172 20.2069L40.0214 20.2303L41.0917 25.9386L39.6969 26.2873C39.4771 26.3423 39.2764 26.4559 39.1162 26.6161C38.956 26.7762 38.8423 26.9769 38.7873 27.1967L37.6284 31.8325L34.23 34.9478L26.032 30.3934L25.3761 28.4253C26.7925 27.5224 27.9586 26.2772 28.7667 24.8046C29.5749 23.3321 29.999 21.6797 30 20V11.25C29.9974 8.93016 29.0747 6.70607 27.4343 5.06569C25.7939 3.42531 23.5698 2.50261 21.25 2.5H18.75C16.4302 2.50261 14.2061 3.42531 12.5657 5.06569C10.9253 6.70607 10.0026 8.93016 10 11.25V20C10.001 21.6797 10.4251 23.3321 11.2333 24.8046C12.0414 26.2772 13.2075 27.5224 14.6239 28.4253L13.968 30.3934L5.71469 34.9784C4.7406 35.5201 3.92895 36.3122 3.36376 37.2728C2.79857 38.2334 2.50036 39.3276 2.5 40.4422V48.75C2.5 48.949 2.54749 49.1451 2.63853 49.322C2.72957 49.4989 2.86153 49.6515 3.02344 49.7672L5 51.1789V76.25C5 76.5815 5.1317 76.8995 5.36612 77.1339C5.60054 77.3683 5.91848 77.5 6.25 77.5H35C35.3315 77.5 35.6495 77.3683 35.8839 77.1339C36.1183 76.8995 36.25 76.5815 36.25 76.25V51.25H40C40.2257 51.25 40.4472 51.1889 40.641 51.0731C40.8348 50.9574 40.9936 50.7914 41.1006 50.5927L43.4653 46.2009L45.0242 53.9952C45.0651 54.1994 45.1564 54.3901 45.2897 54.5502L51.3227 61.7898L53.767 76.4555C53.8157 76.7473 53.9663 77.0125 54.192 77.2038C54.4178 77.395 54.7041 77.5 55 77.5H76.25C76.5815 77.5 76.8995 77.3683 77.1339 77.1339C77.3683 76.8995 77.5 76.5815 77.5 76.25V53.75C77.5 53.4876 77.4175 53.2319 77.2641 53.0191C77.1107 52.8062 76.8942 52.647 76.6453 52.5641L74.7097 51.9189C76.5008 50.061 77.5011 47.5806 77.5 45V33.75C77.4978 31.7616 76.7069 29.8552 75.3008 28.4492C73.8948 27.0431 71.9884 26.2522 70 26.25ZM60 33.75C60.0015 32.4244 60.5288 31.1535 61.4661 30.2161C62.4035 29.2788 63.6744 28.7515 65 28.75H70C71.3256 28.7515 72.5965 29.2788 73.5339 30.2161C74.4712 31.1535 74.9985 32.4244 75 33.75V35H71.4039C70.2102 35.0014 69.0504 34.603 68.1096 33.8684C67.1687 33.1338 66.5009 32.1052 66.2127 30.9469C66.145 30.6764 65.9889 30.4364 65.7692 30.2648C65.5495 30.0933 65.2788 30.0001 65 30.0001C64.7212 30.0001 64.4505 30.0933 64.2308 30.2648C64.0111 30.4364 63.855 30.6764 63.7873 30.9469L63.75 31.0961C63.5244 32.0029 63.0562 32.8312 62.3955 33.492C61.7349 34.1529 60.9067 34.6213 60 34.8472V33.75ZM51.8311 23.75L53.75 26.6284V30.4037L52.4319 30.9309L50.5984 23.75H51.8311ZM42.4808 19.7812L41.2816 12.6381C41.1478 11.5182 41.4412 10.389 42.1032 9.47587C42.7652 8.56272 43.7471 7.93272 44.8531 7.71156L45.7847 7.52516C45.966 7.48891 46.1532 7.49335 46.3326 7.53816C46.512 7.58297 46.6792 7.66704 46.8222 7.78429C46.9652 7.90154 47.0805 8.04907 47.1596 8.21622C47.2387 8.38338 47.2797 8.56601 47.2797 8.75094V9.99062C46.5064 10.519 45.8742 11.2287 45.4384 12.0577C45.0026 12.8867 44.7765 13.8098 44.7797 14.7464V15.7013H47.2797V14.7464C47.2777 14.1382 47.4461 13.5416 47.7659 13.0243C48.0856 12.5069 48.544 12.0895 49.0889 11.8194C49.3087 11.7094 49.4913 11.5371 49.6138 11.3239L50.2192 10.2695C50.2849 10.1555 50.3916 10.0708 50.5175 10.0328C50.6435 9.99475 50.7792 10.0062 50.897 10.0648L50.9042 10.0683C50.9903 10.1128 51.0621 10.1806 51.1114 10.2641C51.1606 10.3475 51.1853 10.4431 51.1827 10.54C51.0961 13.6177 50.0551 16.5924 48.2038 19.0525L47.5297 19.9514C47.4175 20.1009 47.3404 20.2737 47.3038 20.457C47.2673 20.6404 47.2723 20.8295 47.3186 21.0106L51.0533 35.6369L45.9955 38.527L45.5452 36.125L48.0591 34.868C48.2667 34.7642 48.4413 34.6046 48.5633 34.4071C48.6853 34.2097 48.75 33.9821 48.75 33.75V27.5C48.75 27.2679 48.6853 27.0403 48.5633 26.8429C48.4413 26.6454 48.2667 26.4858 48.0591 26.382L45.5591 25.132C45.2923 24.9983 44.9863 24.9647 44.6969 25.0373L43.5214 25.3311L42.4808 19.7812ZM39.5947 33.4214C39.7753 33.2558 39.9033 33.0408 39.9627 32.8031L41.0308 28.5308L44.8545 27.5748L46.25 28.2725V32.9775L41.9409 35.132C41.782 35.2115 41.6419 35.3239 41.5298 35.4617L25.655 55H21.5453L15.5855 52.0202L19.2616 45.4033L23.1912 47.368C23.4176 47.4812 23.6729 47.5231 23.9236 47.488C24.1742 47.453 24.4083 47.3426 24.5948 47.1716L39.5947 33.4214ZM18.75 5H21.25C22.2171 5.00011 23.1709 5.22486 24.0363 5.65653C24.9017 6.0882 25.6549 6.715 26.2367 7.4875C25.5462 8.63892 24.5683 9.59112 23.3989 10.2507C22.2295 10.9103 20.9087 11.2547 19.5661 11.25H12.5C12.5019 9.59298 13.161 8.00437 14.3327 6.83268C15.5044 5.66099 17.093 5.0019 18.75 5ZM12.5 20V13.75H19.5661C21.0558 13.7551 22.5286 13.4349 23.8816 12.8116C25.2347 12.1884 26.4353 11.2773 27.3997 10.1419C27.466 10.5075 27.4995 10.8784 27.5 11.25V20C27.5 21.9891 26.7098 23.8968 25.3033 25.3033C23.8968 26.7098 21.9891 27.5 20 27.5C18.0109 27.5 16.1032 26.7098 14.6967 25.3033C13.2902 23.8968 12.5 21.9891 12.5 20ZM20 30C21.0532 30.0002 22.0998 29.8333 23.1008 29.5055L23.5698 30.9123L21.6161 32.8661C21.5579 32.9243 21.5055 32.9882 21.4598 33.0567L20 35.2464L18.54 33.0566C18.4943 32.988 18.442 32.9242 18.3837 32.8659L16.4302 30.9122L16.8992 29.5053C17.9001 29.8332 18.9467 30.0002 20 30ZM5 40.4422C5.00022 39.7734 5.17915 39.1169 5.51829 38.5405C5.85742 37.9642 6.34443 37.4889 6.92891 37.1639L14.7828 32.8006L16.5286 34.5464L18.9598 38.1933C19.074 38.3645 19.2286 38.5049 19.4101 38.602C19.5915 38.6991 19.7941 38.7499 19.9999 38.7499C20.2057 38.7499 20.4083 38.6991 20.5898 38.602C20.7712 38.5049 20.9259 38.3645 21.04 38.1933L23.4713 34.5464L25.2172 32.8006L32.2873 36.7284L23.5395 44.7472L19.3091 42.632L14.3091 40.132L13.1909 42.368L17.0233 44.2842L12.0873 53.1691L5 48.1066V40.4422ZM33.75 75H7.5V52.9647L11.7734 56.0172C11.9167 56.1195 12.08 56.1904 12.2526 56.2253C12.4251 56.2601 12.6031 56.2581 12.7749 56.2194C12.9466 56.1807 13.1083 56.1061 13.2492 56.0006C13.3901 55.895 13.5072 55.7609 13.5927 55.607L14.3702 54.2075L20.6909 57.368C20.8645 57.4548 21.0559 57.5 21.25 57.5H26.25C26.4359 57.5 26.6194 57.4585 26.7872 57.3787C26.955 57.2988 27.1029 57.1825 27.2202 57.0383L31.9231 51.25H33.75V75ZM39.2534 48.75H33.9544L43.2286 37.3355L43.6981 39.8398L43.1298 40.1647C42.9021 40.2949 42.721 40.4934 42.6123 40.7322C42.5036 40.971 42.4728 41.2379 42.5242 41.4952L42.6964 42.3558L39.2534 48.75ZM75 75H56.0589L53.733 61.0445C53.6965 60.8256 53.6024 60.6203 53.4603 60.4498L47.4134 53.1936L45.1525 41.8883L51.6144 38.1958L52.5242 42.7452C52.5662 42.9552 52.6614 43.1508 52.8008 43.3134L60.3008 52.0634L60.3709 52.0034C61.8971 53.5619 63.892 54.5773 66.0501 54.8942C68.2083 55.2111 70.4109 54.812 72.3206 53.758L75 54.6509V75ZM67.5 52.5C65.5116 52.4978 63.6052 51.7069 62.1992 50.3008C60.7931 48.8948 60.0022 46.9884 60 45V37.395C61.0065 37.2299 61.9697 36.8649 62.8329 36.3216C63.696 35.7783 64.4417 35.0677 65.0259 34.2317C65.7527 35.2442 66.7104 36.0689 67.8196 36.6373C68.9288 37.2057 70.1575 37.5014 71.4039 37.5H75V45C74.9978 46.9884 74.2069 48.8948 72.8008 50.3008C71.3948 51.7069 69.4884 52.4978 67.5 52.5Z" fill="#222222"/>
<path id="Vector_6" d="M63.75 42.5C64.4404 42.5 65 41.9404 65 41.25C65 40.5596 64.4404 40 63.75 40C63.0596 40 62.5 40.5596 62.5 41.25C62.5 41.9404 63.0596 42.5 63.75 42.5Z" fill="#222222"/>
<path id="Vector_7" d="M71.25 42.5C71.9404 42.5 72.5 41.9404 72.5 41.25C72.5 40.5596 71.9404 40 71.25 40C70.5596 40 70 40.5596 70 41.25C70 41.9404 70.5596 42.5 71.25 42.5Z" fill="#222222"/>
</g>
</g>
</svg>
