<svg width="81" height="80" viewBox="0 0 81 80" fill="none" xmlns="http://www.w3.org/2000/svg">
<g id="Frame">
<g id="Group">
<path id="Vector" d="M49.2501 51.12V35.8375L59.2713 31.7225C59.729 31.573 60.1523 31.3336 60.5164 31.0185C60.8805 30.7033 61.178 30.3188 61.3917 29.8872C61.6053 29.4557 61.7308 28.9859 61.7607 28.5053C61.7906 28.0247 61.7244 27.543 61.5658 27.0883C61.4073 26.6336 61.1597 26.2151 60.8375 25.8573C60.5153 25.4995 60.125 25.2095 59.6894 25.0043C59.2537 24.7992 58.7816 24.6829 58.3005 24.6625C57.8194 24.642 57.3391 24.7176 56.8876 24.885L47.7463 28.75H33.2526L24.0401 24.8588C23.6657 24.7277 23.2717 24.6614 22.8751 24.6625C21.914 24.6635 20.9925 25.0458 20.3129 25.7254C19.6333 26.405 19.2511 27.3264 19.2501 28.2875C19.2454 29.0347 19.4742 29.7647 19.9045 30.3756C20.3347 30.9864 20.945 31.4477 21.6501 31.695L31.7501 35.8375V51.12L27.4038 71.7663C27.2125 72.6725 27.3663 73.6175 27.8352 74.4163C28.3041 75.215 29.0543 75.8099 29.9389 76.0846C30.8234 76.3592 31.7786 76.2937 32.6175 75.901C33.4563 75.5082 34.1183 74.8165 34.4738 73.9613L40.4763 59.5563L46.1813 73.8175C46.5401 74.7171 47.2233 75.4494 48.0959 75.8695C48.9686 76.2897 49.9671 76.3671 50.894 76.0866C51.821 75.806 52.609 75.1879 53.1022 74.3543C53.5954 73.5208 53.7579 72.5326 53.5576 71.585L49.2501 51.12ZM22.5201 29.3513C22.295 29.2793 22.0989 29.1372 21.9604 28.9458C21.8219 28.7545 21.7482 28.5238 21.7501 28.2875C21.7507 27.9894 21.8695 27.7036 22.0803 27.4928C22.2911 27.2819 22.5769 27.1632 22.8751 27.1625C22.9632 27.162 23.0512 27.1708 23.1376 27.1888L32.5126 31.1513C32.6668 31.2166 32.8326 31.2502 33.0001 31.25H48.0001C48.1676 31.2498 48.3334 31.2158 48.4876 31.15L57.7713 27.2238C57.94 27.1679 58.1196 27.1528 58.2953 27.1797C58.4709 27.2066 58.6378 27.2747 58.782 27.3785C58.9263 27.4823 59.0439 27.6187 59.1253 27.7768C59.2066 27.9348 59.2494 28.1098 59.2501 28.2875C59.2471 28.5376 59.1624 28.7799 59.009 28.9773C58.8555 29.1748 58.6417 29.3167 58.4001 29.3813L47.5251 33.8438C47.2958 33.938 47.0997 34.0982 46.9617 34.3041C46.8237 34.5099 46.7501 34.7522 46.7501 35V50H34.2501V35C34.2501 34.7522 34.1764 34.5099 34.0384 34.3041C33.9004 34.0982 33.7043 33.938 33.4751 33.8438L22.5201 29.3513ZM50.8376 73.2438C50.6804 73.4166 50.483 73.548 50.2628 73.6261C50.0426 73.7042 49.8065 73.7267 49.5756 73.6916C49.3446 73.6565 49.1259 73.5648 48.9389 73.4247C48.7519 73.2847 48.6025 73.1006 48.5038 72.8888L41.6626 55.785C41.5699 55.5547 41.4109 55.3571 41.2057 55.2173C41.0005 55.0775 40.7583 55.0019 40.5101 55H40.5001C40.2534 55 40.0122 55.073 39.8069 55.2098C39.6015 55.3466 39.4413 55.5411 39.3463 55.7688L32.1651 73.0013C32.0752 73.187 31.9411 73.3478 31.7746 73.4697C31.6081 73.5915 31.4143 73.6707 31.21 73.7002C31.0058 73.7296 30.7975 73.7086 30.6033 73.6388C30.4092 73.5691 30.2351 73.4527 30.0963 73.3C29.9819 73.1593 29.9004 72.9948 29.8578 72.8186C29.8152 72.6423 29.8126 72.4587 29.8501 72.2813L34.0126 52.5H46.9838L51.1101 72.1C51.1526 72.2991 51.15 72.5052 51.1024 72.7031C51.0548 72.901 50.9634 73.0858 50.8351 73.2438H50.8376Z" fill="white"/>
<path id="Vector_2" d="M46.75 22.5C46.75 21.2639 46.3834 20.0555 45.6967 19.0277C45.0099 17.9999 44.0338 17.1988 42.8918 16.7258C41.7497 16.2527 40.4931 16.1289 39.2807 16.3701C38.0683 16.6112 36.9547 17.2065 36.0806 18.0806C35.2065 18.9547 34.6113 20.0683 34.3701 21.2807C34.1289 22.4931 34.2527 23.7497 34.7258 24.8918C35.1988 26.0338 35.9999 27.0099 37.0277 27.6967C38.0555 28.3834 39.2639 28.75 40.5 28.75C42.157 28.748 43.7456 28.0889 44.9172 26.9172C46.0889 25.7456 46.748 24.157 46.75 22.5ZM40.5 26.25C39.7583 26.25 39.0333 26.0301 38.4166 25.618C37.7999 25.206 37.3193 24.6203 37.0355 23.9351C36.7516 23.2498 36.6774 22.4958 36.8221 21.7684C36.9668 21.041 37.3239 20.3728 37.8484 19.8483C38.3728 19.3239 39.041 18.9667 39.7684 18.8221C40.4958 18.6774 41.2498 18.7516 41.9351 19.0355C42.6203 19.3193 43.206 19.7999 43.618 20.4166C44.0301 21.0333 44.25 21.7583 44.25 22.5C44.249 23.4943 43.8536 24.4475 43.1506 25.1506C42.4475 25.8536 41.4943 26.249 40.5 26.25ZM65.105 36.3138C62.5951 37.1567 60.3147 38.5698 58.4426 40.4421C56.5705 42.3144 55.1577 44.595 54.315 47.105C54.2558 47.2624 54.229 47.4301 54.2361 47.5981C54.2433 47.7661 54.2842 47.9309 54.3566 48.0827C54.4289 48.2345 54.5311 48.3701 54.6571 48.4815C54.7831 48.5929 54.9302 48.6777 55.0897 48.7309C55.2492 48.784 55.4178 48.8045 55.5854 48.791C55.753 48.7775 55.9162 48.7303 56.0651 48.6522C56.2141 48.5742 56.3457 48.4669 56.4522 48.3368C56.5588 48.2067 56.6379 48.0564 56.685 47.895C57.4047 45.7531 58.6108 43.8069 60.2088 42.2092C61.8067 40.6115 63.753 39.4057 65.895 38.6862C66.0508 38.6344 66.1948 38.5523 66.3189 38.4448C66.443 38.3373 66.5446 38.2063 66.6181 38.0595C66.6916 37.9127 66.7354 37.7528 66.7471 37.589C66.7588 37.4253 66.7381 37.2608 66.6863 37.105C66.6344 36.9492 66.5523 36.8052 66.4448 36.6811C66.3373 36.557 66.2063 36.4554 66.0595 36.3819C65.9127 36.3084 65.7528 36.2646 65.589 36.2529C65.4253 36.2412 65.2608 36.2619 65.105 36.3138ZM15.895 36.3138C15.5804 36.209 15.237 36.2335 14.9405 36.3819C14.644 36.5303 14.4185 36.7904 14.3138 37.105C14.209 37.4196 14.2335 37.763 14.3819 38.0595C14.5303 38.356 14.7904 38.5815 15.105 38.6862C17.247 39.4057 19.1933 40.6115 20.7912 42.2092C22.3892 43.8069 23.5953 45.7531 24.315 47.895C24.3621 48.0564 24.4412 48.2067 24.5478 48.3368C24.6543 48.4669 24.7859 48.5742 24.9349 48.6522C25.0838 48.7303 25.247 48.7775 25.4146 48.791C25.5822 48.8045 25.7508 48.784 25.9103 48.7309C26.0698 48.6777 26.217 48.5929 26.3429 48.4815C26.4689 48.3701 26.5711 48.2345 26.6434 48.0827C26.7158 47.9309 26.7567 47.7661 26.7639 47.5981C26.771 47.4301 26.7442 47.2624 26.685 47.105C25.8423 44.595 24.4295 42.3144 22.5574 40.4421C20.6853 38.5698 18.4049 37.1567 15.895 36.3138ZM10.5 26.25C9.75832 26.25 9.0333 26.4699 8.41661 26.882C7.79993 27.294 7.31928 27.8797 7.03545 28.5649C6.75162 29.2502 6.67736 30.0042 6.82206 30.7316C6.96675 31.459 7.3239 32.1272 7.84835 32.6517C8.3728 33.1761 9.04098 33.5333 9.76841 33.6779C10.4958 33.8226 11.2498 33.7484 11.9351 33.4645C12.6203 33.1807 13.206 32.7001 13.618 32.0834C14.0301 31.4667 14.25 30.7417 14.25 30C14.249 29.0057 13.8536 28.0525 13.1506 27.3494C12.4475 26.6464 11.4943 26.251 10.5 26.25ZM10.5 31.25C10.2528 31.25 10.0111 31.1767 9.80554 31.0393C9.59998 30.902 9.43976 30.7068 9.34515 30.4784C9.25054 30.2499 9.22579 29.9986 9.27402 29.7561C9.32225 29.5137 9.4413 29.2909 9.61612 29.1161C9.79093 28.9413 10.0137 28.8223 10.2561 28.774C10.4986 28.7258 10.7499 28.7505 10.9784 28.8451C11.2068 28.9398 11.402 29.1 11.5393 29.3055C11.6767 29.5111 11.75 29.7528 11.75 30C11.75 30.3315 11.6183 30.6495 11.3839 30.8839C11.1495 31.1183 10.8315 31.25 10.5 31.25ZM70.5 26.25C69.7583 26.25 69.0333 26.4699 68.4166 26.882C67.7999 27.294 67.3193 27.8797 67.0355 28.5649C66.7516 29.2502 66.6774 30.0042 66.8221 30.7316C66.9668 31.459 67.3239 32.1272 67.8484 32.6517C68.3728 33.1761 69.041 33.5333 69.7684 33.6779C70.4958 33.8226 71.2498 33.7484 71.9351 33.4645C72.6203 33.1807 73.206 32.7001 73.618 32.0834C74.0301 31.4667 74.25 30.7417 74.25 30C74.249 29.0057 73.8536 28.0525 73.1506 27.3494C72.4475 26.6464 71.4943 26.251 70.5 26.25ZM70.5 31.25C70.2528 31.25 70.0111 31.1767 69.8055 31.0393C69.6 30.902 69.4398 30.7068 69.3452 30.4784C69.2505 30.2499 69.2258 29.9986 69.274 29.7561C69.3223 29.5137 69.4413 29.2909 69.6161 29.1161C69.7909 28.9413 70.0137 28.8223 70.2561 28.774C70.4986 28.7258 70.7499 28.7505 70.9784 28.8451C71.2068 28.9398 71.402 29.1 71.5393 29.3055C71.6767 29.5111 71.75 29.7528 71.75 30C71.75 30.3315 71.6183 30.6495 71.3839 30.8839C71.1495 31.1183 70.8315 31.25 70.5 31.25ZM12.5713 18.4513L12.3088 19.9875C12.2695 20.2172 12.2953 20.4533 12.3832 20.6691C12.471 20.885 12.6175 21.072 12.806 21.209C12.9945 21.346 13.2175 21.4276 13.4499 21.4446C13.6823 21.4615 13.9149 21.4132 14.1213 21.305L15.5 20.58L16.8788 21.305C17.0851 21.4132 17.3177 21.4615 17.5501 21.4446C17.7825 21.4276 18.0056 21.346 18.194 21.209C18.3825 21.072 18.529 20.885 18.6168 20.6691C18.7047 20.4533 18.7305 20.2172 18.6913 19.9875L18.4288 18.4525L19.5438 17.365C19.7109 17.2022 19.8291 16.9959 19.8851 16.7694C19.9411 16.543 19.9326 16.3053 19.8605 16.0835C19.7884 15.8616 19.6557 15.6643 19.4774 15.5139C19.299 15.3635 19.0821 15.266 18.8513 15.2325L17.31 15.0087L16.62 13.6125C16.5052 13.4173 16.3414 13.2555 16.1449 13.143C15.9483 13.0306 15.7258 12.9714 15.4994 12.9714C15.2729 12.9714 15.0504 13.0306 14.8539 13.143C14.6573 13.2555 14.4935 13.4173 14.3788 13.6125L13.69 15.0087L12.1488 15.2325C11.9179 15.266 11.701 15.3635 11.5226 15.5139C11.3443 15.6643 11.2116 15.8616 11.1395 16.0835C11.0674 16.3053 11.0589 16.543 11.1149 16.7694C11.1709 16.9959 11.2891 17.2022 11.4563 17.365L12.5713 18.4513ZM15.5 16.9263C15.6418 17.1054 15.8298 17.2424 16.0438 17.3225C15.9178 17.5135 15.846 17.7351 15.8363 17.9638C15.6159 17.9019 15.3828 17.9019 15.1625 17.9638C15.1527 17.7351 15.081 17.5135 14.955 17.3225C15.1694 17.2426 15.3579 17.1056 15.5 16.9263ZM62.5713 18.4513L62.3087 19.9875C62.2695 20.2172 62.2953 20.4533 62.3832 20.6691C62.471 20.885 62.6175 21.072 62.806 21.209C62.9944 21.346 63.2175 21.4276 63.4499 21.4446C63.6823 21.4615 63.9149 21.4132 64.1213 21.305L65.5 20.58L66.8787 21.305C67.0851 21.4132 67.3177 21.4615 67.5501 21.4446C67.7825 21.4276 68.0056 21.346 68.194 21.209C68.3825 21.072 68.529 20.885 68.6168 20.6691C68.7047 20.4533 68.7305 20.2172 68.6913 19.9875L68.4287 18.4525L69.5438 17.365C69.7109 17.2022 69.8291 16.9959 69.8851 16.7694C69.9411 16.543 69.9326 16.3053 69.8605 16.0835C69.7884 15.8616 69.6557 15.6643 69.4774 15.5139C69.299 15.3635 69.0821 15.266 68.8512 15.2325L67.31 15.0087L66.6213 13.6125C66.5065 13.4173 66.3427 13.2555 66.1461 13.143C65.9496 13.0306 65.7271 12.9714 65.5006 12.9714C65.2742 12.9714 65.0517 13.0306 64.8551 13.143C64.6586 13.2555 64.4948 13.4173 64.38 13.6125L63.69 15.0087L62.1488 15.2325C61.9179 15.266 61.701 15.3635 61.5226 15.5139C61.3443 15.6643 61.2116 15.8616 61.1395 16.0835C61.0674 16.3053 61.0589 16.543 61.1149 16.7694C61.1709 16.9959 61.2891 17.2022 61.4562 17.365L62.5713 18.4513ZM65.5 16.9263C65.6418 17.1054 65.8298 17.2424 66.0438 17.3225C65.9178 17.5135 65.846 17.7351 65.8363 17.9638C65.6163 17.9021 65.3837 17.9021 65.1637 17.9638C65.1536 17.735 65.0814 17.5134 64.955 17.3225C65.1694 17.2426 65.3579 17.1056 65.5 16.9263ZM53 21.25C53.3315 21.25 53.6495 21.1183 53.8839 20.8839C54.1183 20.6495 54.25 20.3315 54.25 20C54.2461 18.5783 54.5242 17.17 55.0681 15.8564C55.612 14.5429 56.4109 13.3503 57.4188 12.3475L58.8838 10.8837C59.0031 10.7684 59.0984 10.6305 59.1639 10.478C59.2294 10.3255 59.2639 10.1615 59.2653 9.9955C59.2668 9.82953 59.2351 9.66493 59.1723 9.51131C59.1094 9.35769 59.0166 9.21812 58.8992 9.10076C58.7819 8.98339 58.6423 8.89057 58.4887 8.82772C58.3351 8.76487 58.1705 8.73324 58.0045 8.73469C57.8385 8.73613 57.6745 8.77061 57.522 8.83612C57.3695 8.90163 57.2316 8.99686 57.1162 9.11625L55.6512 10.58C54.4105 11.8143 53.4268 13.2824 52.7572 14.8993C52.0876 16.5162 51.7452 18.2499 51.75 20C51.75 20.3315 51.8817 20.6495 52.1161 20.8839C52.3505 21.1183 52.6685 21.25 53 21.25ZM23.5813 12.3475C24.5891 13.3503 25.388 14.5429 25.9319 15.8564C26.4758 17.17 26.7539 18.5783 26.75 20C26.75 20.3315 26.8817 20.6495 27.1161 20.8839C27.3505 21.1183 27.6685 21.25 28 21.25C28.3315 21.25 28.6495 21.1183 28.8839 20.8839C29.1183 20.6495 29.25 20.3315 29.25 20C29.2548 18.2499 28.9124 16.5162 28.2428 14.8993C27.5732 13.2824 26.5895 11.8143 25.3488 10.58L23.8838 9.11625C23.7684 8.99686 23.6305 8.90163 23.478 8.83612C23.3255 8.77061 23.1615 8.73613 22.9955 8.73469C22.8295 8.73324 22.6649 8.76487 22.5113 8.82772C22.3577 8.89057 22.2181 8.98339 22.1008 9.10076C21.9834 9.21812 21.8906 9.35769 21.8277 9.51131C21.7649 9.66493 21.7332 9.82953 21.7347 9.9955C21.7361 10.1615 21.7706 10.3255 21.8361 10.478C21.9016 10.6305 21.9969 10.7684 22.1163 10.8837L23.5813 12.3475ZM40.5 13.75C40.8315 13.75 41.1495 13.6183 41.3839 13.3839C41.6183 13.1495 41.75 12.8315 41.75 12.5V6.25C41.75 5.91848 41.6183 5.60054 41.3839 5.36612C41.1495 5.1317 40.8315 5 40.5 5C40.1685 5 39.8505 5.1317 39.6161 5.36612C39.3817 5.60054 39.25 5.91848 39.25 6.25V12.5C39.25 12.8315 39.3817 13.1495 39.6161 13.3839C39.8505 13.6183 40.1685 13.75 40.5 13.75Z" fill="white"/>
</g>
</g>
</svg>
