<svg width="81" height="80" viewBox="0 0 81 80" fill="none" xmlns="http://www.w3.org/2000/svg">
<g id="Frame" clip-path="url(#clip0_40_522)">
<g id="Group">
<path id="Vector" d="M75.2503 40.0098C76.9338 36.654 78.2588 33.2806 79.1786 29.9567C82.0625 19.5415 80.6661 10.8203 75.2455 5.40044C69.8256 -0.019716 61.1042 -1.4169 50.6892 1.46716C47.3653 2.38685 43.9919 3.71247 40.6361 5.39528C36.4613 3.29997 32.2805 1.76685 28.252 0.883565C18.8953 -1.16706 11.0091 0.436846 6.04625 5.40044C2.86094 8.5856 1.01344 13.0614 0.704687 18.3442C0.426875 23.0962 1.39 28.5498 3.48906 34.1675C1.76531 35.5304 0.65625 37.6373 0.65625 40C0.65625 42.3626 1.76531 44.4695 3.48891 45.8325C1.38984 51.4501 0.426562 56.9043 0.704531 61.6559C1.01391 66.9384 2.86078 71.4142 6.04625 74.5997C9.60344 78.1573 14.5942 79.9914 20.6228 79.9914C21.833 79.9914 23.0853 79.9176 24.377 79.7687C29.5461 79.1723 35.0692 77.4115 40.6441 74.6081C43.9972 76.2897 47.3683 77.6136 50.6892 78.5326C54.2336 79.5142 57.5819 80 60.6709 80C66.6578 80 71.67 78.175 75.2455 74.5995C80.2089 69.6368 81.8128 61.7504 79.762 52.3932C78.8789 48.3654 77.3458 44.1845 75.2503 40.0098ZM51.3156 3.72966C60.8805 1.08122 68.7894 2.26419 73.5855 7.06044C78.3816 11.8565 79.5645 19.7654 76.9161 29.3303C76.1745 32.0097 75.1559 34.7258 73.8887 37.4393C71.6184 33.3678 68.8259 29.3333 65.5905 25.485C66.5817 24.2217 67.1748 22.6317 67.1748 20.905C67.1748 19.2356 66.6348 17.6586 65.6119 16.3439L63.7587 17.7848C64.4583 18.6839 64.8275 19.7629 64.8275 20.905C64.8275 23.7101 62.5455 25.9917 59.7409 25.9917C56.9364 25.9917 54.6542 23.7101 54.6542 20.905C54.6542 18.0998 56.9362 15.8183 59.7409 15.8183C60.6541 15.8174 61.5507 16.0629 62.3361 16.5287L63.5361 14.5109C62.3875 13.8292 61.0764 13.4698 59.7408 13.4703C58.0142 13.4703 56.4242 14.064 55.1614 15.0553C51.3125 11.8198 47.2781 9.02747 43.2064 6.75638C45.92 5.48997 48.6361 4.47107 51.3156 3.72966ZM7.70625 7.0606C14.0534 0.713409 25.6917 0.950128 38.0756 6.74982C32.0302 10.1214 26.1006 14.6362 20.6911 20.0451C16.6798 24.0564 13.1495 28.3648 10.1839 32.8625C9.50379 32.6651 8.79913 32.565 8.09094 32.5653C7.22826 32.5649 6.37214 32.7151 5.56109 33.009C1.49359 21.9231 2.25531 12.5109 7.70625 7.0606ZM20.6836 77.6356C15.373 77.6356 10.8581 76.0912 7.70563 72.9395C2.25516 67.489 1.49281 58.0773 5.56094 46.9911C7.04656 47.5295 8.66533 47.5793 10.1812 47.1333C13.1469 51.6326 16.6784 55.9423 20.6909 59.9548C26.0986 65.3618 32.0264 69.8754 38.07 73.247C31.8622 76.1523 25.8898 77.6361 20.6836 77.6354V77.6356ZM40.6391 71.9695C34.2981 68.6389 28.0364 63.9795 22.3511 58.2945C18.5308 54.4739 15.1611 50.3797 12.3198 46.1097C14.2547 44.7662 15.5248 42.5292 15.5248 40.0006C15.5248 39.7803 15.5158 39.5575 15.4963 39.3384L13.1572 39.5453C13.1708 39.6953 13.1775 39.8479 13.1775 40C13.1775 42.8051 10.8953 45.0867 8.09078 45.0867C5.28625 45.0867 3.00422 42.8051 3.00422 40C3.00422 37.1948 5.28641 34.9133 8.09094 34.9133C10.0281 34.9133 11.772 35.9898 12.6411 37.7226L14.7395 36.6704C14.1658 35.5261 13.3295 34.5783 12.325 33.8818C15.1656 29.6154 18.5334 25.5231 22.3513 21.7053C28.0378 16.0187 34.3019 11.3579 40.6447 8.02732C44.9617 10.2997 49.3294 13.2293 53.5609 16.7773C52.7413 17.9977 52.3043 19.435 52.3061 20.9051C52.3061 25.0042 55.6416 28.3392 59.7408 28.3392C61.2673 28.3392 62.6869 27.8767 63.8686 27.0843C67.4166 31.3159 70.3456 35.6842 72.618 40.0006C69.2872 46.3434 64.6266 52.6073 58.9406 58.2947C58.315 58.9197 57.6722 59.5409 57.0228 60.1495C55.727 59.0533 54.0541 58.3904 52.228 58.3904C50.5586 58.3904 48.9814 58.9312 47.6667 59.9536L49.1084 61.8067C50.0069 61.1078 51.0859 60.7386 52.228 60.7379C55.0325 60.7379 57.3145 63.02 57.3145 65.8245C57.3145 68.6297 55.0325 70.9112 52.228 70.9112C49.4233 70.9112 47.1413 68.6297 47.1413 65.8245C47.1413 64.909 47.3866 64.0118 47.8517 63.23L45.8339 62.0293C45.1522 63.1779 44.7928 64.489 44.7933 65.8247C44.7923 66.963 45.0544 68.0861 45.5592 69.1064C43.9144 70.1562 42.2711 71.1108 40.6391 71.9695ZM73.5852 72.9393C68.7891 77.7362 60.8802 78.9184 51.3153 76.2706C48.6377 75.5292 45.9241 74.5117 43.2122 73.2458C44.4699 72.5422 45.7062 71.8012 46.9195 71.0236C48.2702 72.4017 50.1502 73.2592 52.2278 73.2592C56.3269 73.2592 59.6625 69.9243 59.6625 65.8251C59.6638 64.4491 59.281 63.1 58.557 61.9298C59.2489 61.2828 59.93 60.6244 60.6 59.9548C66.0094 54.5447 70.5236 48.6151 73.8958 42.5695C79.6955 54.9542 79.9322 66.5923 73.5852 72.9393Z" fill="white"/>
<path id="Vector_2" d="M59.8966 52.1302H57.4711V46.2152C57.4711 43.5993 55.7127 41.2763 53.195 40.5659L52.3173 40.3187L51.6802 42.5782L52.5578 42.826C54.0678 43.2519 55.1231 44.6454 55.1231 46.2152V52.1302H50.897V48.9216H48.5497V52.1302H37.9844V54.4776H59.8967L59.8966 52.1302Z" fill="white"/>
<path id="Vector_3" d="M44.528 40.561L49.4206 41.9416L50.0584 39.6814L45.2628 38.3289V35.2113C47.4339 33.7305 48.8628 31.2385 48.8628 28.418V24.9742C48.8628 20.4438 45.1769 16.7572 40.6456 16.7572C36.1148 16.7572 32.4284 20.4438 32.4284 24.9744V28.418C32.4284 31.2383 33.8572 33.7305 36.0283 35.2113V38.3289L28.0961 40.5658C25.5784 41.2763 23.82 43.5992 23.82 46.2152V52.1302H21.3945V54.4775H35.637V52.1302H32.7416V48.9216H30.3941V52.1302H26.168V46.2152C26.168 44.6453 27.2233 43.252 28.7333 42.826L36.763 40.5616C37.752 41.6431 39.1484 42.2699 40.6456 42.2699C42.1428 42.2699 43.5398 41.6425 44.528 40.561ZM40.6456 19.1052C43.8816 19.1052 46.5147 21.7383 46.5147 24.975V26.2824L44.047 23.0183H35.1127C35.9202 20.741 38.095 19.1052 40.6456 19.1052ZM34.7764 28.418V25.3663H42.8789L46.32 29.917C45.6553 32.4299 43.3634 34.2872 40.6456 34.2872C37.4095 34.2872 34.7764 31.6541 34.7764 28.418ZM38.3764 38.8385V36.3135C39.8588 36.7422 41.4324 36.7422 42.9148 36.3135V38.8385C42.3631 39.5216 41.5367 39.9219 40.6456 39.9219C39.7545 39.9219 38.9275 39.5216 38.3764 38.8385Z" fill="white"/>
<path id="Vector_4" d="M46.8452 46.0932L43.5384 45.1605L44.1762 42.9011L47.4824 43.8336L46.8452 46.0932ZM51.9991 45.1038L51.3613 47.3633L49.1018 46.7261L49.7396 44.4666L51.9991 45.1038ZM58.5665 19.7314H60.9138V22.0796H58.5666L58.5665 19.7314ZM51.0537 64.6516H53.401V66.9989H51.0537V64.6516ZM6.91602 38.8263H9.26414V41.1738H6.91602V38.8263Z" fill="white"/>
</g>
</g>
<defs>
<clipPath id="clip0_40_522">
<rect width="80" height="80" fill="white" transform="translate(0.5)"/>
</clipPath>
</defs>
</svg>
