<svg width="81" height="80" viewBox="0 0 81 80" fill="none" xmlns="http://www.w3.org/2000/svg">
<g id="Frame" clip-path="url(#clip0_40_417)">
<g id="Group">
<path id="Vector" d="M47.9141 58.5859C47.1328 57.8047 45.8672 57.8047 45.0859 58.5859C44.3047 59.3672 44.3047 60.6328 45.0859 61.4141L57.0859 73.4141C57.4766 73.8047 57.9883 74 58.5 74C59.0117 74 59.5234 73.8047 59.9141 73.4141L79.9141 53.4141C80.6953 52.6328 80.6953 51.3672 79.9141 50.5859C79.1328 49.8047 77.8672 49.8047 77.0859 50.5859L58.5 69.1719L47.9141 58.5859Z" fill="white"/>
<path id="Vector_2" d="M10.5 62H38.5C39.6055 62 40.5 61.1055 40.5 60C40.5 58.8945 39.6055 58 38.5 58H10.5C7.19141 58 4.5 55.3086 4.5 52V30H72.5V44C72.5 45.1055 73.3945 46 74.5 46C75.6055 46 76.5 45.1055 76.5 44V16C76.5 10.4864 72.0136 6 66.5 6H10.5C4.98641 6 0.5 10.4864 0.5 16V52C0.5 57.5136 4.98641 62 10.5 62ZM10.5 10H66.5C69.8086 10 72.5 12.6914 72.5 16V26H4.5V16C4.5 12.6914 7.19141 10 10.5 10Z" fill="white"/>
<path id="Vector_3" d="M18.5 42C17.3945 42 16.5 42.8945 16.5 44C16.5 45.1055 17.3945 46 18.5 46H26.5C27.6055 46 28.5 45.1055 28.5 44C28.5 42.8945 27.6055 42 26.5 42H18.5Z" fill="white"/>
</g>
</g>
<defs>
<clipPath id="clip0_40_417">
<rect width="80" height="80" fill="white" transform="translate(0.5)"/>
</clipPath>
</defs>
</svg>
