<svg width="81" height="80" viewBox="0 0 81 80" fill="none" xmlns="http://www.w3.org/2000/svg">
<g id="Frame" clip-path="url(#clip0_40_516)">
<g id="Group">
<path id="Vector" d="M28.2734 18.7845C28.0436 19.4919 28.2698 20.25 28.8495 20.7161L34.0112 24.8648L32.2739 31.2553C32.0789 31.9728 32.3415 32.7191 32.9436 33.1569C33.5457 33.5938 34.3362 33.613 34.9586 33.2058L40.4993 29.5788L46.0403 33.2059C46.3291 33.3963 46.6672 33.498 47.0131 33.4986C47.3878 33.498 47.7527 33.3784 48.055 33.1569C48.6573 32.7195 48.9201 31.9728 48.7247 31.2553L46.9873 24.865L52.1487 20.7164C52.7289 20.2505 52.9551 19.4922 52.7251 18.7845C52.4953 18.0767 51.8665 17.5963 51.1236 17.5603L44.509 17.2378L42.1584 11.0469C41.8945 10.3514 41.2431 9.90188 40.4992 9.90188C39.7553 9.90188 39.1039 10.3512 38.8401 11.0467L36.4893 17.238L29.8753 17.5603C29.132 17.5963 28.5033 18.0767 28.2734 18.7845ZM37.0853 19.7117C37.4302 19.695 37.7627 19.5779 38.042 19.375C38.3213 19.172 38.5353 18.8919 38.6578 18.5691L40.499 13.7198L42.3403 18.5695C42.4629 18.8922 42.677 19.1721 42.9563 19.375C43.2356 19.5779 43.568 19.6949 43.9128 19.7117L49.0936 19.9644L45.0504 23.2139C44.7813 23.4302 44.5811 23.7203 44.4744 24.0487C44.3677 24.3771 44.3592 24.7295 44.4498 25.0627L45.8106 30.068L41.4706 27.2269C41.1817 27.0378 40.8439 26.9372 40.4986 26.9372C40.1533 26.9372 39.8156 27.0379 39.5267 27.227L35.187 30.068L36.5478 25.063C36.6385 24.7297 36.63 24.3773 36.5232 24.0488C36.4165 23.7204 36.2163 23.4302 35.947 23.2139L31.904 19.9645L37.0853 19.7117ZM39.249 5.83719V1.25C39.249 0.918479 39.3807 0.600537 39.6151 0.366117C39.8496 0.131696 40.1675 0 40.499 0C40.8306 0 41.1485 0.131696 41.3829 0.366117C41.6173 0.600537 41.749 0.918479 41.749 1.25V5.83719C41.749 6.16871 41.6173 6.48665 41.3829 6.72107C41.1485 6.95549 40.8306 7.08719 40.499 7.08719C40.1675 7.08719 39.8496 6.95549 39.6151 6.72107C39.3807 6.48665 39.249 6.16871 39.249 5.83719ZM46.8614 13.2431C46.6395 12.9968 46.5247 12.6724 46.542 12.3413C46.5594 12.0103 46.7075 11.6996 46.9539 11.4778L52.0656 6.875C52.1876 6.76515 52.33 6.68041 52.4847 6.6256C52.6395 6.57079 52.8035 6.547 52.9674 6.55559C53.1314 6.56417 53.292 6.60496 53.4402 6.67562C53.5883 6.74628 53.7211 6.84544 53.831 6.96742C53.9408 7.08941 54.0256 7.23183 54.0804 7.38657C54.1352 7.54131 54.159 7.70533 54.1504 7.86926C54.1418 8.03319 54.101 8.19383 54.0304 8.342C53.9597 8.49016 53.8605 8.62296 53.7386 8.73281L48.6267 13.3356C48.3975 13.5426 48.0995 13.6571 47.7906 13.6567C47.6153 13.657 47.442 13.6203 47.2819 13.549C47.1218 13.4777 46.9785 13.3735 46.8614 13.2431ZM27.167 6.9675C27.2768 6.84549 27.4096 6.74632 27.5578 6.67564C27.706 6.60496 27.8666 6.56416 28.0306 6.55557C28.1945 6.54698 28.3585 6.57077 28.5133 6.62558C28.668 6.68039 28.8105 6.76514 28.9325 6.875L34.0443 11.4778C34.2907 11.6997 34.4388 12.0103 34.4562 12.3414C34.4735 12.6724 34.3586 12.9968 34.1368 13.2432C33.9149 13.4896 33.6043 13.6377 33.2732 13.655C32.9421 13.6724 32.6177 13.5575 32.3714 13.3356L27.2595 8.73281C27.0131 8.51098 26.865 8.20037 26.8477 7.86931C26.8303 7.53825 26.9452 7.21386 27.167 6.9675ZM56.5356 20.7161L61.6973 24.8648L59.96 31.2553C59.765 31.9728 60.0276 32.7191 60.6297 33.1569C61.2314 33.5938 62.022 33.6128 62.6447 33.2058L68.1854 29.5788L73.7264 33.2059C74.0152 33.3963 74.3533 33.498 74.6992 33.4986C75.0739 33.498 75.4388 33.3784 75.7411 33.1569C76.3431 32.7198 76.6059 31.9734 76.4107 31.2553L74.6734 24.865L79.8348 20.7164C80.4148 20.2506 80.6411 19.4923 80.4111 18.7845C80.1812 18.0767 79.5525 17.5963 78.8097 17.5603L72.1951 17.2378L69.8447 11.0469C69.5807 10.3514 68.9293 9.90188 68.1854 9.90188C67.4414 9.90188 66.79 10.3512 66.5261 11.0467L64.1756 17.2378L57.5615 17.5602C56.8181 17.5961 56.1893 18.0767 55.9595 18.7845C55.7295 19.4922 55.9557 20.2505 56.5356 20.7161ZM64.7712 19.7117C65.1162 19.695 65.4488 19.5779 65.7282 19.3749C66.0076 19.1719 66.2217 18.8918 66.3442 18.5689L68.1853 13.7197L70.0262 18.5687C70.1487 18.8916 70.3628 19.1718 70.6422 19.3748C70.9215 19.5778 71.2541 19.6948 71.599 19.7116L76.7798 19.9642L72.7372 23.2134C72.4678 23.4297 72.2675 23.7198 72.1607 24.0483C72.054 24.3768 72.0454 24.7292 72.1361 25.0625L73.4968 30.0678L69.1568 27.2267C68.868 27.0375 68.5302 26.9368 68.1849 26.9368C67.8396 26.9368 67.5018 27.0377 67.2129 27.2269L62.8732 30.0678L64.234 25.0628C64.3247 24.7296 64.3161 24.3771 64.2094 24.0487C64.1027 23.7202 63.9024 23.4301 63.6332 23.2137L59.5903 19.9642L64.7712 19.7117ZM1.16309 20.7161L6.32481 24.8648L4.58747 31.2553C4.39247 31.9728 4.65512 32.7191 5.25716 33.1569C5.85934 33.5938 6.64981 33.613 7.27216 33.2058L12.8129 29.5788L18.3539 33.2059C18.6427 33.3963 18.9808 33.498 19.3267 33.4986C19.7014 33.498 20.0663 33.3784 20.3686 33.1569C20.9706 32.7198 21.2334 31.9734 21.0382 31.2553L19.3009 24.865L24.4623 20.7164C25.042 20.2509 25.2684 19.4928 25.0386 18.7838C24.8082 18.0764 24.1795 17.5961 23.4372 17.5602L16.8226 17.2377L14.4722 11.0469C14.2083 10.3514 13.5568 9.90188 12.8129 9.90188C12.0689 9.90188 11.4175 10.3512 11.1536 11.0467L8.80309 17.2378L2.18903 17.5602C1.44575 17.5961 0.817 18.0767 0.587312 18.7838C0.356843 19.4917 0.582937 20.2503 1.16309 20.7161ZM9.39872 19.7117C9.74368 19.695 10.0763 19.5779 10.3557 19.3749C10.6351 19.1719 10.8492 18.8918 10.9717 18.5689L12.8128 13.7197L14.6537 18.5687C14.7762 18.8916 14.9903 19.1718 15.2697 19.3748C15.549 19.5778 15.8816 19.6948 16.2265 19.7116L21.4073 19.9642L17.3647 23.2134C17.0954 23.4297 16.895 23.7198 16.7882 24.0483C16.6815 24.3768 16.6729 24.7292 16.7636 25.0625L18.1243 30.0678L13.7843 27.2267C13.4955 27.0375 13.1577 26.9368 12.8124 26.9368C12.4671 26.9368 12.1293 27.0377 11.8404 27.2269L7.50075 30.0678L8.86153 25.0628C8.95216 24.7296 8.94359 24.3771 8.83687 24.0487C8.73016 23.7202 8.52994 23.4301 8.26075 23.2137L4.21778 19.9642L9.39872 19.7117ZM80.3023 66.3958C79.4228 63.5555 77.6214 61.0052 75.2297 59.2142C74.1003 58.3674 72.8508 57.694 71.5225 57.2162C73.3461 55.785 74.5211 53.5631 74.5211 51.0705C74.5211 46.7633 71.0168 43.2592 66.7098 43.2592C62.4026 43.2592 58.8984 46.7633 58.8984 51.0705C58.8984 53.5602 60.0706 55.7798 61.8906 57.2113C59.4514 58.0819 57.2904 59.6116 55.6356 61.6728C54.8561 60.5819 53.9614 59.5781 52.967 58.6787C50.967 56.8684 48.5963 55.516 46.0201 54.7156C48.7287 52.92 50.5193 49.8455 50.5193 46.3594C50.5193 40.8344 46.0242 36.3394 40.4992 36.3394C34.9742 36.3394 30.479 40.8344 30.479 46.3594C30.479 49.8455 32.2695 52.92 34.9781 54.7156C32.4018 55.5159 30.0311 56.8684 28.0311 58.6787C27.0367 59.5781 26.1421 60.5818 25.3626 61.6727C23.7079 59.6112 21.547 58.0816 19.1076 57.2108C20.9275 55.7794 22.0998 53.5597 22.0998 51.07C22.0998 46.7628 18.5956 43.2587 14.2886 43.2587C9.98137 43.2587 6.47716 46.7628 6.47716 51.07C6.47716 53.5625 7.65216 55.7845 9.47559 57.2158C8.14725 57.6935 6.8977 58.3669 5.76825 59.2137C3.37653 61.0045 1.57512 63.555 0.695593 66.3952C0.289187 67.707 0.514343 69.0384 1.3295 70.1444C2.1445 71.25 3.34981 71.8587 4.72325 71.8587H22.0034V74.1147C22.0034 77.36 24.6436 80.0002 27.8889 80.0002H53.1092C56.3543 80.0002 58.9947 77.36 58.9948 74.1147V71.8594H76.2748C77.6484 71.8594 78.8537 71.2505 79.6686 70.145C80.4836 69.0391 80.7087 67.7075 80.3023 66.3958ZM66.7098 45.7592C69.6384 45.7592 72.0211 48.1419 72.0211 51.0705C72.0211 53.9992 69.6384 56.3819 66.7098 56.3819C63.7811 56.3819 61.3984 53.9992 61.3984 51.0705C61.3984 48.1419 63.7811 45.7592 66.7098 45.7592ZM32.979 46.3594C32.979 42.2128 36.3526 38.8394 40.4992 38.8394C44.6457 38.8394 48.0193 42.2128 48.0193 46.3594C48.0193 50.5047 44.6479 53.8772 40.5033 53.8794H40.495C36.3503 53.877 32.979 50.5045 32.979 46.3594ZM14.2886 45.7586C17.2172 45.7586 19.5998 48.1412 19.5998 51.0698C19.5998 53.9986 17.2172 56.3812 14.2886 56.3812C11.3598 56.3812 8.97716 53.9986 8.97716 51.0698C8.97716 48.1412 11.3598 45.7586 14.2886 45.7586ZM22.1658 69.3586H4.72341C4.14809 69.3586 3.68341 69.1239 3.342 68.6608C3.00044 68.1977 2.91372 67.6842 3.08387 67.1347C4.61262 62.198 9.11559 58.8812 14.2886 58.8812C18.2015 58.8812 21.7661 60.7719 23.9584 63.9723C23.0873 65.6648 22.4826 67.4816 22.1658 69.3586ZM56.4948 74.1145C56.4947 75.9813 54.9759 77.5 53.1092 77.5H27.8889C26.0222 77.5 24.5034 75.9813 24.5034 74.1145V70.6766C25.4084 62.5222 32.2715 56.3814 40.495 56.3794L40.4992 56.3795L40.5033 56.3794C48.7265 56.3816 55.5895 62.5222 56.4948 70.6766V74.1145ZM77.6562 68.6616C77.3148 69.1245 76.8503 69.3592 76.2748 69.3592H58.8326C58.5156 67.4822 57.911 65.6653 57.04 63.9727C59.2325 60.7723 62.7968 58.8819 66.7097 58.8819C71.8826 58.8819 76.3856 62.1987 77.9143 67.1355C78.0845 67.6847 77.9976 68.1981 77.6562 68.6616Z" fill="white"/>
</g>
</g>
<defs>
<clipPath id="clip0_40_516">
<rect width="80" height="80" fill="white" transform="translate(0.5)"/>
</clipPath>
</defs>
</svg>
