<svg width="80" height="80" viewBox="0 0 80 80" fill="none" xmlns="http://www.w3.org/2000/svg">
<g id="Group">
<path id="Vector" d="M79.9238 78.412L68.2332 47.6312C68.1487 47.4091 67.9988 47.2178 67.8031 47.0829C67.6075 46.9479 67.3755 46.8756 67.1378 46.8755L50.8083 46.872L58.8469 34.1264C61.0835 30.5773 62.2658 26.4759 62.2658 22.2656C62.2657 9.98828 52.2774 0 40 0C27.7227 0 17.7344 9.98828 17.7344 22.2656C17.7344 26.477 18.9172 30.5786 21.155 34.1267L29.1886 46.8677L12.8613 46.8642C12.6235 46.8642 12.3913 46.9365 12.1956 47.0715C11.9999 47.2065 11.8499 47.3979 11.7655 47.6202L5.42941 64.3109C5.32156 64.6009 5.33279 64.9218 5.46064 65.2036C5.58849 65.4854 5.82258 65.7051 6.11185 65.815C6.40112 65.9248 6.72208 65.9158 7.00471 65.7898C7.28734 65.6639 7.50871 65.4313 7.6205 65.1428L13.6694 49.2081L30.6664 49.2117L32.1444 51.5556L27.9261 51.5547C27.6532 51.5547 27.3888 51.6499 27.1786 51.824C26.9684 51.998 26.8255 52.24 26.7746 52.5081L24.4894 64.5472C24.4572 64.7166 24.4629 64.891 24.5059 65.058C24.5488 65.225 24.6282 65.3804 24.7381 65.5132C24.8481 65.646 24.986 65.7529 25.1421 65.8263C25.2981 65.8996 25.4684 65.9377 25.6408 65.9377H54.3591C54.5315 65.9376 54.7018 65.8995 54.8577 65.826C55.0137 65.7526 55.1516 65.6457 55.2615 65.5129C55.3715 65.3801 55.4508 65.2247 55.4938 65.0577C55.5368 64.8908 55.5424 64.7164 55.5103 64.547L53.2253 52.5119C53.1744 52.2438 53.0316 52.0019 52.8214 51.8279C52.6113 51.6538 52.347 51.5586 52.0741 51.5586H47.8524L49.33 49.2156L66.3288 49.2192L77.1296 77.6562H2.87019L5.80378 69.9284C5.85841 69.7846 5.88416 69.6313 5.87957 69.4775C5.87498 69.3237 5.84013 69.1722 5.77701 69.0319C5.7139 68.8915 5.62375 68.765 5.51172 68.6594C5.3997 68.5539 5.26798 68.4715 5.1241 68.4169C4.98023 68.3622 4.82701 68.3365 4.67318 68.341C4.51935 68.3456 4.36794 68.3805 4.22758 68.4436C4.08723 68.5067 3.96068 68.5969 3.85518 68.7089C3.74967 68.8209 3.66727 68.9527 3.61269 69.0966L0.0764397 78.4122C0.00900941 78.5896 -0.0143128 78.7807 0.00847935 78.9691C0.0312715 79.1575 0.0994957 79.3376 0.207283 79.4938C0.31507 79.65 0.459193 79.7777 0.627252 79.8659C0.795312 79.9541 0.982278 80.0001 1.17206 80H78.8283C79.0181 80 79.205 79.9539 79.3731 79.8657C79.5411 79.7775 79.6852 79.6498 79.793 79.4936C79.9007 79.3373 79.9688 79.1573 79.9916 78.9689C80.0144 78.7805 79.9911 78.5894 79.9238 78.412ZM23.1374 32.8764C21.1361 29.7031 20.0782 26.0339 20.0782 22.2656C20.0782 11.2806 29.015 2.34375 40 2.34375C50.985 2.34375 59.9219 11.2806 59.9219 22.2656C59.9219 26.0331 58.8644 29.7025 56.8643 32.8764C56.7777 33.0136 41.1172 57.8456 40.9975 58.0336C40.995 58.0372 40.9928 58.0409 40.9905 58.0445C40.7732 58.3883 40.403 58.5938 40 58.5938C39.8017 58.5936 39.6067 58.5432 39.4331 58.4472C39.2595 58.3513 39.113 58.213 39.0074 58.0452C33.7171 49.6557 28.4271 41.2661 23.1374 32.8764ZM51.1039 53.9023L52.9439 63.5938H27.0561L28.8964 53.8986L33.6227 53.8997L37.0274 59.2992C37.6794 60.325 38.7908 60.9375 40 60.9375C41.2119 60.9375 42.3228 60.3239 42.9721 59.2961C43.0316 59.2023 46.3744 53.9022 46.3744 53.9022H51.1039V53.9023Z" fill="white"/>
<path id="Vector_2" d="M23.5994 69.2347L22.7097 73.9222C22.6776 74.0916 22.6832 74.266 22.7262 74.433C22.7692 74.6 22.8485 74.7554 22.9584 74.8882C23.0684 75.021 23.2063 75.1279 23.3624 75.2013C23.5184 75.2746 23.6887 75.3127 23.8611 75.3127H72.0333C72.2231 75.3126 72.41 75.2665 72.578 75.1783C72.746 75.09 72.89 74.9623 72.9978 74.8062C73.1056 74.65 73.1738 74.47 73.1966 74.2816C73.2195 74.0932 73.1963 73.9021 73.1289 73.7247L71.3486 69.0372C71.2642 68.815 71.1142 68.6236 70.9185 68.4887C70.7228 68.3537 70.4907 68.2814 70.253 68.2814H24.7508C24.4779 68.2814 24.2136 68.3766 24.0034 68.5506C23.7931 68.7246 23.6503 68.9666 23.5994 69.2347ZM25.7211 70.625H69.4446L70.3346 72.9688H25.2763L25.7211 70.625ZM8.64878 69.0372L6.86941 73.7247C6.80198 73.9021 6.77866 74.0932 6.80145 74.2816C6.82424 74.47 6.89246 74.6501 7.00025 74.8063C7.10804 74.9625 7.25216 75.0902 7.42022 75.1784C7.58828 75.2666 7.77525 75.3126 7.96503 75.3125H19.0899C19.3628 75.3125 19.6272 75.2173 19.8374 75.0432C20.0476 74.8692 20.1904 74.6272 20.2413 74.3591L21.131 69.6716C21.1631 69.5022 21.1575 69.3278 21.1145 69.1608C21.0715 68.9939 20.9922 68.8385 20.8822 68.7057C20.7722 68.5729 20.6343 68.466 20.4783 68.3926C20.3223 68.3193 20.152 68.2812 19.9796 68.2812H9.74441C9.50667 68.2813 9.27455 68.3536 9.07887 68.4886C8.88318 68.6236 8.73319 68.8149 8.64878 69.0372ZM18.5643 70.625L18.1194 72.9688H9.66331L10.553 70.625H18.5643ZM23.1547 51.5537L16.095 51.5522C15.8573 51.5521 15.6251 51.6244 15.4294 51.7595C15.2337 51.8945 15.0836 52.0858 14.9993 52.3081L10.4282 64.3495C10.3607 64.5269 10.3374 64.7181 10.3602 64.9065C10.383 65.0949 10.4512 65.2749 10.559 65.4312C10.6668 65.5874 10.8109 65.715 10.979 65.8032C11.147 65.8914 11.334 65.9374 11.5238 65.9373H20.8693C21.1422 65.9374 21.4065 65.8421 21.6167 65.6681C21.8269 65.494 21.9698 65.252 22.0207 64.9839L24.306 52.9439C24.3381 52.7745 24.3324 52.6002 24.2894 52.4333C24.2464 52.2663 24.1671 52.1109 24.0572 51.9782C23.9472 51.8454 23.8093 51.7385 23.6533 51.6652C23.4974 51.5918 23.3271 51.5538 23.1547 51.5537ZM19.8988 63.5938H13.2221L16.9035 53.8963L21.7394 53.8973L19.8988 63.5938ZM59.1303 65.9375H68.4727C68.6624 65.9374 68.8493 65.8913 69.0173 65.8031C69.1853 65.7149 69.3294 65.5872 69.4372 65.431C69.5449 65.2748 69.6132 65.0948 69.636 64.9064C69.6589 64.7181 69.6356 64.5269 69.5683 64.3495L64.9988 52.3181C64.9144 52.096 64.7644 51.9047 64.5688 51.7697C64.3732 51.6348 64.1411 51.5624 63.9035 51.5623L56.8453 51.5608C56.6729 51.5607 56.5026 51.5988 56.3465 51.6721C56.1904 51.7455 56.0525 51.8524 55.9425 51.9852C55.8325 52.1181 55.7532 52.2735 55.7102 52.4405C55.6672 52.6075 55.6616 52.782 55.6938 52.9514L57.9791 64.9844C58.03 65.2524 58.1728 65.4944 58.383 65.6684C58.5932 65.8424 58.8575 65.9376 59.1303 65.9375ZM63.0946 53.9059L66.7741 63.5938H60.1007L58.2605 53.9048L63.0946 53.9059ZM39.9997 35.1562C47.1075 35.1562 52.8903 29.3734 52.8903 22.2656C52.8903 15.1578 47.1075 9.375 39.9997 9.375C32.8918 9.375 27.1091 15.1578 27.1091 22.2656C27.1091 29.3734 32.8918 35.1562 39.9997 35.1562ZM39.9997 11.7188C45.8153 11.7188 50.5466 16.45 50.5466 22.2656C50.5466 28.0812 45.8153 32.8125 39.9997 32.8125C34.1841 32.8125 29.4528 28.0812 29.4528 22.2656C29.4528 16.45 34.1841 11.7188 39.9997 11.7188Z" fill="white"/>
<path id="Vector_3" d="M40 30.4688C44.5231 30.4688 48.2031 26.7887 48.2031 22.2656C48.2031 17.7425 44.5231 14.0625 40 14.0625C35.4767 14.0625 31.7969 17.7425 31.7969 22.2656C31.7969 26.7887 35.4767 30.4688 40 30.4688ZM40 16.4062C43.2309 16.4062 45.8594 19.0347 45.8594 22.2656C45.8594 25.4966 43.2309 28.125 40 28.125C36.7691 28.125 34.1406 25.4966 34.1406 22.2656C34.1406 19.0347 36.7691 16.4062 40 16.4062Z" fill="white"/>
</g>
</svg>
