<svg width="80" height="80" viewBox="0 0 80 80" fill="none" xmlns="http://www.w3.org/2000/svg">
<g id="Frame" clip-path="url(#clip0_40_533)">
<g id="Group">
<path id="Vector" d="M39.9991 20.819L49.4982 12.9032H61.9345V0H30.9668V12.9032H39.9991V20.819ZM33.5474 10.3226V2.58065H59.3539V10.3226H48.5644L42.5797 15.31V10.3226H33.5474Z" fill="white"/>
<path id="Vector_2" d="M36.129 5.16132H38.7097V7.74196H36.129V5.16132ZM41.2903 5.16132H51.6129V7.74196H41.2903V5.16132ZM54.1935 5.16132H56.7742V7.74196H54.1935V5.16132ZM65.6835 77.4194L64.6403 66.9739C68.9484 66.2929 72.2581 62.5624 72.2581 58.0645V41.2903H67.0968V39.5073C67.0968 37.7533 66.1327 36.1782 64.5829 35.3705C66.1242 33.9549 67.0968 31.9305 67.0968 29.6774V27.0968C67.0968 22.827 63.6247 19.3549 59.3548 19.3549C55.085 19.3549 51.6129 22.827 51.6129 27.0968V29.6774C51.6129 33.0178 53.7431 35.862 56.7137 36.9457L49.7882 43.871H42.5523C42.4081 41.72 40.9306 39.8452 38.8376 39.2465L33.5484 37.7368V35.4323C35.1279 34.0141 36.129 31.9639 36.129 29.6774V27.0968C36.129 22.827 32.6569 19.3549 28.3871 19.3549C24.1173 19.3549 20.6452 22.827 20.6452 27.0968V29.6774C20.6452 31.9626 21.6463 34.0128 23.2258 35.4323V37.7383L17.9366 39.2478C15.7327 39.8758 14.1935 41.9171 14.1935 44.2107V49.0323H9.03226V56.7742H11.6129V77.4194H0V80H80V77.4194H65.6835ZM54.1935 56.7742V50.8568L63.3368 41.7137C63.9976 41.0528 64.3908 40.165 64.479 39.2389C64.4903 39.3291 64.5161 39.4141 64.5161 39.5073V55.4839C64.5161 57.6178 62.779 59.3549 60.6452 59.3549H50.3226V56.7742H54.1935ZM50.3226 67.0968H56.8971L57.929 77.4194H50.3226V67.0968ZM59.4903 67.0968H62.0584L63.0903 77.4194H60.5223L59.4903 67.0968ZM67.0968 55.4839V43.871H69.6774V58.0645C69.6774 61.6218 66.7831 64.5162 63.2258 64.5162H50.3226V61.9355H60.6452C64.2024 61.9355 67.0968 59.0412 67.0968 55.4839ZM54.1935 29.6774V27.0968C54.1935 24.2503 56.5084 21.9355 59.3548 21.9355C62.2013 21.9355 64.5161 24.2503 64.5161 27.0968V29.6774C64.5161 32.5239 62.2013 34.8387 59.3548 34.8387C56.5084 34.8387 54.1935 32.5239 54.1935 29.6774ZM50.8568 46.4516L59.4656 37.8428C59.7377 37.5724 60.1054 37.4203 60.4889 37.4194C61.2866 37.4194 61.9355 38.0682 61.9355 38.866C61.9346 39.2495 61.7824 39.6172 61.5121 39.8892L52.3689 49.0323H38.7097C37.9977 49.0323 37.4194 48.4539 37.4194 47.742C37.4194 47.03 37.9977 46.4516 38.7097 46.4516H50.8568ZM23.2258 27.0968C23.2258 24.2503 25.5406 21.9355 28.3871 21.9355C31.2335 21.9355 33.5484 24.2503 33.5484 27.0968V29.6774C33.5484 32.5239 31.2335 34.8387 28.3871 34.8387C25.5406 34.8387 23.2258 32.5239 23.2258 29.6774V27.0968ZM28.3871 37.4194C29.2931 37.4194 30.1587 37.2544 30.9677 36.9678V38.3537C30.6477 38.8476 29.7587 40 28.3871 40C27.0155 40 26.1265 38.8476 25.8064 38.3537V36.9676C26.6155 37.2544 27.4811 37.4194 28.3871 37.4194ZM16.7742 44.2105C16.7742 43.0633 17.5447 42.0439 18.6455 41.7289L23.9611 40.2105C24.7095 41.1858 26.1661 42.5807 28.3871 42.5807C30.6081 42.5807 32.0645 41.1858 32.8131 40.2092L38.1287 41.7276C39.1174 42.0105 39.8066 42.8699 39.9445 43.8697H38.7097C36.5758 43.8697 34.8387 45.6068 34.8387 47.7407C34.8387 48.195 34.9313 48.6258 35.0763 49.031H16.7742V44.2105ZM11.6129 51.6129H51.6129V54.1936H11.6129V51.6129ZM14.1935 61.9355H18.0645V59.3549H14.1935V56.7742H47.7419V59.3549H20.6452V61.9355H47.7419V77.4194H44.6685L42.0879 72.2581H19.8476L17.2669 77.4194H14.1935V61.9355ZM41.7831 77.4194H20.1524L21.4427 74.8387H40.4927L41.7831 77.4194Z" fill="white"/>
</g>
</g>
<defs>
<clipPath id="clip0_40_533">
<rect width="80" height="80" fill="white"/>
</clipPath>
</defs>
</svg>
