<svg width="18" height="18" viewBox="0 0 18 18" fill="none" xmlns="http://www.w3.org/2000/svg">
<g id="Frame" clip-path="url(#clip0_40_442)">
<g id="Group">
<path id="Vector" fill-rule="evenodd" clip-rule="evenodd" d="M10.6364 1.20888C10.1926 0.793417 9.6074 0.562256 8.99948 0.562256C8.39157 0.562256 7.8064 0.793417 7.36261 1.20888L6.56526 1.95531C6.3407 2.16574 6.04737 2.28746 5.7398 2.29788L4.64798 2.33388C4.04047 2.35396 3.46332 2.60427 3.0335 3.03409C2.60369 3.4639 2.35338 4.04105 2.3333 4.64856L2.2973 5.7401C2.2871 6.04783 2.16546 6.34137 1.95501 6.56613L1.20886 7.36347C0.793561 7.80723 0.5625 8.39228 0.5625 9.00006C0.5625 9.60785 0.793561 10.1929 1.20886 10.6367L1.95501 11.4343C2.16539 11.659 2.28689 11.9526 2.2973 12.2603L2.3333 13.3518C2.35338 13.9594 2.60369 14.5365 3.0335 14.9663C3.46332 15.3961 4.04047 15.6465 4.64798 15.6665L5.7398 15.7025C6.04742 15.7128 6.34085 15.8345 6.56555 16.0448L7.36317 16.791C7.80693 17.2063 8.39198 17.4373 8.99976 17.4373C9.60754 17.4373 10.1926 17.2063 10.6364 16.791L11.434 16.0448C11.6588 15.8344 11.9523 15.7128 12.26 15.7025L13.3515 15.6665C13.9591 15.6465 14.5362 15.3961 14.966 14.9663C15.3958 14.5365 15.6462 13.9594 15.6662 13.3518L15.7022 12.2603C15.7125 11.9526 15.8341 11.6591 16.0445 11.4343L16.791 10.6367C17.2063 10.1929 17.4373 9.60785 17.4373 9.00006C17.4373 8.39228 17.2063 7.80723 16.791 7.36347L16.0445 6.56585C15.8342 6.34115 15.7125 6.04772 15.7022 5.7401L15.6662 4.64828C15.6462 4.04077 15.3958 3.46362 14.966 3.0338C14.5362 2.60399 13.9591 2.35368 13.3515 2.3336L12.26 2.2976C11.9523 2.2874 11.6587 2.16576 11.434 1.95531L10.6364 1.20888ZM8.13155 2.03013C8.36688 1.80986 8.67715 1.68731 8.99948 1.68731C9.32181 1.68731 9.63209 1.80986 9.86742 2.03013L10.665 2.77685C11.0889 3.1734 11.6422 3.40257 12.2223 3.42175L13.3141 3.45803C13.6363 3.46871 13.9423 3.60144 14.1702 3.82935C14.3981 4.05725 14.5308 4.36328 14.5415 4.68541L14.5778 5.77722C14.597 6.35731 14.8261 6.91069 15.2227 7.3345L15.9691 8.13213C16.1894 8.36746 16.312 8.67773 16.312 9.00006C16.312 9.3224 16.1894 9.63267 15.9691 9.868L15.2227 10.6656C14.826 11.0894 14.5968 11.6428 14.5775 12.2229L14.5415 13.3147C14.5308 13.6369 14.3981 13.9429 14.1702 14.1708C13.9423 14.3987 13.6363 14.5314 13.3141 14.5421L12.2223 14.5784C11.6421 14.5975 11.0886 14.8267 10.6648 15.2233L9.86742 15.9697C9.63209 16.19 9.32181 16.3125 8.99948 16.3125C8.67715 16.3125 8.36688 16.19 8.13155 15.9697L7.3342 15.2233C6.91036 14.8266 6.35686 14.5973 5.77664 14.5781L4.68483 14.5421C4.3627 14.5314 4.05667 14.3987 3.82877 14.1708C3.60086 13.9429 3.46812 13.6369 3.45745 13.3147L3.42145 12.2229C3.40226 11.6427 3.17298 11.0892 2.77626 10.6653L2.02983 9.868C1.80956 9.63267 1.68701 9.3224 1.68701 9.00006C1.68701 8.67773 1.80956 8.36746 2.02983 8.13213L2.77626 7.33478C3.17298 6.91094 3.40226 6.35744 3.42145 5.77722L3.45745 4.68541C3.46812 4.36328 3.60086 4.05725 3.82877 3.82935C4.05667 3.60144 4.3627 3.46871 4.68483 3.45803L5.77664 3.42203C6.35686 3.40284 6.91036 3.17357 7.3342 2.77685L8.13155 2.03013Z" fill="black"/>
<path id="Vector_2" d="M12.5044 7.13449C12.6064 7.02559 12.6609 6.88063 12.656 6.73153C12.6511 6.58242 12.5871 6.44136 12.4782 6.3394C12.3693 6.23743 12.2244 6.1829 12.0753 6.1878C11.9262 6.19271 11.7851 6.25665 11.6831 6.36555L7.88093 10.4268L6.3169 8.75618C6.26641 8.70225 6.20579 8.6588 6.13851 8.6283C6.07123 8.59781 5.9986 8.58086 5.92477 8.57843C5.77566 8.57352 5.63071 8.62805 5.5218 8.73002C5.4129 8.83199 5.34896 8.97304 5.34405 9.12215C5.33915 9.27126 5.39368 9.41621 5.49565 9.52511L7.4703 11.6345C7.52292 11.6907 7.58651 11.7355 7.65714 11.7661C7.72777 11.7967 7.80394 11.8126 7.88093 11.8126C7.95791 11.8126 8.03408 11.7967 8.10471 11.7661C8.17534 11.7355 8.23894 11.6907 8.29155 11.6345L12.5044 7.13449Z" fill="#005B0E"/>
</g>
</g>
<defs>
<clipPath id="clip0_40_442">
<rect width="18" height="18" fill="white"/>
</clipPath>
</defs>
</svg>
