<svg width="36" height="36" viewBox="0 0 36 36" fill="none" xmlns="http://www.w3.org/2000/svg">
<g id="Frame">
<g id="Group">
<path id="Vector" fill-rule="evenodd" clip-rule="evenodd" d="M21.2747 2.41775C20.3871 1.58683 19.2167 1.12451 18.0009 1.12451C16.7851 1.12451 15.6148 1.58683 14.7272 2.41775L13.1325 3.91063C12.6833 4.33147 12.0967 4.57493 11.4815 4.59576L9.29792 4.66776C8.08289 4.70792 6.92859 5.20855 6.06896 6.06817C5.20934 6.9278 4.70871 8.0821 4.66855 9.29713L4.59654 11.4802C4.57614 12.0957 4.33287 12.6827 3.91198 13.1323L2.41967 14.7269C1.58907 15.6145 1.12695 16.7846 1.12695 18.0001C1.12695 19.2157 1.58907 20.3858 2.41967 21.2733L3.91198 22.8686C4.33273 23.318 4.57573 23.9053 4.59654 24.5206L4.66855 26.7037C4.70871 27.9187 5.20934 29.073 6.06896 29.9327C6.92859 30.7923 8.08289 31.2929 9.29792 31.3331L11.4815 31.4051C12.0968 31.4257 12.6837 31.6689 13.133 32.0896L14.7283 33.5819C15.6158 34.4125 16.7859 34.8747 18.0015 34.8747C19.217 34.8747 20.3871 34.4125 21.2747 33.5819L22.8699 32.0896C23.3195 31.6688 23.9065 31.4255 24.522 31.4051L26.705 31.3331C27.9201 31.2929 29.0744 30.7923 29.934 29.9327C30.7936 29.073 31.2943 27.9187 31.3344 26.7037L31.4064 24.5206C31.4269 23.9052 31.6701 23.3181 32.091 22.8686L33.5839 21.2733C34.4145 20.3858 34.8766 19.2157 34.8766 18.0001C34.8766 16.7846 34.4145 15.6145 33.5839 14.7269L32.091 13.1317C31.6703 12.6823 31.427 12.0954 31.4064 11.4802L31.3344 9.29657C31.2943 8.08154 30.7936 6.92723 29.934 6.06761C29.0744 5.20799 27.9201 4.70736 26.705 4.66719L24.522 4.59519C23.9065 4.57479 23.3194 4.33152 22.8699 3.91063L21.2747 2.41775ZM16.265 4.06026C16.7357 3.61973 17.3563 3.37462 18.0009 3.37462C18.6456 3.37462 19.2661 3.61973 19.7368 4.06026L21.332 5.55369C22.1797 6.3468 23.2864 6.80514 24.4466 6.8435L26.6302 6.91607C27.2745 6.93741 27.8865 7.20289 28.3424 7.6587C28.7982 8.11451 29.0636 8.72656 29.085 9.37082L29.1575 11.5544C29.1959 12.7146 29.6542 13.8214 30.4474 14.669L31.9402 16.2643C32.3808 16.7349 32.6259 17.3555 32.6259 18.0001C32.6259 18.6448 32.3808 19.2653 31.9402 19.736L30.4474 21.3313C29.654 22.1788 29.1955 23.2856 29.157 24.4458L29.085 26.6294C29.0636 27.2737 28.7982 27.8858 28.3424 28.3416C27.8865 28.7974 27.2745 29.0629 26.6302 29.0842L24.4466 29.1568C23.2862 29.195 22.1792 29.6533 21.3315 30.4466L19.7368 31.9394C19.2661 32.38 18.6456 32.6251 18.0009 32.6251C17.3563 32.6251 16.7357 32.38 16.265 31.9394L14.6704 30.4466C13.8227 29.6531 12.7157 29.1946 11.5552 29.1562L9.37161 29.0842C8.72735 29.0629 8.1153 28.7974 7.65949 28.3416C7.20368 27.8858 6.9382 27.2737 6.91686 26.6294L6.84486 24.4458C6.80647 23.2854 6.34792 22.1784 5.55448 21.3307L4.06161 19.736C3.62108 19.2653 3.37598 18.6448 3.37598 18.0001C3.37598 17.3555 3.62108 16.7349 4.06161 16.2643L5.55448 14.6696C6.34792 13.8219 6.80647 12.7149 6.84486 11.5544L6.91686 9.37082C6.9382 8.72656 7.20368 8.11451 7.65949 7.6587C8.1153 7.20289 8.72735 6.93741 9.37161 6.91607L11.5552 6.84407C12.7157 6.80568 13.8227 6.34713 14.6704 5.55369L16.265 4.06026Z" fill="white"/>
<path id="Vector_2" d="M25.0088 14.269C25.2127 14.0512 25.3218 13.7613 25.312 13.4631C25.3022 13.1648 25.1743 12.8827 24.9565 12.6788C24.7387 12.4749 24.4488 12.3658 24.1506 12.3756C23.8523 12.3854 23.5702 12.5133 23.3663 12.7311L15.7619 20.8536L12.6338 17.5124C12.5328 17.4045 12.4116 17.3176 12.277 17.2566C12.1425 17.1956 11.9972 17.1617 11.8495 17.1569C11.5513 17.147 11.2614 17.2561 11.0436 17.46C10.8258 17.664 10.6979 17.9461 10.6881 18.2443C10.6783 18.5425 10.7874 18.8324 10.9913 19.0502L14.9406 23.269C15.0458 23.3814 15.173 23.471 15.3143 23.5322C15.4555 23.5935 15.6079 23.6251 15.7619 23.6251C15.9158 23.6251 16.0682 23.5935 16.2094 23.5322C16.3507 23.471 16.4779 23.3814 16.5831 23.269L25.0088 14.269Z" fill="white"/>
</g>
</g>
</svg>
